{"glyphs":{"0":{"ha":867,"x_min":54,"x_max":818,"o":"m 383 -11 q 135 83 217 -11 q 54 318 54 176 q 110 560 54 453 q 264 727 165 667 q 489 788 363 788 q 737 694 656 788 q 818 458 818 600 q 763 217 818 324 q 608 49 707 110 q 383 -11 508 -11 m 399 64 q 544 185 503 64 q 585 463 585 307 q 469 714 585 714 q 324 592 365 714 q 283 317 283 471 q 310 133 283 203 q 399 64 336 64 z "},"1":{"ha":631,"x_min":43,"x_max":565,"o":"m 193 90 l 264 603 q 100 568 158 578 l 88 651 q 251 708 156 667 q 401 788 346 750 l 511 763 l 414 90 l 565 71 l 558 0 l 43 0 l 50 71 l 193 90 z "},"2":{"ha":846,"x_min":26,"x_max":794,"o":"m 26 71 q 363 324 235 183 q 492 607 492 464 q 460 708 492 672 q 372 744 428 744 q 231 713 304 744 q 131 649 158 681 l 79 735 q 152 792 101 760 q 278 850 203 825 q 438 875 353 875 q 607 835 543 875 q 698 737 671 794 q 725 622 725 679 q 651 431 725 531 q 464 243 576 331 q 238 101 351 156 l 619 131 l 696 267 l 794 235 l 728 0 l 49 0 l 26 71 z "},"3":{"ha":749,"x_min":-14,"x_max":664,"o":"m 144 -222 q -14 -200 89 -222 l 14 -100 q 101 -111 56 -111 q 290 -76 214 -111 q 403 16 367 -40 q 439 136 439 72 q 422 210 439 174 q 365 272 404 247 q 268 297 326 297 q 239 296 249 297 l 164 275 l 178 372 q 316 428 257 389 q 406 518 375 467 q 438 624 438 569 q 413 703 438 668 q 339 738 389 738 q 115 656 213 738 l 76 736 q 155 796 101 764 q 278 850 208 828 q 419 872 349 872 q 594 816 531 872 q 658 664 658 760 q 585 493 658 576 q 411 367 511 410 q 444 368 422 368 q 563 337 513 368 q 638 255 613 306 q 664 146 664 204 q 593 -45 664 39 q 403 -176 522 -129 q 144 -222 283 -222 z "},"4":{"ha":857,"x_min":-26,"x_max":790,"o":"m 431 0 l 19 0 l -26 57 q 131 297 40 139 q 305 626 222 456 q 431 904 388 796 l 456 904 l 667 813 q 456 474 592 685 q 257 185 321 263 l 228 151 q 169 85 169 85 l 447 108 l 476 335 l 688 386 l 658 124 l 790 135 l 772 0 l 635 0 l 604 -254 l 397 -254 l 431 0 z "},"5":{"ha":767,"x_min":69,"x_max":763,"o":"m 85 -107 q 158 -118 125 -118 q 339 -79 267 -118 q 445 20 411 -40 q 479 146 479 81 q 436 278 479 225 q 313 331 393 331 q 156 290 236 331 l 114 322 l 222 860 l 640 860 l 657 879 l 763 879 l 725 717 l 382 718 l 307 407 q 378 436 328 422 q 469 450 429 450 q 612 413 556 450 q 694 318 668 376 q 719 193 719 260 q 652 -23 719 71 q 468 -169 585 -117 q 207 -221 351 -221 q 132 -215 178 -221 q 69 -204 86 -208 l 85 -107 z "},"6":{"ha":821,"x_min":64,"x_max":764,"o":"m 396 -14 q 226 32 301 -14 q 107 158 150 78 q 64 339 64 239 q 142 659 64 507 q 358 918 221 811 q 665 1065 496 1025 l 701 976 q 535 887 617 950 q 395 744 454 824 q 315 590 336 664 q 394 651 344 628 q 510 675 443 675 q 644 642 586 675 q 733 549 701 608 q 764 415 764 490 q 715 203 764 301 q 583 45 667 104 q 396 -14 499 -14 m 394 78 q 483 123 447 78 q 535 235 518 168 q 551 374 551 303 q 518 509 551 467 q 436 551 485 551 q 352 525 388 551 q 293 463 317 499 q 275 272 275 363 q 301 128 275 179 q 394 78 328 78 z "},"7":{"ha":743,"x_min":47,"x_max":764,"o":"m 256 656 l 192 492 l 47 492 l 99 778 l 740 778 l 764 743 l 368 -254 l 164 -190 l 583 656 l 256 656 z "},"8":{"ha":850,"x_min":60,"x_max":810,"o":"m 60 236 q 131 405 60 325 q 308 526 201 485 q 210 638 247 581 q 174 767 174 696 q 217 907 174 843 q 340 1008 261 971 q 521 1046 418 1046 q 741 997 672 1046 q 810 851 810 949 q 747 693 810 771 q 588 565 685 615 q 774 288 774 431 q 717 131 774 200 q 569 24 660 63 q 381 -14 478 -14 q 151 46 243 -14 q 60 236 60 106 m 503 633 q 638 843 638 711 q 603 938 638 907 q 519 969 569 969 q 409 929 450 969 q 368 817 368 889 q 401 724 368 767 q 503 633 435 681 m 256 235 q 293 120 256 169 q 406 71 331 71 q 520 118 472 71 q 568 244 568 165 q 552 316 568 285 q 510 372 536 347 q 432 435 483 396 l 397 461 q 256 235 257 374 z "},"9":{"ha":846,"x_min":82,"x_max":781,"o":"m 449 789 q 621 749 546 789 q 738 631 696 708 q 781 443 781 553 q 701 122 781 275 q 482 -141 621 -32 q 174 -290 343 -250 l 138 -201 q 308 -115 225 -175 q 450 24 390 -56 q 531 185 510 103 q 451 124 500 147 q 336 100 403 100 q 202 140 260 100 q 113 251 144 181 q 82 413 82 322 q 130 599 82 513 q 262 737 178 685 q 449 789 346 789 m 451 697 q 334 623 374 697 q 294 454 294 549 q 328 278 294 332 q 410 224 361 224 q 553 313 492 224 q 571 469 571 394 q 544 639 571 581 q 451 697 518 697 z "},"\u0000":{"ha":0,"x_min":0,"x_max":0,"o":""},"\r":{"ha":329,"x_min":0,"x_max":0,"o":""}," ":{"ha":329,"x_min":0,"x_max":0,"o":""},"A":{"ha":917,"x_min":-108,"x_max":944,"o":"m 668 1035 l 836 92 l 944 71 l 940 0 l 478 0 l 481 71 l 588 90 l 560 283 l 228 283 l 146 90 l 274 71 l 268 0 l -108 0 l -103 71 l -8 90 l 436 1035 l 668 1035 m 271 385 l 546 385 l 492 760 l 486 889 l 271 385 z "},"Á":{"ha":917,"x_min":-108,"x_max":944,"o":"m 668 1035 l 836 92 l 944 71 l 940 0 l 478 0 l 481 71 l 588 90 l 560 283 l 228 283 l 146 90 l 274 71 l 268 0 l -108 0 l -103 71 l -8 90 l 436 1035 l 668 1035 m 271 385 l 546 385 l 492 760 l 486 889 l 271 385 m 686 1365 l 808 1268 q 690 1171 776 1228 q 557 1101 603 1114 l 471 1160 l 686 1365 z "},"Ă":{"ha":917,"x_min":-108,"x_max":944,"o":"m 668 1035 l 836 92 l 944 71 l 940 0 l 478 0 l 481 71 l 588 90 l 560 283 l 228 283 l 146 90 l 274 71 l 268 0 l -108 0 l -103 71 l -8 90 l 436 1035 l 668 1035 m 271 385 l 546 385 l 492 760 l 486 889 l 271 385 m 568 1107 q 354 1319 354 1107 q 358 1364 354 1346 l 483 1364 q 488 1303 483 1325 q 510 1267 492 1281 q 571 1253 529 1253 q 660 1286 638 1253 q 683 1364 683 1319 l 804 1364 q 740 1178 804 1249 q 568 1107 676 1107 z "},"Ắ":{"ha":917,"x_min":-108,"x_max":944,"o":"m 668 1035 l 836 92 l 944 71 l 940 0 l 478 0 l 481 71 l 588 90 l 560 283 l 228 283 l 146 90 l 274 71 l 268 0 l -108 0 l -103 71 l -8 90 l 436 1035 l 668 1035 m 271 385 l 546 385 l 492 760 l 486 889 l 271 385 m 485 1224 l 611 1365 l 714 1281 q 649 1215 690 1249 q 554 1154 607 1181 l 485 1224 m 557 1001 q 406 1037 458 1001 q 353 1138 353 1072 q 356 1183 353 1174 l 440 1183 l 440 1168 q 470 1130 440 1147 q 557 1113 500 1113 q 646 1130 614 1113 q 678 1167 678 1147 q 676 1183 678 1179 l 758 1183 q 761 1139 761 1164 q 710 1037 761 1072 q 557 1001 660 1001 z "},"Ặ":{"ha":917,"x_min":-108,"x_max":944,"o":"m 668 1035 l 836 92 l 944 71 l 940 0 l 478 0 l 481 71 l 588 90 l 560 283 l 228 283 l 146 90 l 274 71 l 268 0 l -108 0 l -103 71 l -8 90 l 436 1035 l 668 1035 m 271 385 l 546 385 l 492 760 l 486 889 l 271 385 m 335 -337 q 258 -306 286 -337 q 231 -224 231 -275 q 269 -127 231 -165 q 369 -89 308 -89 q 449 -118 422 -89 q 476 -197 476 -147 q 440 -297 476 -257 q 335 -337 403 -337 m 568 1107 q 354 1319 354 1107 q 358 1364 354 1346 l 483 1364 q 488 1303 483 1325 q 510 1267 492 1281 q 571 1253 529 1253 q 660 1286 638 1253 q 683 1364 683 1319 l 804 1364 q 740 1178 804 1249 q 568 1107 676 1107 z "},"Ằ":{"ha":917,"x_min":-108,"x_max":944,"o":"m 668 1035 l 836 92 l 944 71 l 940 0 l 478 0 l 481 71 l 588 90 l 560 283 l 228 283 l 146 90 l 274 71 l 268 0 l -108 0 l -103 71 l -8 90 l 436 1035 l 668 1035 m 271 385 l 546 385 l 492 760 l 486 889 l 271 385 m 582 1147 q 497 1212 533 1178 q 444 1276 461 1246 l 556 1360 l 661 1218 l 582 1147 m 544 1001 q 405 1031 453 1001 q 357 1117 357 1061 q 358 1138 357 1131 q 368 1183 364 1172 l 453 1183 q 452 1176 453 1181 q 451 1164 451 1172 q 478 1128 451 1144 q 560 1113 506 1113 q 651 1130 617 1113 q 688 1167 685 1147 q 689 1183 690 1181 l 771 1183 q 768 1139 771 1158 q 703 1037 758 1072 q 544 1001 647 1001 z "},"Ẳ":{"ha":917,"x_min":-108,"x_max":944,"o":"m 668 1035 l 836 92 l 944 71 l 940 0 l 478 0 l 481 71 l 588 90 l 560 283 l 228 283 l 146 90 l 274 71 l 268 0 l -108 0 l -103 71 l -8 90 l 436 1035 l 668 1035 m 271 385 l 546 385 l 492 760 l 486 889 l 271 385 m 525 1144 q 515 1171 513 1154 q 543 1201 517 1183 q 562 1219 553 1210 q 572 1236 571 1228 q 528 1272 579 1272 q 461 1258 493 1272 l 472 1356 q 507 1363 475 1360 q 558 1365 539 1365 q 696 1285 696 1365 q 682 1231 696 1251 q 633 1192 668 1211 q 615 1173 622 1186 q 610 1146 608 1160 l 525 1144 m 554 1001 q 410 1033 461 1001 q 358 1119 358 1064 q 360 1138 358 1131 q 369 1183 365 1172 l 454 1183 q 451 1164 451 1175 q 478 1128 451 1144 q 560 1113 506 1113 q 652 1130 618 1113 q 689 1167 686 1147 l 690 1183 l 772 1183 q 768 1139 772 1168 q 554 1001 749 1001 z "},"Ẵ":{"ha":917,"x_min":-108,"x_max":944,"o":"m 668 1035 l 836 92 l 944 71 l 940 0 l 478 0 l 481 71 l 588 90 l 560 283 l 228 283 l 146 90 l 274 71 l 268 0 l -108 0 l -103 71 l -8 90 l 436 1035 l 668 1035 m 271 385 l 546 385 l 492 760 l 486 889 l 271 385 m 367 1242 q 392 1296 371 1267 q 445 1345 413 1325 q 517 1365 478 1365 q 563 1356 546 1365 q 597 1331 581 1347 q 624 1310 613 1317 q 653 1304 635 1304 q 699 1314 685 1304 q 739 1353 714 1324 l 781 1319 q 725 1234 764 1268 q 626 1200 686 1200 q 581 1209 597 1200 q 544 1236 564 1218 q 518 1257 529 1250 q 489 1264 507 1264 q 449 1250 468 1264 q 407 1210 431 1236 l 367 1242 m 557 1001 q 409 1038 465 1001 q 353 1138 353 1074 q 357 1183 353 1174 l 440 1183 l 440 1168 q 470 1130 440 1147 q 557 1113 500 1113 q 646 1130 614 1113 q 678 1167 678 1147 q 676 1183 678 1179 l 758 1183 q 761 1139 761 1164 q 706 1038 761 1074 q 557 1001 651 1001 z "},"Ǎ":{"ha":917,"x_min":-108,"x_max":944,"o":"m 668 1035 l 836 92 l 944 71 l 940 0 l 478 0 l 481 71 l 588 90 l 560 283 l 228 283 l 146 90 l 274 71 l 268 0 l -108 0 l -103 71 l -8 90 l 436 1035 l 668 1035 m 271 385 l 546 385 l 492 760 l 486 889 l 271 385 m 442 1365 l 576 1231 l 783 1365 l 856 1328 l 614 1094 l 501 1094 l 360 1326 l 442 1365 z "},"Â":{"ha":917,"x_min":-108,"x_max":944,"o":"m 668 1035 l 836 92 l 944 71 l 940 0 l 478 0 l 481 71 l 588 90 l 560 283 l 228 283 l 146 90 l 274 71 l 268 0 l -108 0 l -103 71 l -8 90 l 436 1035 l 668 1035 m 271 385 l 546 385 l 492 760 l 486 889 l 271 385 m 532 1365 l 653 1365 l 794 1124 l 713 1085 l 575 1226 l 356 1085 l 285 1124 l 532 1365 z "},"Ấ":{"ha":917,"x_min":-108,"x_max":1044,"o":"m 668 1035 l 836 92 l 944 71 l 940 0 l 478 0 l 481 71 l 588 90 l 560 283 l 228 283 l 146 90 l 274 71 l 268 0 l -108 0 l -103 71 l -8 90 l 436 1035 l 668 1035 m 271 385 l 546 385 l 492 760 l 486 889 l 271 385 m 808 1224 l 957 1365 l 1044 1281 q 970 1215 1017 1249 q 865 1154 924 1181 l 808 1224 m 665 1346 l 819 1128 l 744 1065 l 574 1208 l 356 1065 l 301 1128 l 526 1346 l 665 1346 z "},"Ậ":{"ha":917,"x_min":-108,"x_max":944,"o":"m 668 1035 l 836 92 l 944 71 l 940 0 l 478 0 l 481 71 l 588 90 l 560 283 l 228 283 l 146 90 l 274 71 l 268 0 l -108 0 l -103 71 l -8 90 l 436 1035 l 668 1035 m 271 385 l 546 385 l 492 760 l 486 889 l 271 385 m 335 -337 q 258 -306 286 -337 q 231 -224 231 -275 q 269 -127 231 -165 q 369 -89 308 -89 q 449 -118 422 -89 q 476 -197 476 -147 q 440 -297 476 -257 q 335 -337 403 -337 m 532 1365 l 653 1365 l 794 1124 l 713 1085 l 575 1226 l 356 1085 l 285 1124 l 532 1365 z "},"Ầ":{"ha":917,"x_min":-108,"x_max":975,"o":"m 668 1035 l 836 92 l 944 71 l 940 0 l 478 0 l 481 71 l 588 90 l 560 283 l 228 283 l 146 90 l 274 71 l 268 0 l -108 0 l -103 71 l -8 90 l 436 1035 l 668 1035 m 271 385 l 546 385 l 492 760 l 486 889 l 271 385 m 924 1128 q 838 1211 888 1151 q 763 1315 788 1271 l 844 1365 l 975 1161 l 924 1128 m 663 1346 l 818 1126 l 742 1065 l 572 1208 l 353 1064 l 300 1126 l 525 1346 l 663 1346 z "},"Ẩ":{"ha":917,"x_min":-108,"x_max":1053,"o":"m 668 1035 l 836 92 l 944 71 l 940 0 l 478 0 l 481 71 l 588 90 l 560 283 l 228 283 l 146 90 l 274 71 l 268 0 l -108 0 l -103 71 l -8 90 l 436 1035 l 668 1035 m 271 385 l 546 385 l 492 760 l 486 889 l 271 385 m 871 1082 q 858 1112 861 1101 q 857 1133 856 1122 q 869 1160 860 1149 q 894 1185 878 1171 q 919 1208 910 1197 q 932 1236 928 1219 q 888 1274 939 1272 q 821 1260 854 1274 l 832 1356 q 866 1363 835 1360 q 917 1365 897 1365 q 1017 1347 982 1365 q 1053 1283 1053 1328 q 1051 1261 1053 1269 q 1028 1202 1044 1224 q 993 1165 1013 1181 q 965 1142 974 1149 q 949 1099 947 1125 l 871 1082 m 657 1307 l 817 1118 l 740 1057 l 567 1176 l 353 1056 l 299 1118 l 518 1307 l 657 1307 z "},"Ẫ":{"ha":917,"x_min":-108,"x_max":944,"o":"m 668 1035 l 836 92 l 944 71 l 940 0 l 478 0 l 481 71 l 588 90 l 560 283 l 228 283 l 146 90 l 274 71 l 268 0 l -108 0 l -103 71 l -8 90 l 436 1035 l 668 1035 m 271 385 l 546 385 l 492 760 l 486 889 l 271 385 m 372 1347 q 397 1401 376 1372 q 451 1451 418 1431 q 522 1471 483 1471 q 574 1460 551 1471 q 626 1428 596 1449 q 666 1403 650 1411 q 700 1394 682 1394 q 747 1404 732 1394 q 788 1443 761 1414 l 829 1410 q 769 1326 813 1360 q 665 1292 726 1292 q 615 1303 636 1292 q 565 1335 594 1314 q 528 1360 544 1351 q 494 1369 513 1369 q 455 1356 474 1369 q 413 1315 436 1342 l 372 1347 m 650 1256 l 810 1128 l 751 1065 l 563 1146 l 344 1064 l 310 1128 l 511 1256 l 650 1256 z "},"Ä":{"ha":917,"x_min":-108,"x_max":944,"o":"m 668 1035 l 836 92 l 944 71 l 940 0 l 478 0 l 481 71 l 588 90 l 560 283 l 228 283 l 146 90 l 274 71 l 268 0 l -108 0 l -103 71 l -8 90 l 436 1035 l 668 1035 m 271 385 l 546 385 l 492 760 l 486 889 l 271 385 m 399 1128 q 333 1156 360 1128 q 307 1224 307 1183 q 338 1313 307 1281 q 421 1344 368 1344 q 492 1319 467 1344 q 517 1253 517 1293 q 487 1161 517 1194 q 399 1128 457 1128 m 731 1128 q 665 1156 692 1128 q 639 1224 639 1183 q 669 1313 639 1281 q 753 1344 700 1344 q 822 1319 797 1344 q 847 1253 847 1293 q 818 1161 847 1194 q 731 1128 789 1128 z "},"Ạ":{"ha":917,"x_min":-108,"x_max":944,"o":"m 668 1035 l 836 92 l 944 71 l 940 0 l 478 0 l 481 71 l 588 90 l 560 283 l 228 283 l 146 90 l 274 71 l 268 0 l -108 0 l -103 71 l -8 90 l 436 1035 l 668 1035 m 271 385 l 546 385 l 492 760 l 486 889 l 271 385 m 335 -337 q 258 -306 286 -337 q 231 -224 231 -275 q 269 -127 231 -165 q 369 -89 308 -89 q 449 -118 422 -89 q 476 -197 476 -147 q 440 -297 476 -257 q 335 -337 403 -337 z "},"À":{"ha":917,"x_min":-108,"x_max":944,"o":"m 668 1035 l 836 92 l 944 71 l 940 0 l 478 0 l 481 71 l 588 90 l 560 283 l 228 283 l 146 90 l 274 71 l 268 0 l -108 0 l -103 71 l -8 90 l 436 1035 l 668 1035 m 271 385 l 546 385 l 492 760 l 486 889 l 271 385 m 586 1100 q 465 1165 535 1113 q 363 1271 396 1217 l 479 1356 l 668 1153 l 586 1100 z "},"Ả":{"ha":917,"x_min":-108,"x_max":944,"o":"m 668 1035 l 836 92 l 944 71 l 940 0 l 478 0 l 481 71 l 588 90 l 560 283 l 228 283 l 146 90 l 274 71 l 268 0 l -108 0 l -103 71 l -8 90 l 436 1035 l 668 1035 m 271 385 l 546 385 l 492 760 l 486 889 l 271 385 m 504 1082 q 496 1097 500 1086 q 492 1119 492 1108 q 500 1147 492 1138 q 543 1183 511 1165 q 572 1205 564 1197 q 581 1226 581 1213 q 567 1258 581 1247 q 519 1268 553 1268 q 481 1265 486 1268 l 492 1358 q 513 1363 496 1360 q 544 1365 531 1365 q 689 1342 647 1365 q 731 1257 731 1318 q 642 1156 731 1215 q 596 1082 593 1124 l 504 1082 z "},"Ā":{"ha":917,"x_min":-108,"x_max":944,"o":"m 668 1035 l 836 92 l 944 71 l 940 0 l 478 0 l 481 71 l 588 90 l 560 283 l 228 283 l 146 90 l 274 71 l 268 0 l -108 0 l -103 71 l -8 90 l 436 1035 l 668 1035 m 271 385 l 546 385 l 492 760 l 486 889 l 271 385 m 775 1299 l 761 1158 l 375 1158 l 388 1299 l 775 1299 z "},"Ą":{"ha":917,"x_min":-108,"x_max":944,"o":"m 783 0 q 653 -146 653 -90 q 664 -184 653 -174 q 697 -194 675 -194 q 747 -182 724 -194 q 801 -144 769 -169 l 826 -221 q 723 -295 782 -267 q 596 -324 664 -324 q 498 -292 532 -324 q 464 -207 464 -261 q 473 -167 464 -190 q 494 -124 482 -143 q 561 -49 526 -78 q 638 0 596 -21 l 478 0 l 481 71 l 588 90 l 560 283 l 228 283 l 146 90 l 274 71 l 268 0 l -108 0 l -103 71 l -8 90 l 436 1032 l 668 1032 l 836 92 l 944 71 l 940 0 l 783 0 m 271 385 l 546 385 l 492 760 l 486 889 l 271 385 z "},"Å":{"ha":917,"x_min":-108,"x_max":944,"o":"m 433 1028 q 353 1080 382 1044 q 324 1167 324 1115 q 407 1319 324 1274 q 592 1365 490 1365 q 744 1326 685 1365 q 803 1215 803 1288 q 766 1101 803 1146 q 667 1032 729 1056 l 836 92 l 944 71 l 940 0 l 478 0 l 481 71 l 588 90 l 560 283 l 228 283 l 146 90 l 274 71 l 268 0 l -108 0 l -103 71 l -8 90 l 433 1028 m 575 1275 q 490 1253 526 1275 q 454 1183 454 1232 q 485 1126 454 1149 q 554 1104 517 1104 q 674 1196 674 1104 q 643 1253 674 1231 q 575 1275 613 1275 m 271 385 l 546 385 l 492 760 l 486 889 l 271 385 z "},"Ǻ":{"ha":917,"x_min":-108,"x_max":944,"o":"m -103 71 l -8 90 l 418 993 q 307 1110 307 1021 q 360 1224 307 1189 q 508 1269 414 1260 l 606 1363 l 772 1329 q 746 1306 765 1324 q 712 1279 726 1289 q 683 1264 697 1269 q 817 1151 817 1246 q 815 1132 817 1139 q 772 1040 807 1072 q 675 993 736 1007 l 836 92 l 944 71 l 940 0 l 478 0 l 481 71 l 588 90 l 560 283 l 228 283 l 146 90 l 274 71 l 268 0 l -108 0 l -103 71 m 451 1131 q 554 1076 443 1076 q 647 1092 621 1076 q 674 1142 674 1108 q 568 1190 674 1190 q 483 1176 510 1190 q 451 1131 456 1161 m 546 385 l 492 760 l 486 889 l 271 385 l 546 385 z "},"Ã":{"ha":917,"x_min":-108,"x_max":944,"o":"m 668 1035 l 836 92 l 944 71 l 940 0 l 478 0 l 481 71 l 588 90 l 560 283 l 228 283 l 146 90 l 274 71 l 268 0 l -108 0 l -103 71 l -8 90 l 436 1035 l 668 1035 m 271 385 l 546 385 l 492 760 l 486 889 l 271 385 m 313 1232 q 376 1313 329 1279 q 485 1347 424 1347 q 549 1332 524 1347 q 603 1288 574 1317 q 639 1256 624 1267 q 674 1246 654 1246 q 778 1314 728 1246 l 832 1239 q 765 1153 813 1190 q 661 1115 717 1115 q 592 1130 618 1115 q 538 1172 567 1144 q 498 1206 515 1196 q 454 1217 481 1217 q 404 1202 426 1217 q 357 1161 382 1188 l 313 1232 z "},"Æ":{"ha":1360,"x_min":-139,"x_max":1333,"o":"m 451 71 l 558 90 l 583 283 l 261 283 l 161 90 l 290 71 l 286 0 l -139 0 l -133 71 l -26 90 l 467 935 l 267 953 l 278 1032 l 1333 1032 l 1308 783 l 1161 783 l 1138 935 l 906 951 l 856 588 l 1164 615 l 1140 463 l 843 483 l 790 90 l 1107 114 l 1186 315 l 1328 306 l 1281 0 l 442 0 l 451 71 m 314 385 l 597 385 l 671 951 l 611 951 l 314 385 z "},"Ǽ":{"ha":1360,"x_min":-139,"x_max":1333,"o":"m 451 71 l 558 90 l 583 283 l 261 283 l 161 90 l 290 71 l 286 0 l -139 0 l -133 71 l -26 90 l 467 935 l 267 953 l 278 1032 l 1333 1032 l 1308 783 l 1161 783 l 1138 935 l 906 951 l 856 588 l 1164 615 l 1140 463 l 843 483 l 790 90 l 1107 114 l 1186 315 l 1328 306 l 1281 0 l 442 0 l 451 71 m 314 385 l 597 385 l 671 951 l 611 951 l 314 385 m 921 1365 l 1043 1268 q 924 1171 1011 1228 q 792 1101 838 1114 l 706 1160 l 921 1365 z "},"B":{"ha":950,"x_min":-7,"x_max":908,"o":"m 343 1032 q 449 1038 379 1032 q 585 1043 535 1043 q 840 978 772 1043 q 908 807 908 913 q 845 639 908 703 q 656 544 782 575 q 787 518 731 546 q 873 442 843 490 q 903 339 903 394 q 780 69 903 153 q 408 -14 657 -14 q 349 -11 385 -14 q 297 -7 313 -8 q 192 0 232 0 l -7 0 l -1 71 l 93 90 l 207 942 l 108 957 l 117 1032 l 343 1032 m 382 581 q 413 580 400 579 q 436 581 426 581 l 469 581 q 626 632 564 581 q 688 790 688 683 q 648 915 688 872 q 532 957 608 957 q 432 949 468 957 l 382 581 m 315 88 q 378 76 342 81 q 438 71 414 71 q 658 297 658 71 q 612 442 658 396 q 457 488 565 488 q 369 485 403 488 l 315 88 z "},"Ḃ":{"ha":950,"x_min":-7,"x_max":908,"o":"m 343 1032 q 449 1038 379 1032 q 585 1043 535 1043 q 840 978 772 1043 q 908 807 908 913 q 845 639 908 703 q 656 544 782 575 q 787 518 731 546 q 873 442 843 490 q 903 339 903 394 q 780 69 903 153 q 408 -14 657 -14 q 349 -11 385 -14 q 297 -7 313 -8 q 192 0 232 0 l -7 0 l -1 71 l 93 90 l 207 942 l 108 957 l 117 1032 l 343 1032 m 382 581 q 413 580 400 579 q 436 581 426 581 l 469 581 q 626 632 564 581 q 688 790 688 683 q 648 915 688 872 q 532 957 608 957 q 432 949 468 957 l 382 581 m 315 88 q 378 76 342 81 q 438 71 414 71 q 658 297 658 71 q 612 442 658 396 q 457 488 565 488 q 369 485 403 488 l 315 88 m 556 1115 q 481 1147 515 1115 q 446 1218 446 1179 q 483 1309 446 1272 q 579 1346 521 1346 q 661 1316 628 1346 q 694 1247 694 1286 q 658 1153 694 1190 q 556 1115 621 1115 z "},"Ḅ":{"ha":950,"x_min":-7,"x_max":908,"o":"m 343 1032 q 449 1038 379 1032 q 585 1043 535 1043 q 840 978 772 1043 q 908 807 908 913 q 845 639 908 703 q 656 544 782 575 q 787 518 731 546 q 873 442 843 490 q 903 339 903 394 q 780 69 903 153 q 408 -14 657 -14 q 349 -11 385 -14 q 297 -7 313 -8 q 192 0 232 0 l -7 0 l -1 71 l 93 90 l 207 942 l 108 957 l 117 1032 l 343 1032 m 382 581 q 413 580 400 579 q 436 581 426 581 l 469 581 q 626 632 564 581 q 688 790 688 683 q 648 915 688 872 q 532 957 608 957 q 432 949 468 957 l 382 581 m 315 88 q 378 76 342 81 q 438 71 414 71 q 658 297 658 71 q 612 442 658 396 q 457 488 565 488 q 369 485 403 488 l 315 88 m 343 -337 q 267 -306 294 -337 q 239 -224 239 -275 q 278 -127 239 -165 q 378 -89 317 -89 q 458 -118 431 -89 q 485 -197 485 -147 q 448 -297 485 -257 q 343 -337 411 -337 z "},"C":{"ha":881,"x_min":40,"x_max":907,"o":"m 671 946 q 604 957 640 957 q 432 880 501 957 q 331 685 363 803 q 301 446 299 567 q 352 184 307 271 q 494 97 397 97 q 643 147 590 97 q 697 285 669 181 l 831 285 l 801 90 q 668 18 746 47 q 458 -11 590 -11 q 142 113 243 -11 q 40 432 42 236 q 115 760 40 622 q 324 972 189 899 q 640 1044 460 1044 q 766 1038 721 1044 q 857 1019 811 1032 l 885 1013 l 907 1007 l 865 735 l 697 735 l 671 946 z "},"Ć":{"ha":881,"x_min":40,"x_max":907,"o":"m 671 946 q 604 957 640 957 q 432 880 501 957 q 331 685 363 803 q 301 446 299 567 q 352 184 307 271 q 494 97 397 97 q 643 147 590 97 q 697 285 669 181 l 831 285 l 801 90 q 668 18 746 47 q 458 -11 590 -11 q 142 113 243 -11 q 40 432 42 236 q 115 760 40 622 q 324 972 189 899 q 640 1044 460 1044 q 766 1038 721 1044 q 857 1019 811 1032 l 885 1013 l 907 1007 l 865 735 l 697 735 l 671 946 m 779 1365 l 901 1268 q 783 1171 869 1228 q 650 1101 696 1114 l 564 1160 l 779 1365 z "},"Č":{"ha":881,"x_min":40,"x_max":949,"o":"m 671 946 q 604 957 640 957 q 432 880 501 957 q 331 685 363 803 q 301 446 299 567 q 352 184 307 271 q 494 97 397 97 q 643 147 590 97 q 697 285 669 181 l 831 285 l 801 90 q 668 18 746 47 q 458 -11 590 -11 q 142 113 243 -11 q 40 432 42 236 q 115 760 40 622 q 324 972 189 899 q 640 1044 460 1044 q 766 1038 721 1044 q 857 1019 811 1032 l 885 1013 l 907 1007 l 865 735 l 697 735 l 671 946 m 535 1365 l 669 1231 l 876 1365 l 949 1328 l 707 1094 l 594 1094 l 453 1326 l 535 1365 z "},"Ç":{"ha":881,"x_min":40,"x_max":907,"o":"m 40 432 q 115 760 40 622 q 324 972 189 899 q 640 1044 460 1044 q 766 1038 721 1044 q 857 1019 811 1032 l 885 1013 l 907 1007 l 865 735 l 697 735 l 671 946 q 604 957 640 957 q 432 880 501 957 q 331 685 363 803 q 301 446 299 567 q 352 184 307 271 q 494 97 397 97 q 643 147 590 97 q 697 285 669 181 l 831 285 l 801 90 q 688 25 756 53 q 513 -10 621 -3 q 535 -146 535 -67 q 481 -277 535 -228 q 322 -326 428 -326 q 263 -319 293 -326 q 213 -297 232 -311 l 240 -186 q 297 -194 257 -194 q 366 -183 343 -194 q 397 -143 389 -171 q 403 -62 406 -115 q 397 -8 403 -39 q 128 131 214 10 q 40 432 42 251 z "},"Ĉ":{"ha":881,"x_min":40,"x_max":907,"o":"m 671 946 q 604 957 640 957 q 432 880 501 957 q 331 685 363 803 q 301 446 299 567 q 352 184 307 271 q 494 97 397 97 q 643 147 590 97 q 697 285 669 181 l 831 285 l 801 90 q 668 18 746 47 q 458 -11 590 -11 q 142 113 243 -11 q 40 432 42 236 q 115 760 40 622 q 324 972 189 899 q 640 1044 460 1044 q 766 1038 721 1044 q 857 1019 811 1032 l 885 1013 l 907 1007 l 865 735 l 697 735 l 671 946 m 625 1365 l 746 1365 l 888 1124 l 806 1085 l 668 1226 l 449 1085 l 378 1124 l 625 1365 z "},"Ċ":{"ha":881,"x_min":40,"x_max":907,"o":"m 671 946 q 604 957 640 957 q 432 880 501 957 q 331 685 363 803 q 301 446 299 567 q 352 184 307 271 q 494 97 397 97 q 643 147 590 97 q 697 285 669 181 l 831 285 l 801 90 q 668 18 746 47 q 458 -11 590 -11 q 142 113 243 -11 q 40 432 42 236 q 115 760 40 622 q 324 972 189 899 q 640 1044 460 1044 q 766 1038 721 1044 q 857 1019 811 1032 l 885 1013 l 907 1007 l 865 735 l 697 735 l 671 946 m 653 1115 q 578 1147 613 1115 q 543 1218 543 1179 q 581 1309 543 1272 q 676 1346 618 1346 q 758 1316 725 1346 q 792 1247 792 1286 q 755 1153 792 1190 q 653 1115 718 1115 z "},"D":{"ha":1021,"x_min":-22,"x_max":1013,"o":"m 331 1032 q 439 1038 367 1032 q 575 1043 531 1043 q 908 930 804 1043 q 1013 625 1013 817 q 864 160 1013 331 q 407 -11 715 -11 q 356 -6 381 -11 q 225 0 294 0 l -22 0 l -14 71 l 93 90 l 207 942 l 110 957 l 117 1032 l 331 1032 m 326 92 q 375 80 347 85 q 422 75 403 75 q 615 154 539 75 q 726 353 692 233 q 761 601 761 474 q 710 874 761 792 q 549 957 660 957 q 481 952 511 957 q 439 942 450 947 l 326 92 z "},"Ǳ":{"ha":1853,"x_min":-22,"x_max":1904,"o":"m 331 1032 q 439 1038 367 1032 q 575 1043 531 1043 q 908 930 804 1043 q 1013 625 1013 817 q 864 160 1013 331 q 407 -11 715 -11 q 356 -6 381 -11 q 225 0 294 0 l -22 0 l -14 71 l 93 90 l 207 942 l 110 957 l 117 1032 l 331 1032 m 326 92 q 375 80 347 85 q 422 75 403 75 q 615 154 539 75 q 726 353 692 233 q 761 601 761 474 q 710 874 761 792 q 549 957 660 957 q 481 952 511 957 q 439 942 450 947 l 326 92 m 1883 1032 l 1904 974 l 1326 161 l 1250 92 l 1583 107 l 1715 325 l 1832 293 l 1764 0 l 1008 0 l 985 60 l 1569 878 l 1653 947 l 1349 935 l 1253 751 l 1136 767 l 1179 1032 l 1883 1032 z "},"Ǆ":{"ha":1853,"x_min":-22,"x_max":1904,"o":"m 331 1032 q 439 1038 367 1032 q 575 1043 531 1043 q 908 930 804 1043 q 1013 625 1013 817 q 864 160 1013 331 q 407 -11 715 -11 q 356 -6 381 -11 q 225 0 294 0 l -22 0 l -14 71 l 93 90 l 207 942 l 110 957 l 117 1032 l 331 1032 m 326 92 q 375 80 347 85 q 422 75 403 75 q 615 154 539 75 q 726 353 692 233 q 761 601 761 474 q 710 874 761 792 q 549 957 660 957 q 481 952 511 957 q 439 942 450 947 l 326 92 m 1883 1032 l 1904 974 l 1326 161 l 1250 92 l 1583 107 l 1715 325 l 1832 293 l 1764 0 l 1008 0 l 985 60 l 1569 878 l 1653 947 l 1349 935 l 1253 751 l 1136 767 l 1179 1032 l 1883 1032 m 1413 1369 l 1547 1235 l 1754 1369 l 1826 1332 l 1585 1099 l 1472 1099 l 1331 1331 l 1413 1369 z "},"Ð":{"ha":1022,"x_min":-21,"x_max":1014,"o":"m 319 1033 q 446 1039 360 1033 q 576 1044 532 1044 q 910 931 806 1044 q 1014 626 1014 818 q 865 161 1014 332 q 408 -10 717 -10 q 357 -4 382 -10 q 208 1 288 1 l -21 1 l -12 72 l 94 92 l 146 476 l 53 476 l 69 590 l 161 590 l 208 943 l 111 958 l 118 1033 l 319 1033 m 328 93 q 424 76 383 76 q 617 156 540 76 q 728 355 693 235 q 763 603 763 475 q 712 876 763 793 q 550 958 661 958 q 483 953 513 958 q 440 943 453 949 l 394 590 l 597 590 l 581 476 l 379 476 l 328 93 z "},"Ď":{"ha":1021,"x_min":-22,"x_max":1013,"o":"m 331 1032 q 439 1038 367 1032 q 575 1043 531 1043 q 908 930 804 1043 q 1013 625 1013 817 q 864 160 1013 331 q 407 -11 715 -11 q 356 -6 381 -11 q 225 0 294 0 l -22 0 l -14 71 l 93 90 l 207 942 l 110 957 l 117 1032 l 331 1032 m 326 92 q 375 80 347 85 q 422 75 403 75 q 615 154 539 75 q 726 353 692 233 q 761 601 761 474 q 710 874 761 792 q 549 957 660 957 q 481 952 511 957 q 439 942 450 947 l 326 92 m 463 1365 l 597 1231 l 804 1365 l 876 1328 l 635 1094 l 522 1094 l 381 1326 l 463 1365 z "},"Đ":{"ha":1022,"x_min":-21,"x_max":1014,"o":"m 319 1033 q 446 1039 360 1033 q 576 1044 532 1044 q 910 931 806 1044 q 1014 626 1014 818 q 865 161 1014 332 q 408 -10 717 -10 q 357 -4 382 -10 q 208 1 288 1 l -21 1 l -12 72 l 94 92 l 146 476 l 53 476 l 69 590 l 161 590 l 208 943 l 111 958 l 118 1033 l 319 1033 m 328 93 q 424 76 383 76 q 617 156 540 76 q 728 355 693 235 q 763 603 763 475 q 712 876 763 793 q 550 958 661 958 q 483 953 513 958 q 440 943 453 949 l 394 590 l 597 590 l 581 476 l 379 476 l 328 93 z "},"Ḋ":{"ha":1025,"x_min":-22,"x_max":1013,"o":"m 590 1115 q 515 1147 550 1115 q 481 1218 481 1179 q 518 1309 481 1272 q 614 1346 556 1346 q 696 1316 663 1346 q 729 1247 729 1286 q 692 1153 729 1190 q 590 1115 656 1115 m 331 1032 q 439 1038 367 1032 q 575 1043 531 1043 q 908 930 804 1043 q 1013 625 1013 817 q 864 160 1013 331 q 407 -11 715 -11 q 356 -6 381 -11 q 225 0 294 0 l -22 0 l -14 71 l 93 90 l 207 942 l 110 957 l 117 1032 l 331 1032 m 326 92 q 375 80 347 85 q 422 75 403 75 q 615 154 539 75 q 726 353 692 233 q 761 601 761 474 q 710 874 761 792 q 549 957 660 957 q 481 952 511 957 q 439 942 450 947 l 326 92 z "},"Ḍ":{"ha":1021,"x_min":-22,"x_max":1013,"o":"m 331 1032 q 439 1038 367 1032 q 575 1043 531 1043 q 908 930 804 1043 q 1013 625 1013 817 q 864 160 1013 331 q 407 -11 715 -11 q 356 -6 381 -11 q 225 0 294 0 l -22 0 l -14 71 l 93 90 l 207 942 l 110 957 l 117 1032 l 331 1032 m 326 92 q 375 80 347 85 q 422 75 403 75 q 615 154 539 75 q 726 353 692 233 q 761 601 761 474 q 710 874 761 792 q 549 957 660 957 q 481 952 511 957 q 439 942 450 947 l 326 92 m 360 -337 q 283 -306 311 -337 q 256 -224 256 -275 q 294 -127 256 -165 q 394 -89 333 -89 q 474 -118 447 -89 q 501 -197 501 -147 q 465 -297 501 -257 q 360 -337 428 -337 z "},"ǲ":{"ha":1707,"x_min":-22,"x_max":1738,"o":"m 331 1032 q 439 1038 367 1032 q 575 1043 531 1043 q 908 930 804 1043 q 1013 625 1013 817 q 864 160 1013 331 q 407 -11 715 -11 q 356 -6 381 -11 q 225 0 294 0 l -22 0 l -14 71 l 93 90 l 207 942 l 110 957 l 117 1032 l 331 1032 m 326 92 q 375 80 347 85 q 422 75 403 75 q 615 154 539 75 q 726 353 692 233 q 761 601 761 474 q 710 874 761 792 q 549 957 660 957 q 481 952 511 957 q 439 942 450 947 l 326 92 m 1289 603 q 1206 573 1238 603 q 1172 499 1175 543 l 1113 499 q 1106 589 1106 533 q 1118 709 1106 656 q 1158 774 1131 763 q 1226 789 1185 789 q 1349 783 1274 789 q 1446 776 1425 778 q 1625 765 1588 765 q 1703 789 1678 765 l 1738 747 l 1301 207 l 1247 171 l 1472 171 q 1560 202 1528 171 q 1596 282 1592 233 l 1654 282 q 1658 201 1658 224 q 1647 75 1658 132 q 1607 -1 1635 18 q 1538 -15 1589 -15 q 1301 -3 1457 -15 q 1201 3 1265 -1 q 1110 7 1138 7 q 1071 1 1092 7 q 1039 -15 1050 -4 l 996 26 l 1435 564 l 1499 601 l 1289 603 z "},"ǅ":{"ha":1707,"x_min":-22,"x_max":1742,"o":"m 331 1032 q 439 1038 367 1032 q 575 1043 531 1043 q 908 930 804 1043 q 1013 625 1013 817 q 864 160 1013 331 q 407 -11 715 -11 q 356 -6 381 -11 q 225 0 294 0 l -22 0 l -14 71 l 93 90 l 207 942 l 110 957 l 117 1032 l 331 1032 m 326 92 q 375 80 347 85 q 422 75 403 75 q 615 154 539 75 q 726 353 692 233 q 761 601 761 474 q 710 874 761 792 q 549 957 660 957 q 481 952 511 957 q 439 942 450 947 l 326 92 m 1289 603 q 1206 573 1238 603 q 1172 499 1175 543 l 1113 499 q 1106 589 1106 533 q 1118 709 1106 656 q 1158 774 1131 763 q 1226 789 1185 789 q 1349 783 1274 789 q 1446 776 1425 778 q 1625 765 1588 765 q 1703 789 1678 765 l 1738 747 l 1301 207 l 1247 171 l 1472 171 q 1560 202 1528 171 q 1596 282 1592 233 l 1654 282 q 1658 201 1658 224 q 1647 75 1658 132 q 1607 -1 1635 18 q 1538 -15 1589 -15 q 1301 -3 1457 -15 q 1201 3 1265 -1 q 1110 7 1138 7 q 1071 1 1092 7 q 1039 -15 1050 -4 l 996 26 l 1435 564 l 1499 601 l 1289 603 m 1314 1168 l 1451 1025 l 1671 1168 l 1742 1131 l 1493 876 l 1374 876 l 1231 1131 l 1314 1168 z "},"E":{"ha":883,"x_min":-24,"x_max":868,"o":"m 868 1032 l 844 783 l 706 783 l 678 935 l 440 951 l 393 596 l 704 626 l 679 471 l 379 492 l 332 101 l 649 125 l 722 315 l 864 306 l 815 0 l -24 0 l -14 71 l 94 90 l 206 942 l 107 957 l 115 1032 l 868 1032 z "},"É":{"ha":883,"x_min":-24,"x_max":868,"o":"m 699 1365 l 821 1268 q 702 1171 789 1228 q 569 1101 615 1114 l 483 1160 l 699 1365 m 868 1032 l 844 783 l 706 783 l 678 935 l 440 951 l 393 596 l 704 626 l 679 471 l 379 492 l 332 101 l 649 125 l 722 315 l 864 306 l 815 0 l -24 0 l -14 71 l 94 90 l 206 942 l 107 957 l 115 1032 l 868 1032 z "},"Ĕ":{"ha":883,"x_min":-24,"x_max":868,"o":"m 868 1032 l 844 783 l 706 783 l 678 935 l 440 951 l 393 596 l 704 626 l 679 471 l 379 492 l 332 101 l 649 125 l 722 315 l 864 306 l 815 0 l -24 0 l -14 71 l 94 90 l 206 942 l 107 957 l 115 1032 l 868 1032 m 543 1107 q 329 1319 329 1107 q 333 1364 329 1346 l 458 1364 q 463 1303 458 1325 q 485 1267 467 1281 q 546 1253 504 1253 q 635 1286 613 1253 q 658 1364 658 1319 l 779 1364 q 715 1178 779 1249 q 543 1107 651 1107 z "},"Ě":{"ha":883,"x_min":-24,"x_max":868,"o":"m 868 1032 l 844 783 l 706 783 l 678 935 l 440 951 l 393 596 l 704 626 l 679 471 l 379 492 l 332 101 l 649 125 l 722 315 l 864 306 l 815 0 l -24 0 l -14 71 l 94 90 l 206 942 l 107 957 l 115 1032 l 868 1032 m 417 1365 l 551 1231 l 758 1365 l 831 1328 l 589 1094 l 476 1094 l 335 1326 l 417 1365 z "},"Ȩ":{"ha":883,"x_min":-24,"x_max":868,"o":"m -14 71 l 94 90 l 206 942 l 107 957 l 115 1032 l 868 1032 l 844 783 l 706 783 l 678 935 l 440 951 l 393 596 l 704 626 l 679 471 l 379 492 l 332 101 l 649 125 l 722 315 l 864 306 l 815 0 l 508 0 q 535 -146 535 -61 q 481 -277 535 -228 q 322 -326 428 -326 q 263 -319 293 -326 q 213 -297 232 -311 l 240 -186 q 297 -194 257 -194 q 366 -183 343 -194 q 397 -143 389 -171 q 403 -62 406 -115 q 394 0 403 -33 l -24 0 l -14 71 z "},"Ê":{"ha":883,"x_min":-24,"x_max":868,"o":"m 868 1032 l 844 783 l 706 783 l 678 935 l 440 951 l 393 596 l 704 626 l 679 471 l 379 492 l 332 101 l 649 125 l 722 315 l 864 306 l 815 0 l -24 0 l -14 71 l 94 90 l 206 942 l 107 957 l 115 1032 l 868 1032 m 507 1365 l 628 1365 l 769 1124 l 688 1085 l 550 1226 l 331 1085 l 260 1124 l 507 1365 z "},"Ế":{"ha":883,"x_min":-24,"x_max":1019,"o":"m 868 1032 l 844 783 l 706 783 l 678 935 l 440 951 l 393 596 l 704 626 l 679 471 l 379 492 l 332 101 l 649 125 l 722 315 l 864 306 l 815 0 l -24 0 l -14 71 l 94 90 l 206 942 l 107 957 l 115 1032 l 868 1032 m 783 1224 l 932 1365 l 1019 1281 q 945 1215 992 1249 q 840 1154 899 1181 l 783 1224 m 640 1346 l 794 1128 l 719 1065 l 549 1208 l 331 1065 l 276 1128 l 501 1346 l 640 1346 z "},"Ệ":{"ha":883,"x_min":-24,"x_max":868,"o":"m 868 1032 l 844 783 l 706 783 l 678 935 l 440 951 l 393 596 l 704 626 l 679 471 l 379 492 l 332 101 l 649 125 l 722 315 l 864 306 l 815 0 l -24 0 l -14 71 l 94 90 l 206 942 l 107 957 l 115 1032 l 868 1032 m 361 -337 q 285 -306 313 -337 q 257 -224 257 -275 q 296 -127 257 -165 q 396 -89 335 -89 q 476 -118 449 -89 q 503 -197 503 -147 q 466 -297 503 -257 q 361 -337 429 -337 m 507 1365 l 628 1365 l 769 1124 l 688 1085 l 550 1226 l 331 1085 l 260 1124 l 507 1365 z "},"Ề":{"ha":883,"x_min":-24,"x_max":950,"o":"m 868 1032 l 844 783 l 706 783 l 678 935 l 440 951 l 393 596 l 704 626 l 679 471 l 379 492 l 332 101 l 649 125 l 722 315 l 864 306 l 815 0 l -24 0 l -14 71 l 94 90 l 206 942 l 107 957 l 115 1032 l 868 1032 m 899 1128 q 813 1211 863 1151 q 738 1315 763 1271 l 819 1365 l 950 1161 l 899 1128 m 638 1346 l 793 1126 l 717 1065 l 547 1208 l 328 1064 l 275 1126 l 500 1346 l 638 1346 z "},"Ể":{"ha":883,"x_min":-24,"x_max":1028,"o":"m 868 1032 l 844 783 l 706 783 l 678 935 l 440 951 l 393 596 l 704 626 l 679 471 l 379 492 l 332 101 l 649 125 l 722 315 l 864 306 l 815 0 l -24 0 l -14 71 l 94 90 l 206 942 l 107 957 l 115 1032 l 868 1032 m 846 1082 q 833 1112 836 1101 q 832 1133 831 1122 q 844 1160 835 1149 q 869 1185 853 1171 q 894 1208 885 1197 q 907 1236 903 1219 q 863 1274 914 1272 q 796 1260 829 1274 l 807 1356 q 841 1363 810 1360 q 892 1365 872 1365 q 992 1347 957 1365 q 1028 1283 1028 1328 q 1026 1261 1028 1269 q 1003 1202 1019 1224 q 968 1165 988 1181 q 940 1142 949 1149 q 924 1099 922 1125 l 846 1082 m 632 1307 l 792 1118 l 715 1057 l 542 1176 l 328 1056 l 274 1118 l 493 1307 l 632 1307 z "},"Ễ":{"ha":883,"x_min":-24,"x_max":868,"o":"m 868 1032 l 844 783 l 706 783 l 678 935 l 440 951 l 393 596 l 704 626 l 679 471 l 379 492 l 332 101 l 649 125 l 722 315 l 864 306 l 815 0 l -24 0 l -14 71 l 94 90 l 206 942 l 107 957 l 115 1032 l 868 1032 m 347 1347 q 372 1401 351 1372 q 426 1451 393 1431 q 497 1471 458 1471 q 549 1460 526 1471 q 601 1428 571 1449 q 641 1403 625 1411 q 675 1394 657 1394 q 722 1404 707 1394 q 763 1443 736 1414 l 804 1410 q 744 1326 788 1360 q 640 1292 701 1292 q 590 1303 611 1292 q 540 1335 569 1314 q 503 1360 519 1351 q 469 1369 488 1369 q 430 1356 449 1369 q 388 1315 411 1342 l 347 1347 m 625 1256 l 785 1128 l 726 1065 l 538 1146 l 319 1064 l 285 1128 l 486 1256 l 625 1256 z "},"Ë":{"ha":883,"x_min":-24,"x_max":868,"o":"m 868 1032 l 844 783 l 706 783 l 678 935 l 440 951 l 393 596 l 704 626 l 679 471 l 379 492 l 332 101 l 649 125 l 722 315 l 864 306 l 815 0 l -24 0 l -14 71 l 94 90 l 206 942 l 107 957 l 115 1032 l 868 1032 m 374 1128 q 308 1156 335 1128 q 282 1224 282 1183 q 313 1313 282 1281 q 396 1344 343 1344 q 467 1319 442 1344 q 492 1253 492 1293 q 462 1161 492 1194 q 374 1128 432 1128 m 706 1128 q 640 1156 667 1128 q 614 1224 614 1183 q 644 1313 614 1281 q 728 1344 675 1344 q 797 1319 772 1344 q 822 1253 822 1293 q 793 1161 822 1194 q 706 1128 764 1128 z "},"Ė":{"ha":883,"x_min":-24,"x_max":868,"o":"m 868 1032 l 844 783 l 706 783 l 678 935 l 440 951 l 393 596 l 704 626 l 679 471 l 379 492 l 332 101 l 649 125 l 722 315 l 864 306 l 815 0 l -24 0 l -14 71 l 94 90 l 206 942 l 107 957 l 115 1032 l 868 1032 m 535 1115 q 460 1147 494 1115 q 425 1218 425 1179 q 463 1309 425 1272 q 558 1346 500 1346 q 640 1316 607 1346 q 674 1247 674 1286 q 637 1153 674 1190 q 535 1115 600 1115 z "},"Ẹ":{"ha":883,"x_min":-24,"x_max":868,"o":"m 868 1032 l 844 783 l 706 783 l 678 935 l 440 951 l 393 596 l 704 626 l 679 471 l 379 492 l 332 101 l 649 125 l 722 315 l 864 306 l 815 0 l -24 0 l -14 71 l 94 90 l 206 942 l 107 957 l 115 1032 l 868 1032 m 361 -337 q 285 -306 313 -337 q 257 -224 257 -275 q 296 -127 257 -165 q 396 -89 335 -89 q 476 -118 449 -89 q 503 -197 503 -147 q 466 -297 503 -257 q 361 -337 429 -337 z "},"È":{"ha":883,"x_min":-24,"x_max":868,"o":"m 868 1032 l 844 783 l 706 783 l 678 935 l 440 951 l 393 596 l 704 626 l 679 471 l 379 492 l 332 101 l 649 125 l 722 315 l 864 306 l 815 0 l -24 0 l -14 71 l 94 90 l 206 942 l 107 957 l 115 1032 l 868 1032 m 561 1100 q 440 1165 510 1113 q 338 1271 371 1217 l 454 1356 l 643 1153 l 561 1100 z "},"Ẻ":{"ha":883,"x_min":-24,"x_max":868,"o":"m 868 1032 l 844 783 l 706 783 l 678 935 l 440 951 l 393 596 l 704 626 l 679 471 l 379 492 l 332 101 l 649 125 l 722 315 l 864 306 l 815 0 l -24 0 l -14 71 l 94 90 l 206 942 l 107 957 l 115 1032 l 868 1032 m 479 1082 q 471 1097 475 1086 q 467 1119 467 1108 q 475 1147 467 1138 q 518 1183 486 1165 q 547 1205 539 1197 q 556 1226 556 1213 q 542 1258 556 1247 q 494 1268 528 1268 q 456 1265 461 1268 l 467 1358 q 488 1363 471 1360 q 519 1365 506 1365 q 664 1342 622 1365 q 706 1257 706 1318 q 617 1156 706 1215 q 571 1082 568 1124 l 479 1082 z "},"Ē":{"ha":883,"x_min":-24,"x_max":868,"o":"m 868 1032 l 844 783 l 706 783 l 678 935 l 440 951 l 393 596 l 704 626 l 679 471 l 379 492 l 332 101 l 649 125 l 722 315 l 864 306 l 815 0 l -24 0 l -14 71 l 94 90 l 206 942 l 107 957 l 115 1032 l 868 1032 m 750 1299 l 736 1158 l 350 1158 l 363 1299 l 750 1299 z "},"Ę":{"ha":896,"x_min":-24,"x_max":868,"o":"m 756 0 q 625 -146 625 -89 q 636 -184 625 -174 q 669 -194 647 -194 q 717 -183 694 -194 q 774 -144 740 -171 l 799 -221 q 694 -295 753 -267 q 567 -324 635 -324 q 469 -292 503 -324 q 436 -207 436 -261 q 445 -167 436 -190 q 467 -124 454 -143 q 533 -49 499 -78 q 610 0 568 -21 l -24 0 l -14 71 l 94 90 l 206 942 l 107 957 l 115 1032 l 868 1032 l 844 783 l 696 783 l 674 935 l 440 951 l 392 589 l 703 618 l 679 464 l 378 483 l 325 90 l 642 114 l 722 315 l 864 306 l 815 0 l 756 0 z "},"Ẽ":{"ha":883,"x_min":-24,"x_max":868,"o":"m 868 1032 l 844 783 l 706 783 l 678 935 l 440 951 l 393 596 l 704 626 l 679 471 l 379 492 l 332 101 l 649 125 l 722 315 l 864 306 l 815 0 l -24 0 l -14 71 l 94 90 l 206 942 l 107 957 l 115 1032 l 868 1032 m 288 1232 q 351 1313 304 1279 q 460 1347 399 1347 q 524 1332 499 1347 q 578 1288 549 1317 q 614 1256 599 1267 q 649 1246 629 1246 q 753 1314 703 1246 l 807 1239 q 740 1153 788 1190 q 636 1115 692 1115 q 567 1130 593 1115 q 513 1172 542 1144 q 473 1206 490 1196 q 429 1217 456 1217 q 379 1202 401 1217 q 332 1161 357 1188 l 288 1232 z "},"F":{"ha":829,"x_min":-7,"x_max":881,"o":"m 881 1032 l 854 774 l 706 774 l 688 935 l 442 950 l 392 582 l 718 600 l 696 450 l 378 475 l 329 90 l 515 71 l 510 0 l -7 0 l 0 71 l 94 90 l 206 942 l 107 957 l 117 1032 l 881 1032 z "},"Ḟ":{"ha":829,"x_min":-7,"x_max":881,"o":"m 881 1032 l 854 774 l 706 774 l 688 935 l 442 950 l 392 582 l 718 600 l 696 450 l 378 475 l 329 90 l 515 71 l 510 0 l -7 0 l 0 71 l 94 90 l 206 942 l 107 957 l 117 1032 l 881 1032 m 535 1115 q 460 1147 494 1115 q 425 1218 425 1179 q 463 1309 425 1272 q 558 1346 500 1346 q 640 1316 607 1346 q 674 1247 674 1286 q 637 1153 674 1190 q 535 1115 600 1115 z "},"G":{"ha":958,"x_min":42,"x_max":943,"o":"m 853 57 q 725 35 781 50 q 576 1 639 13 q 432 -11 514 -11 q 210 51 297 -11 q 82 215 122 113 q 42 444 42 318 q 107 761 42 626 q 299 970 172 896 q 608 1044 426 1044 q 758 1036 701 1044 q 874 1013 815 1028 l 903 1006 l 943 997 l 899 774 l 739 774 l 733 928 q 611 957 679 957 q 289 446 289 957 q 338 189 290 288 q 476 90 385 90 q 629 111 574 90 l 665 400 l 526 411 l 539 511 l 914 511 l 853 57 z "},"Ǵ":{"ha":958,"x_min":42,"x_max":943,"o":"m 853 57 q 725 35 781 50 q 576 1 639 13 q 432 -11 514 -11 q 210 51 297 -11 q 82 215 122 113 q 42 444 42 318 q 107 761 42 626 q 299 970 172 896 q 608 1044 426 1044 q 758 1036 701 1044 q 874 1013 815 1028 l 903 1006 l 943 997 l 899 774 l 739 774 l 733 928 q 611 957 679 957 q 289 446 289 957 q 338 189 290 288 q 476 90 385 90 q 629 111 574 90 l 665 400 l 526 411 l 539 511 l 914 511 l 853 57 m 746 1365 l 868 1268 q 749 1171 836 1228 q 617 1101 663 1114 l 531 1160 l 746 1365 z "},"Ğ":{"ha":958,"x_min":42,"x_max":943,"o":"m 853 57 q 725 35 781 50 q 576 1 639 13 q 432 -11 514 -11 q 210 51 297 -11 q 82 215 122 113 q 42 444 42 318 q 107 761 42 626 q 299 970 172 896 q 608 1044 426 1044 q 758 1036 701 1044 q 874 1013 815 1028 l 903 1006 l 943 997 l 899 774 l 739 774 l 733 928 q 611 957 679 957 q 289 446 289 957 q 338 189 290 288 q 476 90 385 90 q 629 111 574 90 l 665 400 l 526 411 l 539 511 l 914 511 l 853 57 m 628 1107 q 414 1319 414 1107 q 418 1364 414 1346 l 543 1364 q 547 1303 543 1325 q 570 1267 551 1281 q 631 1253 589 1253 q 720 1286 697 1253 q 743 1364 743 1319 l 864 1364 q 800 1178 864 1249 q 628 1107 736 1107 z "},"Ǧ":{"ha":958,"x_min":42,"x_max":943,"o":"m 853 57 q 725 35 781 50 q 576 1 639 13 q 432 -11 514 -11 q 210 51 297 -11 q 82 215 122 113 q 42 444 42 318 q 107 761 42 626 q 299 970 172 896 q 608 1044 426 1044 q 758 1036 701 1044 q 874 1013 815 1028 l 903 1006 l 943 997 l 899 774 l 739 774 l 733 928 q 611 957 679 957 q 289 446 289 957 q 338 189 290 288 q 476 90 385 90 q 629 111 574 90 l 665 400 l 526 411 l 539 511 l 914 511 l 853 57 m 501 1365 l 636 1231 l 843 1365 l 915 1328 l 674 1094 l 561 1094 l 419 1326 l 501 1365 z "},"Ĝ":{"ha":958,"x_min":42,"x_max":943,"o":"m 853 57 q 725 35 781 50 q 576 1 639 13 q 432 -11 514 -11 q 210 51 297 -11 q 82 215 122 113 q 42 444 42 318 q 107 761 42 626 q 299 970 172 896 q 608 1044 426 1044 q 758 1036 701 1044 q 874 1013 815 1028 l 903 1006 l 943 997 l 899 774 l 739 774 l 733 928 q 611 957 679 957 q 289 446 289 957 q 338 189 290 288 q 476 90 385 90 q 629 111 574 90 l 665 400 l 526 411 l 539 511 l 914 511 l 853 57 m 592 1365 l 713 1365 l 854 1124 l 772 1085 l 635 1226 l 415 1085 l 344 1124 l 592 1365 z "},"Ģ":{"ha":958,"x_min":42,"x_max":943,"o":"m 853 57 q 725 35 781 50 q 576 1 639 13 q 432 -11 514 -11 q 210 51 297 -11 q 82 215 122 113 q 42 444 42 318 q 107 761 42 626 q 299 970 172 896 q 608 1044 426 1044 q 758 1036 701 1044 q 874 1013 815 1028 l 903 1006 l 943 997 l 899 774 l 739 774 l 733 928 q 611 957 679 957 q 289 446 289 957 q 338 189 290 288 q 476 90 385 90 q 629 111 574 90 l 665 400 l 526 411 l 539 511 l 914 511 l 853 57 m 328 -329 q 350 -294 340 -322 q 360 -236 360 -267 q 350 -185 360 -210 q 321 -160 340 -161 l 321 -103 l 447 -46 q 510 -103 489 -64 q 531 -193 531 -143 q 510 -276 531 -236 q 461 -344 490 -317 q 406 -378 432 -371 l 326 -346 l 328 -329 z "},"Ġ":{"ha":958,"x_min":42,"x_max":943,"o":"m 853 57 q 725 35 781 50 q 576 1 639 13 q 432 -11 514 -11 q 210 51 297 -11 q 82 215 122 113 q 42 444 42 318 q 107 761 42 626 q 299 970 172 896 q 608 1044 426 1044 q 758 1036 701 1044 q 874 1013 815 1028 l 903 1006 l 943 997 l 899 774 l 739 774 l 733 928 q 611 957 679 957 q 289 446 289 957 q 338 189 290 288 q 476 90 385 90 q 629 111 574 90 l 665 400 l 526 411 l 539 511 l 914 511 l 853 57 m 619 1115 q 544 1147 579 1115 q 510 1218 510 1179 q 547 1309 510 1272 q 643 1346 585 1346 q 725 1316 692 1346 q 758 1247 758 1286 q 722 1153 758 1190 q 619 1115 685 1115 z "},"Ḡ":{"ha":958,"x_min":42,"x_max":943,"o":"m 853 57 q 725 35 781 50 q 576 1 639 13 q 432 -11 514 -11 q 210 51 297 -11 q 82 215 122 113 q 42 444 42 318 q 107 761 42 626 q 299 970 172 896 q 608 1044 426 1044 q 758 1036 701 1044 q 874 1013 815 1028 l 903 1006 l 943 997 l 899 774 l 739 774 l 733 928 q 611 957 679 957 q 289 446 289 957 q 338 189 290 288 q 476 90 385 90 q 629 111 574 90 l 665 400 l 526 411 l 539 511 l 914 511 l 853 57 m 835 1299 l 821 1158 l 435 1158 l 447 1299 l 835 1299 z "},"H":{"ha":1121,"x_min":-4,"x_max":1168,"o":"m 574 1032 l 565 957 l 444 942 l 396 572 l 772 572 l 821 942 l 703 957 l 711 1032 l 1168 1032 l 1160 957 l 1056 942 l 944 90 l 1050 71 l 1042 0 l 571 0 l 581 71 l 708 90 l 760 478 l 382 478 l 332 90 l 449 71 l 443 0 l -4 0 l 1 71 l 97 90 l 210 942 l 111 957 l 121 1032 l 574 1032 z "},"Ħ":{"ha":1111,"x_min":-4,"x_max":1165,"o":"m 571 1038 l 563 963 l 442 946 l 419 771 l 796 771 l 818 946 l 700 963 l 708 1038 l 1165 1038 l 1157 963 l 1053 946 l 1031 771 l 1153 771 l 1143 675 l 1019 675 l 946 90 l 1051 71 l 1043 0 l 572 0 l 582 71 l 710 90 l 753 422 l 375 422 l 333 90 l 450 71 l 444 0 l -4 0 l 3 71 l 97 90 l 172 675 l 54 675 l 63 771 l 185 771 l 207 946 l 108 963 l 118 1038 l 571 1038 m 388 518 l 764 518 l 785 675 l 407 675 l 388 518 z "},"Ĥ":{"ha":1121,"x_min":-4,"x_max":1168,"o":"m 574 1032 l 565 957 l 444 942 l 396 572 l 772 572 l 821 942 l 703 957 l 711 1032 l 1168 1032 l 1160 957 l 1056 942 l 944 90 l 1050 71 l 1042 0 l 571 0 l 581 71 l 708 90 l 760 478 l 382 478 l 332 90 l 449 71 l 443 0 l -4 0 l 1 71 l 97 90 l 210 942 l 111 957 l 121 1032 l 574 1032 m 628 1365 l 749 1365 l 890 1124 l 808 1085 l 671 1226 l 451 1085 l 381 1124 l 628 1365 z "},"Ḥ":{"ha":1121,"x_min":-4,"x_max":1168,"o":"m 574 1032 l 565 957 l 444 942 l 396 572 l 772 572 l 821 942 l 703 957 l 711 1032 l 1168 1032 l 1160 957 l 1056 942 l 944 90 l 1050 71 l 1042 0 l 571 0 l 581 71 l 708 90 l 760 478 l 382 478 l 332 90 l 449 71 l 443 0 l -4 0 l 1 71 l 97 90 l 210 942 l 111 957 l 121 1032 l 574 1032 m 465 -337 q 389 -306 417 -337 q 361 -224 361 -275 q 400 -127 361 -165 q 500 -89 439 -89 q 580 -118 553 -89 q 607 -197 607 -147 q 570 -297 607 -257 q 465 -337 533 -337 z "},"I":{"ha":519,"x_min":-11,"x_max":571,"o":"m 571 1032 l 563 957 l 446 942 l 335 90 l 453 71 l 449 0 l -11 0 l -1 71 l 100 90 l 211 942 l 113 957 l 119 1032 l 571 1032 z "},"Ĳ":{"ha":1019,"x_min":-11,"x_max":1071,"o":"m 571 1032 l 563 957 l 446 942 l 335 90 l 453 71 l 449 0 l -11 0 l -1 71 l 100 90 l 211 942 l 113 957 l 119 1032 l 571 1032 m 963 910 q 887 308 915 522 q 843 51 858 93 q 689 -139 803 -65 q 428 -233 575 -212 l 392 -162 q 546 -74 496 -131 q 610 58 596 -17 q 733 940 675 399 l 635 957 l 644 1032 l 1071 1032 l 1065 957 l 967 942 l 963 910 z "},"Í":{"ha":519,"x_min":-11,"x_max":604,"o":"m 571 1032 l 563 957 l 446 942 l 335 90 l 453 71 l 449 0 l -11 0 l -1 71 l 100 90 l 211 942 l 113 957 l 119 1032 l 571 1032 m 482 1365 l 604 1268 q 485 1171 572 1228 q 353 1101 399 1114 l 267 1160 l 482 1365 z "},"Ĭ":{"ha":519,"x_min":-11,"x_max":600,"o":"m 571 1032 l 563 957 l 446 942 l 335 90 l 453 71 l 449 0 l -11 0 l -1 71 l 100 90 l 211 942 l 113 957 l 119 1032 l 571 1032 m 364 1107 q 150 1319 150 1107 q 154 1364 150 1346 l 279 1364 q 283 1303 279 1325 q 306 1267 288 1281 q 367 1253 325 1253 q 456 1286 433 1253 q 479 1364 479 1319 l 600 1364 q 536 1178 600 1249 q 364 1107 472 1107 z "},"Ǐ":{"ha":519,"x_min":-11,"x_max":651,"o":"m 571 1032 l 563 957 l 446 942 l 335 90 l 453 71 l 449 0 l -11 0 l -1 71 l 100 90 l 211 942 l 113 957 l 119 1032 l 571 1032 m 238 1365 l 372 1231 l 579 1365 l 651 1328 l 410 1094 l 297 1094 l 156 1326 l 238 1365 z "},"Î":{"ha":519,"x_min":-11,"x_max":590,"o":"m 571 1032 l 563 957 l 446 942 l 335 90 l 453 71 l 449 0 l -11 0 l -1 71 l 100 90 l 211 942 l 113 957 l 119 1032 l 571 1032 m 328 1365 l 449 1365 l 590 1124 l 508 1085 l 371 1226 l 151 1085 l 81 1124 l 328 1365 z "},"Ï":{"ha":519,"x_min":-11,"x_max":643,"o":"m 571 1032 l 563 957 l 446 942 l 335 90 l 453 71 l 449 0 l -11 0 l -1 71 l 100 90 l 211 942 l 113 957 l 119 1032 l 571 1032 m 194 1128 q 129 1156 156 1128 q 103 1224 103 1183 q 133 1313 103 1281 q 217 1344 164 1344 q 288 1319 263 1344 q 313 1253 313 1293 q 283 1161 313 1194 q 194 1128 253 1128 m 526 1128 q 461 1156 488 1128 q 435 1224 435 1183 q 465 1313 435 1281 q 549 1344 496 1344 q 618 1319 593 1344 q 643 1253 643 1293 q 614 1161 643 1194 q 526 1128 585 1128 z "},"İ":{"ha":519,"x_min":-11,"x_max":571,"o":"m 571 1032 l 563 957 l 446 942 l 335 90 l 453 71 l 449 0 l -11 0 l -1 71 l 100 90 l 211 942 l 113 957 l 119 1032 l 571 1032 m 356 1115 q 281 1147 315 1115 q 246 1218 246 1179 q 283 1309 246 1272 q 379 1346 321 1346 q 461 1316 428 1346 q 494 1247 494 1286 q 458 1153 494 1190 q 356 1115 421 1115 z "},"Ị":{"ha":519,"x_min":-11,"x_max":571,"o":"m 571 1032 l 563 957 l 446 942 l 335 90 l 453 71 l 449 0 l -11 0 l -1 71 l 100 90 l 211 942 l 113 957 l 119 1032 l 571 1032 m 158 -337 q 82 -306 110 -337 q 54 -224 54 -275 q 93 -127 54 -165 q 193 -89 132 -89 q 273 -118 246 -89 q 300 -197 300 -147 q 263 -297 300 -257 q 158 -337 226 -337 z "},"Ì":{"ha":519,"x_min":-11,"x_max":571,"o":"m 571 1032 l 563 957 l 446 942 l 335 90 l 453 71 l 449 0 l -11 0 l -1 71 l 100 90 l 211 942 l 113 957 l 119 1032 l 571 1032 m 382 1100 q 261 1165 331 1113 q 158 1271 192 1217 l 275 1356 l 464 1153 l 382 1100 z "},"Ỉ":{"ha":519,"x_min":-11,"x_max":571,"o":"m 571 1032 l 563 957 l 446 942 l 335 90 l 453 71 l 449 0 l -11 0 l -1 71 l 100 90 l 211 942 l 113 957 l 119 1032 l 571 1032 m 300 1082 q 292 1097 296 1086 q 288 1119 288 1108 q 296 1147 288 1138 q 339 1183 307 1165 q 368 1205 360 1197 q 376 1226 376 1213 q 363 1258 376 1247 q 315 1268 349 1268 q 276 1265 282 1268 l 288 1358 q 309 1363 292 1360 q 340 1365 326 1365 q 485 1342 443 1365 q 526 1257 526 1318 q 438 1156 526 1215 q 392 1082 389 1124 l 300 1082 z "},"Ī":{"ha":519,"x_min":-11,"x_max":571,"o":"m 571 1032 l 563 957 l 446 942 l 335 90 l 453 71 l 449 0 l -11 0 l -1 71 l 100 90 l 211 942 l 113 957 l 119 1032 l 571 1032 m 571 1299 l 557 1158 l 171 1158 l 183 1299 l 571 1299 z "},"Į":{"ha":519,"x_min":-11,"x_max":571,"o":"m 339 0 q 207 -146 207 -87 q 219 -184 207 -174 q 253 -194 231 -194 q 317 -181 281 -194 q 383 -144 354 -167 l 407 -221 q 293 -294 365 -264 q 149 -324 221 -324 q 52 -292 85 -324 q 19 -207 19 -261 q 28 -165 19 -189 q 50 -124 36 -142 q 117 -49 82 -78 q 193 0 153 -21 l -11 0 l -1 71 l 100 90 l 211 942 l 113 957 l 119 1032 l 571 1032 l 563 957 l 446 942 l 335 90 l 453 71 l 449 0 l 339 0 z "},"Ĩ":{"ha":519,"x_min":-11,"x_max":628,"o":"m 571 1032 l 563 957 l 446 942 l 335 90 l 453 71 l 449 0 l -11 0 l -1 71 l 100 90 l 211 942 l 113 957 l 119 1032 l 571 1032 m 108 1232 q 172 1313 125 1279 q 281 1347 219 1347 q 344 1332 319 1347 q 399 1288 369 1317 q 435 1256 419 1267 q 469 1246 450 1246 q 574 1314 524 1246 l 628 1239 q 560 1153 608 1190 q 457 1115 513 1115 q 388 1130 414 1115 q 333 1172 363 1144 q 294 1206 311 1196 q 250 1217 276 1217 q 200 1202 222 1217 q 153 1161 178 1188 l 108 1232 z "},"J":{"ha":500,"x_min":-128,"x_max":551,"o":"m 443 910 q 367 308 396 522 q 324 51 339 93 q 169 -139 283 -65 q -92 -233 56 -212 l -128 -162 q 26 -74 -24 -131 q 90 58 76 -17 q 214 940 156 399 l 115 957 l 125 1032 l 551 1032 l 546 957 l 447 942 l 443 910 z "},"Ĵ":{"ha":500,"x_min":-128,"x_max":586,"o":"m 443 910 q 367 308 396 522 q 324 51 339 93 q 169 -139 283 -65 q -92 -233 56 -212 l -128 -162 q 26 -74 -24 -131 q 90 58 76 -17 q 214 940 156 399 l 115 957 l 125 1032 l 551 1032 l 546 957 l 447 942 l 443 910 m 324 1365 l 444 1365 l 586 1124 l 504 1085 l 367 1226 l 147 1085 l 76 1124 l 324 1365 z "},"K":{"ha":1006,"x_min":-14,"x_max":1058,"o":"m 647 624 q 746 426 671 586 q 800 314 788 339 q 886 151 858 199 q 936 92 914 104 l 1015 72 l 1007 0 l 715 0 q 681 15 694 3 q 655 53 668 26 q 618 142 642 81 q 574 257 600 185 q 489 465 522 401 l 361 336 l 329 90 l 446 71 l 440 0 l -14 0 l -4 71 l 94 90 l 206 942 l 108 957 l 117 1032 l 569 1032 l 561 957 l 440 942 l 381 489 l 806 942 l 714 958 l 721 1032 l 1058 1032 l 1050 957 l 965 942 l 647 624 z "},"Ķ":{"ha":1006,"x_min":-14,"x_max":1058,"o":"m 647 624 q 746 426 671 586 q 800 314 788 339 q 886 151 858 199 q 936 92 914 104 l 1015 72 l 1007 0 l 715 0 q 681 15 694 3 q 655 53 668 26 q 618 142 642 81 q 574 257 600 185 q 489 465 522 401 l 361 336 l 329 90 l 446 71 l 440 0 l -14 0 l -4 71 l 94 90 l 206 942 l 108 957 l 117 1032 l 569 1032 l 561 957 l 440 942 l 381 489 l 806 942 l 714 958 l 721 1032 l 1058 1032 l 1050 957 l 965 942 l 647 624 m 422 -329 q 444 -294 435 -322 q 454 -236 454 -267 q 444 -185 454 -210 q 415 -160 435 -161 l 415 -103 l 542 -46 q 604 -103 583 -64 q 625 -193 625 -143 q 605 -276 625 -236 q 556 -344 585 -317 q 500 -378 526 -371 l 421 -346 l 422 -329 z "},"L":{"ha":860,"x_min":-7,"x_max":838,"o":"m 572 1032 l 564 957 l 440 942 l 328 86 l 575 100 l 717 404 l 838 389 l 767 0 l -7 0 l 1 71 l 94 90 l 206 942 l 107 957 l 117 1032 l 572 1032 z "},"Ǉ":{"ha":1360,"x_min":-7,"x_max":1411,"o":"m 572 1032 l 564 957 l 440 942 l 328 86 l 575 100 l 717 404 l 838 389 l 767 0 l -7 0 l 1 71 l 94 90 l 206 942 l 107 957 l 117 1032 l 572 1032 m 1303 910 q 1227 308 1256 522 q 1183 51 1199 93 q 1029 -139 1143 -65 q 768 -233 915 -212 l 732 -162 q 886 -74 836 -131 q 950 58 936 -17 q 1074 940 1015 399 l 975 957 l 985 1032 l 1411 1032 l 1406 957 l 1307 942 l 1303 910 z "},"Ĺ":{"ha":860,"x_min":-7,"x_max":838,"o":"m 572 1032 l 564 957 l 440 942 l 328 86 l 575 100 l 717 404 l 838 389 l 767 0 l -7 0 l 1 71 l 94 90 l 206 942 l 107 957 l 117 1032 l 572 1032 m 485 1365 l 607 1268 q 488 1171 575 1228 q 356 1101 401 1114 l 269 1160 l 485 1365 z "},"Ľ":{"ha":860,"x_min":-7,"x_max":851,"o":"m 572 1032 l 564 957 l 440 942 l 328 86 l 575 100 l 717 404 l 838 389 l 767 0 l -7 0 l 1 71 l 94 90 l 206 942 l 107 957 l 117 1032 l 572 1032 m 661 783 l 656 801 q 665 954 665 846 q 646 1082 665 1029 l 651 1114 l 839 1114 q 851 1006 851 1085 q 840 898 851 943 q 817 822 829 853 q 803 782 806 792 l 661 783 z "},"Ļ":{"ha":860,"x_min":-7,"x_max":838,"o":"m 572 1032 l 564 957 l 440 942 l 328 86 l 575 100 l 717 404 l 838 389 l 767 0 l -7 0 l 1 71 l 94 90 l 206 942 l 107 957 l 117 1032 l 572 1032 m 281 -329 q 303 -294 293 -322 q 313 -236 313 -267 q 303 -185 313 -210 q 274 -160 293 -161 l 274 -103 l 400 -46 q 463 -103 442 -64 q 483 -193 483 -143 q 463 -276 483 -236 q 414 -344 443 -317 q 358 -378 385 -371 l 279 -346 l 281 -329 z "},"Ŀ":{"ha":981,"x_min":-7,"x_max":1072,"o":"m 572 1032 l 564 957 l 440 942 l 328 86 l 575 100 l 717 351 l 838 336 l 767 0 l -7 0 l 1 71 l 94 90 l 206 942 l 107 957 l 117 1032 l 572 1032 m 838 607 q 876 708 838 669 q 964 747 914 747 q 1043 714 1014 747 q 1072 635 1072 681 q 1032 531 1072 567 q 938 494 992 494 q 867 527 897 494 q 838 607 838 560 z "},"Ḷ":{"ha":860,"x_min":-7,"x_max":838,"o":"m 572 1032 l 564 957 l 440 942 l 328 86 l 575 100 l 717 404 l 838 389 l 767 0 l -7 0 l 1 71 l 94 90 l 206 942 l 107 957 l 117 1032 l 572 1032 m 349 -337 q 272 -306 300 -337 q 244 -224 244 -275 q 283 -127 244 -165 q 383 -89 322 -89 q 463 -118 436 -89 q 490 -197 490 -147 q 453 -297 490 -257 q 349 -337 417 -337 z "},"ǈ":{"ha":1303,"x_min":-7,"x_max":1278,"o":"m 572 1032 l 564 957 l 440 942 l 328 86 l 575 100 l 717 404 l 838 389 l 767 0 l -7 0 l 1 71 l 94 90 l 206 942 l 107 957 l 117 1032 l 572 1032 m 1158 0 q 1095 -192 1144 -111 q 974 -316 1046 -274 q 818 -358 901 -358 q 740 -352 775 -358 q 693 -333 706 -346 l 721 -246 q 750 -252 733 -250 q 782 -254 767 -254 q 868 -215 836 -254 q 915 -114 900 -176 q 940 44 929 -51 l 1011 665 l 900 699 l 915 754 l 1217 789 l 1251 772 l 1158 0 m 1136 908 q 1062 942 1094 908 q 1029 1017 1029 975 q 1068 1113 1029 1074 q 1171 1153 1107 1153 q 1249 1121 1219 1153 q 1278 1047 1278 1089 q 1242 947 1278 986 q 1136 908 1206 908 z "},"Ł":{"ha":860,"x_min":-7,"x_max":838,"o":"m 572 1033 l 564 958 l 440 943 l 406 688 l 615 772 l 639 686 l 393 589 l 328 88 l 575 101 l 717 406 l 838 390 l 767 1 l -7 1 l 1 72 l 94 92 l 146 490 l 47 451 l 22 531 l 158 586 l 206 943 l 107 958 l 117 1033 l 572 1033 z "},"M":{"ha":1368,"x_min":-58,"x_max":1382,"o":"m 743 457 q 858 744 781 553 l 974 1032 l 1382 1032 l 1372 957 l 1253 942 l 1226 90 l 1349 71 l 1343 0 l 864 0 l 869 72 l 997 90 l 1036 669 l 1050 942 l 953 703 l 654 -1 l 540 -12 l 449 686 l 410 942 l 351 679 l 210 90 l 363 71 l 356 0 l -58 0 l -50 71 l 60 90 l 281 942 l 149 957 l 160 1032 l 621 1032 l 692 457 l 706 340 l 743 457 z "},"Ḿ":{"ha":1368,"x_min":-58,"x_max":1382,"o":"m 743 457 q 858 744 781 553 l 974 1032 l 1382 1032 l 1372 957 l 1253 942 l 1226 90 l 1349 71 l 1343 0 l 864 0 l 869 72 l 997 90 l 1036 669 l 1050 942 l 953 703 l 654 -1 l 540 -12 l 449 686 l 410 942 l 351 679 l 210 90 l 363 71 l 356 0 l -58 0 l -50 71 l 60 90 l 281 942 l 149 957 l 160 1032 l 621 1032 l 692 457 l 706 340 l 743 457 m 918 1365 l 1040 1268 q 922 1171 1008 1228 q 789 1101 835 1114 l 703 1160 l 918 1365 z "},"Ṁ":{"ha":1368,"x_min":-58,"x_max":1382,"o":"m 743 457 q 858 744 781 553 l 974 1032 l 1382 1032 l 1372 957 l 1253 942 l 1226 90 l 1349 71 l 1343 0 l 864 0 l 869 72 l 997 90 l 1036 669 l 1050 942 l 953 703 l 654 -1 l 540 -12 l 449 686 l 410 942 l 351 679 l 210 90 l 363 71 l 356 0 l -58 0 l -50 71 l 60 90 l 281 942 l 149 957 l 160 1032 l 621 1032 l 692 457 l 706 340 l 743 457 m 792 1115 q 717 1147 751 1115 q 682 1218 682 1179 q 719 1309 682 1272 q 815 1346 757 1346 q 897 1316 864 1346 q 931 1247 931 1286 q 894 1153 931 1190 q 792 1115 857 1115 z "},"N":{"ha":1053,"x_min":-11,"x_max":1118,"o":"m 489 1032 l 743 360 l 796 204 l 889 942 l 772 957 l 779 1032 l 1118 1032 l 1111 957 l 1028 942 l 883 0 l 644 0 l 378 694 l 325 865 l 239 90 l 368 71 l 361 0 l -11 0 l -6 71 l 94 90 l 219 942 l 106 957 l 117 1032 l 489 1032 z "},"Ǌ":{"ha":1553,"x_min":-11,"x_max":1604,"o":"m 489 1032 l 743 360 l 796 204 l 889 942 l 772 957 l 779 1032 l 1118 1032 l 1111 957 l 1028 942 l 883 0 l 644 0 l 378 694 l 325 865 l 239 90 l 368 71 l 361 0 l -11 0 l -6 71 l 94 90 l 219 942 l 106 957 l 117 1032 l 489 1032 m 1496 910 q 1420 308 1449 522 q 1376 51 1392 93 q 1222 -139 1336 -65 q 961 -233 1108 -212 l 925 -162 q 1079 -74 1029 -131 q 1143 58 1129 -17 q 1267 940 1208 399 l 1168 957 l 1178 1032 l 1604 1032 l 1599 957 l 1500 942 l 1496 910 z "},"Ń":{"ha":1053,"x_min":-11,"x_max":1118,"o":"m 489 1032 l 743 360 l 796 204 l 889 942 l 772 957 l 779 1032 l 1118 1032 l 1111 957 l 1028 942 l 883 0 l 644 0 l 378 694 l 325 865 l 239 90 l 368 71 l 361 0 l -11 0 l -6 71 l 94 90 l 219 942 l 106 957 l 117 1032 l 489 1032 m 776 1365 l 899 1268 q 780 1171 867 1228 q 647 1101 693 1114 l 561 1160 l 776 1365 z "},"Ň":{"ha":1053,"x_min":-11,"x_max":1118,"o":"m 489 1032 l 743 360 l 796 204 l 889 942 l 772 957 l 779 1032 l 1118 1032 l 1111 957 l 1028 942 l 883 0 l 644 0 l 378 694 l 325 865 l 239 90 l 368 71 l 361 0 l -11 0 l -6 71 l 94 90 l 219 942 l 106 957 l 117 1032 l 489 1032 m 532 1365 l 667 1231 l 874 1365 l 946 1328 l 704 1094 l 592 1094 l 450 1326 l 532 1365 z "},"Ņ":{"ha":1053,"x_min":-11,"x_max":1118,"o":"m 489 1032 l 743 360 l 796 204 l 889 942 l 772 957 l 779 1032 l 1118 1032 l 1111 957 l 1028 942 l 883 0 l 644 0 l 378 694 l 325 865 l 239 90 l 368 71 l 361 0 l -11 0 l -6 71 l 94 90 l 219 942 l 106 957 l 117 1032 l 489 1032 m 381 -329 q 403 -294 393 -322 q 413 -236 413 -267 q 403 -185 413 -210 q 374 -160 393 -161 l 374 -103 l 500 -46 q 563 -103 542 -64 q 583 -193 583 -143 q 563 -276 583 -236 q 514 -344 543 -317 q 458 -378 485 -371 l 379 -346 l 381 -329 z "},"Ṅ":{"ha":1053,"x_min":-11,"x_max":1118,"o":"m 489 1032 l 743 360 l 796 204 l 889 942 l 772 957 l 779 1032 l 1118 1032 l 1111 957 l 1028 942 l 883 0 l 644 0 l 378 694 l 325 865 l 239 90 l 368 71 l 361 0 l -11 0 l -6 71 l 94 90 l 219 942 l 106 957 l 117 1032 l 489 1032 m 650 1115 q 575 1147 610 1115 q 540 1218 540 1179 q 578 1309 540 1272 q 674 1346 615 1346 q 756 1316 722 1346 q 789 1247 789 1286 q 752 1153 789 1190 q 650 1115 715 1115 z "},"Ṇ":{"ha":1053,"x_min":-11,"x_max":1118,"o":"m 489 1032 l 743 360 l 796 204 l 889 942 l 772 957 l 779 1032 l 1118 1032 l 1111 957 l 1028 942 l 883 0 l 644 0 l 378 694 l 325 865 l 239 90 l 368 71 l 361 0 l -11 0 l -6 71 l 94 90 l 219 942 l 106 957 l 117 1032 l 489 1032 m 449 -337 q 372 -306 400 -337 q 344 -224 344 -275 q 383 -127 344 -165 q 483 -89 422 -89 q 563 -118 536 -89 q 590 -197 590 -147 q 553 -297 590 -257 q 449 -337 517 -337 z "},"Ŋ":{"ha":1058,"x_min":-8,"x_max":1118,"o":"m 496 -247 q 591 -205 543 -239 q 669 -117 639 -171 q 696 0 700 -64 l 378 699 l 325 871 l 243 90 l 372 71 l 364 0 l -8 0 l -3 71 l 97 90 l 219 946 l 106 963 l 117 1038 l 489 1038 l 757 415 l 806 247 l 889 946 l 772 963 l 779 1038 l 1118 1038 l 1111 963 l 1028 946 l 888 0 q 828 -156 875 -83 q 705 -274 782 -228 q 528 -326 628 -321 l 496 -247 z "},"ǋ":{"ha":1496,"x_min":-11,"x_max":1471,"o":"m 489 1032 l 743 360 l 796 204 l 889 942 l 772 957 l 779 1032 l 1118 1032 l 1111 957 l 1028 942 l 883 0 l 644 0 l 378 694 l 325 865 l 239 90 l 368 71 l 361 0 l -11 0 l -6 71 l 94 90 l 219 942 l 106 957 l 117 1032 l 489 1032 m 1351 0 q 1288 -192 1338 -111 q 1167 -316 1239 -274 q 1011 -358 1094 -358 q 933 -352 968 -358 q 886 -333 899 -346 l 914 -246 q 943 -252 926 -250 q 975 -254 960 -254 q 1061 -215 1029 -254 q 1108 -114 1093 -176 q 1133 44 1122 -51 l 1204 665 l 1093 699 l 1108 754 l 1410 789 l 1444 772 l 1351 0 m 1329 908 q 1255 942 1288 908 q 1222 1017 1222 975 q 1261 1113 1222 1074 q 1364 1153 1300 1153 q 1442 1121 1413 1153 q 1471 1047 1471 1089 q 1435 947 1471 986 q 1329 908 1399 908 z "},"Ñ":{"ha":1053,"x_min":-11,"x_max":1118,"o":"m 489 1032 l 743 360 l 796 204 l 889 942 l 772 957 l 779 1032 l 1118 1032 l 1111 957 l 1028 942 l 883 0 l 644 0 l 378 694 l 325 865 l 239 90 l 368 71 l 361 0 l -11 0 l -6 71 l 94 90 l 219 942 l 106 957 l 117 1032 l 489 1032 m 403 1232 q 467 1313 419 1279 q 575 1347 514 1347 q 639 1332 614 1347 q 693 1288 664 1317 q 729 1256 714 1267 q 764 1246 744 1246 q 868 1314 818 1246 l 922 1239 q 855 1153 903 1190 q 751 1115 807 1115 q 683 1130 708 1115 q 628 1172 657 1144 q 588 1206 606 1196 q 544 1217 571 1217 q 494 1202 517 1217 q 447 1161 472 1188 l 403 1232 z "},"O":{"ha":990,"x_min":43,"x_max":968,"o":"m 576 1046 q 872 922 776 1046 q 968 606 968 797 q 912 301 968 442 q 735 74 856 161 q 435 -14 615 -14 q 139 108 235 -14 q 43 432 43 229 q 102 735 43 596 q 282 960 161 875 q 576 1046 403 1046 m 557 961 q 417 888 476 961 q 327 694 358 814 q 296 440 296 575 q 331 173 297 276 q 454 69 364 69 q 597 138 539 69 q 685 324 656 206 q 714 590 714 442 q 677 867 714 772 q 557 961 640 961 z "},"Ó":{"ha":990,"x_min":46,"x_max":971,"o":"m 721 1365 l 843 1268 q 724 1171 811 1228 q 592 1101 638 1114 l 506 1160 l 721 1365 m 579 1046 q 875 922 779 1046 q 971 606 971 797 q 915 301 971 442 q 738 74 858 161 q 438 -14 618 -14 q 142 108 238 -14 q 46 432 46 229 q 105 735 46 596 q 285 960 164 875 q 579 1046 406 1046 m 560 961 q 420 888 479 961 q 330 694 361 814 q 299 440 299 575 q 333 173 300 276 q 457 69 367 69 q 600 138 542 69 q 688 324 658 206 q 717 590 717 442 q 680 867 717 772 q 560 961 643 961 z "},"Ŏ":{"ha":990,"x_min":43,"x_max":968,"o":"m 576 1046 q 872 922 776 1046 q 968 606 968 797 q 912 301 968 442 q 735 74 856 161 q 435 -14 615 -14 q 139 108 235 -14 q 43 432 43 229 q 102 735 43 596 q 282 960 161 875 q 576 1046 403 1046 m 557 961 q 417 888 476 961 q 327 694 358 814 q 296 440 296 575 q 331 173 297 276 q 454 69 364 69 q 597 138 539 69 q 685 324 656 206 q 714 590 714 442 q 677 867 714 772 q 557 961 640 961 m 626 1107 q 413 1319 413 1107 q 417 1364 413 1346 l 542 1364 q 546 1303 542 1325 q 569 1267 550 1281 q 629 1253 588 1253 q 719 1286 696 1253 q 742 1364 742 1319 l 863 1364 q 799 1178 863 1249 q 626 1107 735 1107 z "},"Ǒ":{"ha":990,"x_min":43,"x_max":968,"o":"m 576 1046 q 872 922 776 1046 q 968 606 968 797 q 912 301 968 442 q 735 74 856 161 q 435 -14 615 -14 q 139 108 235 -14 q 43 432 43 229 q 102 735 43 596 q 282 960 161 875 q 576 1046 403 1046 m 557 961 q 417 888 476 961 q 327 694 358 814 q 296 440 296 575 q 331 173 297 276 q 454 69 364 69 q 597 138 539 69 q 685 324 656 206 q 714 590 714 442 q 677 867 714 772 q 557 961 640 961 m 500 1365 l 635 1231 l 842 1365 l 914 1328 l 672 1094 l 560 1094 l 418 1326 l 500 1365 z "},"Ô":{"ha":990,"x_min":43,"x_max":968,"o":"m 576 1046 q 872 922 776 1046 q 968 606 968 797 q 912 301 968 442 q 735 74 856 161 q 435 -14 615 -14 q 139 108 235 -14 q 43 432 43 229 q 102 735 43 596 q 282 960 161 875 q 576 1046 403 1046 m 557 961 q 417 888 476 961 q 327 694 358 814 q 296 440 296 575 q 331 173 297 276 q 454 69 364 69 q 597 138 539 69 q 685 324 656 206 q 714 590 714 442 q 677 867 714 772 q 557 961 640 961 m 590 1365 l 711 1365 l 853 1124 l 771 1085 l 633 1226 l 414 1085 l 343 1124 l 590 1365 z "},"Ố":{"ha":990,"x_min":43,"x_max":1103,"o":"m 576 1046 q 872 922 776 1046 q 968 606 968 797 q 912 301 968 442 q 735 74 856 161 q 435 -14 615 -14 q 139 108 235 -14 q 43 432 43 229 q 102 735 43 596 q 282 960 161 875 q 576 1046 403 1046 m 557 961 q 417 888 476 961 q 327 694 358 814 q 296 440 296 575 q 331 173 297 276 q 454 69 364 69 q 597 138 539 69 q 685 324 656 206 q 714 590 714 442 q 677 867 714 772 q 557 961 640 961 m 867 1224 l 1015 1365 l 1103 1281 q 1028 1215 1075 1249 q 924 1154 982 1181 l 867 1224 m 724 1346 l 878 1128 l 803 1065 l 632 1208 l 414 1065 l 360 1128 l 585 1346 l 724 1346 z "},"Ộ":{"ha":990,"x_min":43,"x_max":968,"o":"m 576 1046 q 872 922 776 1046 q 968 606 968 797 q 912 301 968 442 q 735 74 856 161 q 435 -14 615 -14 q 139 108 235 -14 q 43 432 43 229 q 102 735 43 596 q 282 960 161 875 q 576 1046 403 1046 m 557 961 q 417 888 476 961 q 327 694 358 814 q 296 440 296 575 q 331 173 297 276 q 454 69 364 69 q 597 138 539 69 q 685 324 656 206 q 714 590 714 442 q 677 867 714 772 q 557 961 640 961 m 393 -337 q 317 -306 344 -337 q 289 -224 289 -275 q 328 -127 289 -165 q 428 -89 367 -89 q 508 -118 481 -89 q 535 -197 535 -147 q 498 -297 535 -257 q 393 -337 461 -337 m 590 1365 l 711 1365 l 853 1124 l 771 1085 l 633 1226 l 414 1085 l 343 1124 l 590 1365 z "},"Ồ":{"ha":990,"x_min":43,"x_max":1033,"o":"m 576 1046 q 872 922 776 1046 q 968 606 968 797 q 912 301 968 442 q 735 74 856 161 q 435 -14 615 -14 q 139 108 235 -14 q 43 432 43 229 q 102 735 43 596 q 282 960 161 875 q 576 1046 403 1046 m 557 961 q 417 888 476 961 q 327 694 358 814 q 296 440 296 575 q 331 173 297 276 q 454 69 364 69 q 597 138 539 69 q 685 324 656 206 q 714 590 714 442 q 677 867 714 772 q 557 961 640 961 m 982 1128 q 896 1211 946 1151 q 821 1315 846 1271 l 903 1365 l 1033 1161 l 982 1128 m 721 1346 l 876 1126 l 800 1065 l 631 1208 l 411 1064 l 358 1126 l 583 1346 l 721 1346 z "},"Ổ":{"ha":990,"x_min":43,"x_max":1111,"o":"m 576 1046 q 872 922 776 1046 q 968 606 968 797 q 912 301 968 442 q 735 74 856 161 q 435 -14 615 -14 q 139 108 235 -14 q 43 432 43 229 q 102 735 43 596 q 282 960 161 875 q 576 1046 403 1046 m 557 961 q 417 888 476 961 q 327 694 358 814 q 296 440 296 575 q 331 173 297 276 q 454 69 364 69 q 597 138 539 69 q 685 324 656 206 q 714 590 714 442 q 677 867 714 772 q 557 961 640 961 m 929 1082 q 917 1112 919 1101 q 915 1133 914 1122 q 927 1160 918 1149 q 953 1185 936 1171 q 977 1208 968 1197 q 990 1236 986 1219 q 946 1274 997 1272 q 879 1260 913 1274 l 890 1356 q 924 1363 893 1360 q 975 1365 956 1365 q 1076 1347 1040 1365 q 1111 1283 1111 1328 q 1110 1261 1111 1269 q 1087 1202 1103 1224 q 1051 1165 1071 1181 q 1024 1142 1032 1149 q 1007 1099 1006 1125 l 929 1082 m 715 1307 l 875 1118 l 799 1057 l 625 1176 l 411 1056 l 357 1118 l 576 1307 l 715 1307 z "},"Ỗ":{"ha":990,"x_min":43,"x_max":968,"o":"m 576 1046 q 872 922 776 1046 q 968 606 968 797 q 912 301 968 442 q 735 74 856 161 q 435 -14 615 -14 q 139 108 235 -14 q 43 432 43 229 q 102 735 43 596 q 282 960 161 875 q 576 1046 403 1046 m 557 961 q 417 888 476 961 q 327 694 358 814 q 296 440 296 575 q 331 173 297 276 q 454 69 364 69 q 597 138 539 69 q 685 324 656 206 q 714 590 714 442 q 677 867 714 772 q 557 961 640 961 m 431 1347 q 456 1401 435 1372 q 509 1451 476 1431 q 581 1471 542 1471 q 632 1460 610 1471 q 685 1428 654 1449 q 724 1403 708 1411 q 758 1394 740 1394 q 805 1404 790 1394 q 846 1443 819 1414 l 888 1410 q 828 1326 871 1360 q 724 1292 785 1292 q 674 1303 694 1292 q 624 1335 653 1314 q 587 1360 603 1351 q 553 1369 571 1369 q 513 1356 532 1369 q 471 1315 494 1342 l 431 1347 m 708 1256 l 868 1128 l 810 1065 l 621 1146 l 403 1064 l 368 1128 l 569 1256 l 708 1256 z "},"Ö":{"ha":990,"x_min":43,"x_max":968,"o":"m 576 1046 q 872 922 776 1046 q 968 606 968 797 q 912 301 968 442 q 735 74 856 161 q 435 -14 615 -14 q 139 108 235 -14 q 43 432 43 229 q 102 735 43 596 q 282 960 161 875 q 576 1046 403 1046 m 557 961 q 417 888 476 961 q 327 694 358 814 q 296 440 296 575 q 331 173 297 276 q 454 69 364 69 q 597 138 539 69 q 685 324 656 206 q 714 590 714 442 q 677 867 714 772 q 557 961 640 961 m 457 1128 q 392 1156 418 1128 q 365 1224 365 1183 q 396 1313 365 1281 q 479 1344 426 1344 q 550 1319 525 1344 q 575 1253 575 1293 q 545 1161 575 1194 q 457 1128 515 1128 m 789 1128 q 724 1156 750 1128 q 697 1224 697 1183 q 728 1313 697 1281 q 811 1344 758 1344 q 881 1319 856 1344 q 906 1253 906 1293 q 876 1161 906 1194 q 789 1128 847 1128 z "},"Ọ":{"ha":990,"x_min":43,"x_max":968,"o":"m 576 1046 q 872 922 776 1046 q 968 606 968 797 q 912 301 968 442 q 735 74 856 161 q 435 -14 615 -14 q 139 108 235 -14 q 43 432 43 229 q 102 735 43 596 q 282 960 161 875 q 576 1046 403 1046 m 557 961 q 417 888 476 961 q 327 694 358 814 q 296 440 296 575 q 331 173 297 276 q 454 69 364 69 q 597 138 539 69 q 685 324 656 206 q 714 590 714 442 q 677 867 714 772 q 557 961 640 961 m 393 -337 q 317 -306 344 -337 q 289 -224 289 -275 q 328 -127 289 -165 q 428 -89 367 -89 q 508 -118 481 -89 q 535 -197 535 -147 q 498 -297 535 -257 q 393 -337 461 -337 z "},"Ò":{"ha":990,"x_min":43,"x_max":968,"o":"m 576 1046 q 872 922 776 1046 q 968 606 968 797 q 912 301 968 442 q 735 74 856 161 q 435 -14 615 -14 q 139 108 235 -14 q 43 432 43 229 q 102 735 43 596 q 282 960 161 875 q 576 1046 403 1046 m 557 961 q 417 888 476 961 q 327 694 358 814 q 296 440 296 575 q 331 173 297 276 q 454 69 364 69 q 597 138 539 69 q 685 324 656 206 q 714 590 714 442 q 677 867 714 772 q 557 961 640 961 m 644 1100 q 524 1165 593 1113 q 421 1271 454 1217 l 538 1356 l 726 1153 l 644 1100 z "},"Ỏ":{"ha":990,"x_min":43,"x_max":968,"o":"m 576 1046 q 872 922 776 1046 q 968 606 968 797 q 912 301 968 442 q 735 74 856 161 q 435 -14 615 -14 q 139 108 235 -14 q 43 432 43 229 q 102 735 43 596 q 282 960 161 875 q 576 1046 403 1046 m 557 961 q 417 888 476 961 q 327 694 358 814 q 296 440 296 575 q 331 173 297 276 q 454 69 364 69 q 597 138 539 69 q 685 324 656 206 q 714 590 714 442 q 677 867 714 772 q 557 961 640 961 m 563 1082 q 554 1097 558 1086 q 550 1119 550 1108 q 558 1147 550 1138 q 601 1183 569 1165 q 631 1205 622 1197 q 639 1226 639 1213 q 625 1258 639 1247 q 578 1268 611 1268 q 539 1265 544 1268 l 550 1358 q 572 1363 554 1360 q 603 1365 589 1365 q 747 1342 706 1365 q 789 1257 789 1318 q 700 1156 789 1215 q 654 1082 651 1124 l 563 1082 z "},"Ơ":{"ha":1004,"x_min":43,"x_max":1099,"o":"m 43 432 q 102 735 43 596 q 282 960 161 875 q 576 1046 403 1046 q 750 1014 675 1046 q 885 1062 836 1019 q 935 1161 935 1104 q 929 1201 935 1182 l 1094 1201 q 1099 1172 1099 1189 q 1031 1010 1099 1068 q 864 931 964 951 q 968 606 968 815 q 912 301 968 442 q 735 74 856 161 q 435 -14 615 -14 q 139 108 235 -14 q 43 432 43 229 m 296 440 q 331 173 297 276 q 454 69 364 69 q 597 138 539 69 q 685 324 656 206 q 714 590 714 442 q 677 867 714 772 q 557 961 640 961 q 417 888 476 961 q 327 694 358 814 q 296 440 296 575 z "},"Ớ":{"ha":1004,"x_min":43,"x_max":1099,"o":"m 43 432 q 102 735 43 596 q 282 960 161 875 q 576 1046 403 1046 q 750 1014 675 1046 q 885 1062 836 1019 q 935 1161 935 1104 q 929 1201 935 1182 l 1094 1201 q 1099 1172 1099 1189 q 1031 1010 1099 1068 q 864 931 964 951 q 968 606 968 815 q 912 301 968 442 q 735 74 856 161 q 435 -14 615 -14 q 139 108 235 -14 q 43 432 43 229 m 296 440 q 331 173 297 276 q 454 69 364 69 q 597 138 539 69 q 685 324 656 206 q 714 590 714 442 q 677 867 714 772 q 557 961 640 961 q 417 888 476 961 q 327 694 358 814 q 296 440 296 575 m 708 1365 l 831 1268 q 712 1171 799 1228 q 579 1101 625 1114 l 493 1160 l 708 1365 z "},"Ợ":{"ha":1004,"x_min":43,"x_max":1099,"o":"m 43 432 q 102 735 43 596 q 282 960 161 875 q 576 1046 403 1046 q 750 1014 675 1046 q 885 1062 836 1019 q 935 1161 935 1104 q 929 1201 935 1182 l 1094 1201 q 1099 1172 1099 1189 q 1031 1010 1099 1068 q 864 931 964 951 q 968 606 968 815 q 912 301 968 442 q 735 74 856 161 q 435 -14 615 -14 q 139 108 235 -14 q 43 432 43 229 m 296 440 q 331 173 297 276 q 454 69 364 69 q 597 138 539 69 q 685 324 656 206 q 714 590 714 442 q 677 867 714 772 q 557 961 640 961 q 417 888 476 961 q 327 694 358 814 q 296 440 296 575 m 394 -337 q 318 -306 346 -337 q 290 -224 290 -275 q 329 -127 290 -165 q 429 -89 368 -89 q 509 -118 482 -89 q 536 -197 536 -147 q 499 -297 536 -257 q 394 -337 463 -337 z "},"Ờ":{"ha":1004,"x_min":43,"x_max":1099,"o":"m 43 432 q 102 735 43 596 q 282 960 161 875 q 576 1046 403 1046 q 750 1014 675 1046 q 885 1062 836 1019 q 935 1161 935 1104 q 929 1201 935 1182 l 1094 1201 q 1099 1172 1099 1189 q 1031 1010 1099 1068 q 864 931 964 951 q 968 606 968 815 q 912 301 968 442 q 735 74 856 161 q 435 -14 615 -14 q 139 108 235 -14 q 43 432 43 229 m 296 440 q 331 173 297 276 q 454 69 364 69 q 597 138 539 69 q 685 324 656 206 q 714 590 714 442 q 677 867 714 772 q 557 961 640 961 q 417 888 476 961 q 327 694 358 814 q 296 440 296 575 m 608 1100 q 488 1165 557 1113 q 385 1271 418 1217 l 501 1356 l 690 1153 l 608 1100 z "},"Ở":{"ha":1004,"x_min":43,"x_max":1099,"o":"m 43 432 q 102 735 43 596 q 282 960 161 875 q 576 1046 403 1046 q 750 1014 675 1046 q 885 1062 836 1019 q 935 1161 935 1104 q 929 1201 935 1182 l 1094 1201 q 1099 1172 1099 1189 q 1031 1010 1099 1068 q 864 931 964 951 q 968 606 968 815 q 912 301 968 442 q 735 74 856 161 q 435 -14 615 -14 q 139 108 235 -14 q 43 432 43 229 m 296 440 q 331 173 297 276 q 454 69 364 69 q 597 138 539 69 q 685 324 656 206 q 714 590 714 442 q 677 867 714 772 q 557 961 640 961 q 417 888 476 961 q 327 694 358 814 q 296 440 296 575 m 528 1115 q 511 1147 519 1125 q 504 1185 503 1168 q 517 1208 507 1199 q 546 1231 528 1218 q 578 1255 567 1243 q 596 1285 590 1267 l 596 1289 q 535 1339 596 1339 l 525 1339 q 496 1336 504 1339 l 517 1467 q 538 1471 519 1468 q 569 1474 556 1474 q 706 1441 656 1474 q 757 1344 757 1408 q 753 1308 757 1328 q 725 1254 747 1276 q 678 1216 703 1232 q 643 1192 653 1200 q 619 1165 626 1179 q 614 1124 613 1150 l 528 1115 z "},"Ỡ":{"ha":1004,"x_min":43,"x_max":1099,"o":"m 43 432 q 102 735 43 596 q 282 960 161 875 q 576 1046 403 1046 q 750 1014 675 1046 q 885 1062 836 1019 q 935 1161 935 1104 q 929 1201 935 1182 l 1094 1201 q 1099 1172 1099 1189 q 1031 1010 1099 1068 q 864 931 964 951 q 968 606 968 815 q 912 301 968 442 q 735 74 856 161 q 435 -14 615 -14 q 139 108 235 -14 q 43 432 43 229 m 296 440 q 331 173 297 276 q 454 69 364 69 q 597 138 539 69 q 685 324 656 206 q 714 590 714 442 q 677 867 714 772 q 557 961 640 961 q 417 888 476 961 q 327 694 358 814 q 296 440 296 575 m 335 1232 q 399 1313 351 1279 q 507 1347 446 1347 q 571 1332 546 1347 q 625 1288 596 1317 q 661 1256 646 1267 q 696 1246 676 1246 q 800 1314 750 1246 l 854 1239 q 787 1153 835 1190 q 683 1115 739 1115 q 615 1130 640 1115 q 560 1172 589 1144 q 520 1206 538 1196 q 476 1217 503 1217 q 426 1202 449 1217 q 379 1161 404 1188 l 335 1232 z "},"Ő":{"ha":990,"x_min":43,"x_max":968,"o":"m 576 1046 q 872 922 776 1046 q 968 606 968 797 q 912 301 968 442 q 735 74 856 161 q 435 -14 615 -14 q 139 108 235 -14 q 43 432 43 229 q 102 735 43 596 q 282 960 161 875 q 576 1046 403 1046 m 557 961 q 417 888 476 961 q 327 694 358 814 q 296 440 296 575 q 331 173 297 276 q 454 69 364 69 q 597 138 539 69 q 685 324 656 206 q 714 590 714 442 q 677 867 714 772 q 557 961 640 961 m 493 1365 l 617 1304 q 513 1180 592 1247 q 372 1093 433 1113 l 307 1143 l 493 1365 m 843 1365 l 965 1303 q 855 1176 929 1242 q 721 1093 781 1111 l 660 1143 l 843 1365 z "},"Ō":{"ha":990,"x_min":43,"x_max":968,"o":"m 576 1046 q 872 922 776 1046 q 968 606 968 797 q 912 301 968 442 q 735 74 856 161 q 435 -14 615 -14 q 139 108 235 -14 q 43 432 43 229 q 102 735 43 596 q 282 960 161 875 q 576 1046 403 1046 m 557 961 q 417 888 476 961 q 327 694 358 814 q 296 440 296 575 q 331 173 297 276 q 454 69 364 69 q 597 138 539 69 q 685 324 656 206 q 714 590 714 442 q 677 867 714 772 q 557 961 640 961 m 833 1299 l 819 1158 l 433 1158 l 446 1299 l 833 1299 z "},"Ø":{"ha":990,"x_min":46,"x_max":971,"o":"m 832 965 q 937 814 903 907 q 971 607 971 721 q 915 303 971 443 q 738 75 858 163 q 438 -12 618 -12 q 228 36 317 -12 l 142 -90 l 82 -51 l 171 78 q 77 228 108 136 q 46 433 46 319 q 105 737 46 597 q 284 962 164 876 q 578 1047 404 1047 q 775 1004 693 1047 l 867 1139 l 926 1101 l 832 965 m 682 863 q 560 963 643 963 q 420 889 479 963 q 330 696 361 815 q 299 442 299 576 q 313 260 299 339 l 682 863 m 332 179 q 457 71 369 71 q 650 219 583 71 q 717 599 717 367 q 701 786 717 715 l 332 179 z "},"Ǿ":{"ha":990,"x_min":46,"x_max":971,"o":"m 832 965 q 937 814 903 907 q 971 607 971 721 q 915 303 971 443 q 738 75 858 163 q 438 -12 618 -12 q 228 36 317 -12 l 142 -90 l 82 -51 l 171 78 q 77 228 108 136 q 46 433 46 319 q 105 737 46 597 q 284 962 164 876 q 578 1047 404 1047 q 775 1004 693 1047 l 867 1139 l 926 1101 l 832 965 m 682 863 q 560 963 643 963 q 420 889 479 963 q 330 696 361 815 q 299 442 299 576 q 313 260 299 339 l 682 863 m 332 179 q 457 71 369 71 q 650 219 583 71 q 717 599 717 367 q 701 786 717 715 l 332 179 m 714 1365 l 836 1268 q 717 1171 804 1228 q 585 1101 631 1114 l 499 1160 l 714 1365 z "},"Õ":{"ha":990,"x_min":43,"x_max":968,"o":"m 576 1046 q 872 922 776 1046 q 968 606 968 797 q 912 301 968 442 q 735 74 856 161 q 435 -14 615 -14 q 139 108 235 -14 q 43 432 43 229 q 102 735 43 596 q 282 960 161 875 q 576 1046 403 1046 m 557 961 q 417 888 476 961 q 327 694 358 814 q 296 440 296 575 q 331 173 297 276 q 454 69 364 69 q 597 138 539 69 q 685 324 656 206 q 714 590 714 442 q 677 867 714 772 q 557 961 640 961 m 371 1232 q 435 1313 388 1279 q 543 1347 482 1347 q 607 1332 582 1347 q 661 1288 632 1317 q 697 1256 682 1267 q 732 1246 713 1246 q 836 1314 786 1246 l 890 1239 q 823 1153 871 1190 q 719 1115 775 1115 q 651 1130 676 1115 q 596 1172 625 1144 q 556 1206 574 1196 q 513 1217 539 1217 q 463 1202 485 1217 q 415 1161 440 1188 l 371 1232 z "},"Œ":{"ha":1560,"x_min":43,"x_max":1544,"o":"m 778 115 q 442 -14 653 -14 q 140 109 238 -14 q 43 436 43 232 q 103 738 43 600 q 284 961 163 876 q 582 1046 406 1046 q 876 896 792 1046 l 894 1032 l 1544 1032 l 1522 783 l 1383 783 l 1354 935 l 1118 951 l 1072 596 l 1382 628 l 1357 469 l 1060 494 l 1007 99 l 1324 122 l 1397 315 l 1540 306 l 1493 0 l 764 0 l 778 115 m 564 961 q 417 888 479 961 q 322 696 354 815 q 289 442 289 576 q 326 174 290 278 q 460 69 363 69 q 664 217 594 69 q 733 597 733 364 q 694 869 733 776 q 564 961 654 961 z "},"P":{"ha":907,"x_min":-7,"x_max":928,"o":"m 328 1032 q 449 1038 371 1032 q 550 1043 518 1043 q 841 970 754 1043 q 928 750 928 897 q 869 533 928 624 q 701 396 810 443 q 444 349 592 349 q 364 353 392 349 l 333 90 l 518 71 l 514 0 l -7 0 l 0 71 l 93 90 l 207 942 l 107 957 l 117 1032 l 328 1032 m 375 443 q 423 438 399 438 q 451 438 447 438 q 623 528 560 439 q 688 763 686 617 q 641 910 688 863 q 511 957 594 957 q 444 951 476 957 l 375 443 z "},"Ṗ":{"ha":907,"x_min":-7,"x_max":928,"o":"m 328 1032 q 449 1038 371 1032 q 550 1043 518 1043 q 841 970 754 1043 q 928 750 928 897 q 869 533 928 624 q 701 396 810 443 q 444 349 592 349 q 364 353 392 349 l 333 90 l 518 71 l 514 0 l -7 0 l 0 71 l 93 90 l 207 942 l 107 957 l 117 1032 l 328 1032 m 375 443 q 423 438 399 438 q 451 438 447 438 q 623 528 560 439 q 688 763 686 617 q 641 910 688 863 q 511 957 594 957 q 444 951 476 957 l 375 443 m 560 1115 q 485 1147 519 1115 q 450 1218 450 1179 q 488 1309 450 1272 q 583 1346 525 1346 q 665 1316 632 1346 q 699 1247 699 1286 q 662 1153 699 1190 q 560 1115 625 1115 z "},"Þ":{"ha":886,"x_min":-4,"x_max":904,"o":"m 425 788 q 567 793 517 793 q 827 730 750 793 q 904 569 904 667 q 802 331 904 428 q 429 233 700 233 q 353 236 381 233 l 332 90 l 450 71 l 444 0 l -4 0 l 1 71 l 97 90 l 210 942 l 111 958 l 121 1032 l 574 1032 l 565 958 l 444 942 l 425 788 m 442 325 q 597 378 538 325 q 657 542 657 432 q 614 663 657 621 q 493 706 571 706 q 413 696 461 706 l 364 325 l 442 325 z "},"Q":{"ha":992,"x_min":43,"x_max":968,"o":"m 944 -221 q 841 -272 908 -249 q 683 -296 774 -296 q 495 -245 560 -296 q 431 -99 431 -194 q 442 -14 431 -62 q 142 103 242 -14 q 43 432 43 221 q 102 735 43 596 q 282 960 161 875 q 576 1044 403 1044 q 873 921 778 1044 q 968 606 968 797 q 924 333 968 461 q 785 115 879 206 q 551 -3 692 25 q 600 -101 550 -78 q 749 -124 650 -124 q 845 -116 786 -124 q 943 -96 904 -108 l 944 -221 m 558 961 q 418 888 478 961 q 327 694 358 814 q 296 439 296 575 q 331 172 297 276 q 454 68 364 68 q 597 137 539 68 q 685 324 656 206 q 714 590 714 442 q 677 867 714 772 q 558 961 640 961 z "},"R":{"ha":981,"x_min":-7,"x_max":967,"o":"m 326 1032 q 431 1038 367 1032 q 572 1043 506 1043 q 853 978 772 1043 q 935 785 935 914 q 874 594 935 675 q 704 476 813 514 q 751 394 728 450 q 808 250 775 338 l 822 219 q 867 130 851 157 q 906 88 883 103 q 967 72 929 72 l 960 0 l 683 0 q 658 30 671 0 q 621 129 646 60 l 597 194 q 496 449 518 419 l 371 449 l 326 90 l 451 71 l 447 0 l -7 0 l -1 71 l 94 90 l 206 942 l 108 957 l 117 1032 l 326 1032 m 383 542 q 436 540 407 540 q 486 540 465 539 q 640 607 585 540 q 689 799 694 674 q 642 917 686 878 q 518 957 597 957 q 439 951 472 957 l 383 542 z "},"Ŕ":{"ha":981,"x_min":-7,"x_max":967,"o":"m 326 1032 q 431 1038 367 1032 q 572 1043 506 1043 q 853 978 772 1043 q 935 785 935 914 q 874 594 935 675 q 704 476 813 514 q 751 394 728 450 q 808 250 775 338 l 822 219 q 867 130 851 157 q 906 88 883 103 q 967 72 929 72 l 960 0 l 683 0 q 658 30 671 0 q 621 129 646 60 l 597 194 q 496 449 518 419 l 371 449 l 326 90 l 451 71 l 447 0 l -7 0 l -1 71 l 94 90 l 206 942 l 108 957 l 117 1032 l 326 1032 m 383 542 q 436 540 407 540 q 486 540 465 539 q 640 607 585 540 q 689 799 694 674 q 642 917 686 878 q 518 957 597 957 q 439 951 472 957 l 383 542 m 668 1365 l 790 1268 q 672 1171 758 1228 q 539 1101 585 1114 l 453 1160 l 668 1365 z "},"Ř":{"ha":981,"x_min":-7,"x_max":967,"o":"m 326 1032 q 431 1038 367 1032 q 572 1043 506 1043 q 853 978 772 1043 q 935 785 935 914 q 874 594 935 675 q 704 476 813 514 q 751 394 728 450 q 808 250 775 338 l 822 219 q 867 130 851 157 q 906 88 883 103 q 967 72 929 72 l 960 0 l 683 0 q 658 30 671 0 q 621 129 646 60 l 597 194 q 496 449 518 419 l 371 449 l 326 90 l 451 71 l 447 0 l -7 0 l -1 71 l 94 90 l 206 942 l 108 957 l 117 1032 l 326 1032 m 383 542 q 436 540 407 540 q 486 540 465 539 q 640 607 585 540 q 689 799 694 674 q 642 917 686 878 q 518 957 597 957 q 439 951 472 957 l 383 542 m 424 1365 l 558 1231 l 765 1365 l 838 1328 l 596 1094 l 483 1094 l 342 1326 l 424 1365 z "},"Ŗ":{"ha":981,"x_min":-7,"x_max":967,"o":"m 326 1032 q 431 1038 367 1032 q 572 1043 506 1043 q 853 978 772 1043 q 935 785 935 914 q 874 594 935 675 q 704 476 813 514 q 751 394 728 450 q 808 250 775 338 l 822 219 q 867 130 851 157 q 906 88 883 103 q 967 72 929 72 l 960 0 l 683 0 q 658 30 671 0 q 621 129 646 60 l 597 194 q 496 449 518 419 l 371 449 l 326 90 l 451 71 l 447 0 l -7 0 l -1 71 l 94 90 l 206 942 l 108 957 l 117 1032 l 326 1032 m 383 542 q 436 540 407 540 q 486 540 465 539 q 640 607 585 540 q 689 799 694 674 q 642 917 686 878 q 518 957 597 957 q 439 951 472 957 l 383 542 m 374 -329 q 396 -294 386 -322 q 406 -236 406 -267 q 396 -185 406 -210 q 367 -160 386 -161 l 367 -103 l 493 -46 q 556 -103 535 -64 q 576 -193 576 -143 q 556 -276 576 -236 q 507 -344 536 -317 q 451 -378 478 -371 l 372 -346 l 374 -329 z "},"S":{"ha":783,"x_min":11,"x_max":767,"o":"m 583 926 q 538 952 561 944 q 479 960 514 960 q 365 926 407 960 q 324 838 324 893 q 367 718 324 768 q 517 601 410 668 q 671 467 614 539 q 728 300 728 394 q 685 142 729 214 q 551 28 640 71 q 332 -15 461 -15 q 133 7 228 -15 q 11 51 38 29 l 50 265 l 189 265 l 196 114 q 326 71 246 71 q 466 109 422 71 q 510 211 510 147 q 470 322 510 274 q 333 431 431 369 q 172 571 231 496 q 114 746 114 646 q 220 966 114 888 q 496 1044 326 1044 q 767 994 681 1044 l 731 790 l 603 790 l 583 926 z "},"Ś":{"ha":783,"x_min":11,"x_max":767,"o":"m 583 926 q 538 952 561 944 q 479 960 514 960 q 365 926 407 960 q 324 838 324 893 q 367 718 324 768 q 517 601 410 668 q 671 467 614 539 q 728 300 728 394 q 685 142 729 214 q 551 28 640 71 q 332 -15 461 -15 q 133 7 228 -15 q 11 51 38 29 l 50 265 l 189 265 l 196 114 q 326 71 246 71 q 466 109 422 71 q 510 211 510 147 q 470 322 510 274 q 333 431 431 369 q 172 571 231 496 q 114 746 114 646 q 220 966 114 888 q 496 1044 326 1044 q 767 994 681 1044 l 731 790 l 603 790 l 583 926 m 632 1365 l 754 1268 q 635 1171 722 1228 q 503 1101 549 1114 l 417 1160 l 632 1365 z "},"Š":{"ha":783,"x_min":11,"x_max":801,"o":"m 583 926 q 538 952 561 944 q 479 960 514 960 q 365 926 407 960 q 324 838 324 893 q 367 718 324 768 q 517 601 410 668 q 671 467 614 539 q 728 300 728 394 q 685 142 729 214 q 551 28 640 71 q 332 -15 461 -15 q 133 7 228 -15 q 11 51 38 29 l 50 265 l 189 265 l 196 114 q 326 71 246 71 q 466 109 422 71 q 510 211 510 147 q 470 322 510 274 q 333 431 431 369 q 172 571 231 496 q 114 746 114 646 q 220 966 114 888 q 496 1044 326 1044 q 767 994 681 1044 l 731 790 l 603 790 l 583 926 m 388 1365 l 522 1231 l 729 1365 l 801 1328 l 560 1094 l 447 1094 l 306 1326 l 388 1365 z "},"Ş":{"ha":783,"x_min":11,"x_max":767,"o":"m 50 265 l 189 265 l 196 114 q 326 71 246 71 q 466 109 422 71 q 510 211 510 147 q 470 322 510 274 q 333 431 431 369 q 172 571 231 496 q 114 746 114 646 q 220 966 114 888 q 496 1044 326 1044 q 767 994 681 1044 l 731 790 l 603 790 l 583 926 q 538 952 561 944 q 479 960 514 960 q 365 926 407 960 q 324 838 324 893 q 367 718 324 768 q 517 601 410 668 q 671 467 614 539 q 728 300 728 394 q 691 153 729 221 q 575 40 653 85 q 386 -12 497 -4 q 402 -85 396 -43 q 408 -160 408 -126 q 206 -328 408 -328 q 130 -322 175 -328 q 74 -310 85 -317 l 97 -206 q 151 -217 119 -217 q 242 -187 210 -217 q 275 -85 275 -157 q 271 -12 275 -44 q 108 13 182 -7 q 11 51 33 33 l 50 265 z "},"Ŝ":{"ha":783,"x_min":11,"x_max":767,"o":"m 583 926 q 538 952 561 944 q 479 960 514 960 q 365 926 407 960 q 324 838 324 893 q 367 718 324 768 q 517 601 410 668 q 671 467 614 539 q 728 300 728 394 q 685 142 729 214 q 551 28 640 71 q 332 -15 461 -15 q 133 7 228 -15 q 11 51 38 29 l 50 265 l 189 265 l 196 114 q 326 71 246 71 q 466 109 422 71 q 510 211 510 147 q 470 322 510 274 q 333 431 431 369 q 172 571 231 496 q 114 746 114 646 q 220 966 114 888 q 496 1044 326 1044 q 767 994 681 1044 l 731 790 l 603 790 l 583 926 m 478 1365 l 599 1365 l 740 1124 l 658 1085 l 521 1226 l 301 1085 l 231 1124 l 478 1365 z "},"Ș":{"ha":783,"x_min":11,"x_max":767,"o":"m 583 926 q 538 952 561 944 q 479 960 514 960 q 365 926 407 960 q 324 838 324 893 q 367 718 324 768 q 517 601 410 668 q 671 467 614 539 q 728 300 728 394 q 685 142 729 214 q 551 28 640 71 q 332 -15 461 -15 q 133 7 228 -15 q 11 51 38 29 l 50 265 l 189 265 l 196 114 q 326 71 246 71 q 466 109 422 71 q 510 211 510 147 q 470 322 510 274 q 333 431 431 369 q 172 571 231 496 q 114 746 114 646 q 220 966 114 888 q 496 1044 326 1044 q 767 994 681 1044 l 731 790 l 603 790 l 583 926 m 221 -329 q 243 -294 233 -322 q 253 -236 253 -267 q 243 -185 253 -210 q 214 -160 233 -161 l 214 -103 l 340 -46 q 403 -103 382 -64 q 424 -193 424 -143 q 403 -276 424 -236 q 354 -344 383 -317 q 299 -378 325 -371 l 219 -346 l 221 -329 z "},"Ṡ":{"ha":783,"x_min":11,"x_max":767,"o":"m 583 926 q 538 952 561 944 q 479 960 514 960 q 365 926 407 960 q 324 838 324 893 q 367 718 324 768 q 517 601 410 668 q 671 467 614 539 q 728 300 728 394 q 685 142 729 214 q 551 28 640 71 q 332 -15 461 -15 q 133 7 228 -15 q 11 51 38 29 l 50 265 l 189 265 l 196 114 q 326 71 246 71 q 466 109 422 71 q 510 211 510 147 q 470 322 510 274 q 333 431 431 369 q 172 571 231 496 q 114 746 114 646 q 220 966 114 888 q 496 1044 326 1044 q 767 994 681 1044 l 731 790 l 603 790 l 583 926 m 506 1115 q 431 1147 465 1115 q 396 1218 396 1179 q 433 1309 396 1272 q 529 1346 471 1346 q 611 1316 578 1346 q 644 1247 644 1286 q 608 1153 644 1190 q 506 1115 571 1115 z "},"Ṣ":{"ha":783,"x_min":11,"x_max":767,"o":"m 583 926 q 538 952 561 944 q 479 960 514 960 q 365 926 407 960 q 324 838 324 893 q 367 718 324 768 q 517 601 410 668 q 671 467 614 539 q 728 300 728 394 q 685 142 729 214 q 551 28 640 71 q 332 -15 461 -15 q 133 7 228 -15 q 11 51 38 29 l 50 265 l 189 265 l 196 114 q 326 71 246 71 q 466 109 422 71 q 510 211 510 147 q 470 322 510 274 q 333 431 431 369 q 172 571 231 496 q 114 746 114 646 q 220 966 114 888 q 496 1044 326 1044 q 767 994 681 1044 l 731 790 l 603 790 l 583 926 m 289 -337 q 213 -306 240 -337 q 185 -224 185 -275 q 224 -127 185 -165 q 324 -89 263 -89 q 403 -118 376 -89 q 431 -197 431 -147 q 394 -297 431 -257 q 289 -337 357 -337 z "},"ẞ":{"ha":992,"x_min":-44,"x_max":979,"o":"m 121 629 q 203 842 135 746 q 383 993 271 938 q 632 1049 494 1049 q 836 1019 761 1049 q 942 949 911 989 l 935 896 l 717 625 q 904 522 829 594 q 979 325 979 449 q 931 148 979 222 q 801 35 882 74 q 622 -4 719 -4 q 540 3 579 -4 q 454 24 501 11 q 389 38 407 36 l 415 238 l 524 238 l 542 124 q 628 71 563 71 q 708 124 678 71 q 738 283 738 178 q 542 543 738 426 l 550 590 l 729 828 q 731 849 731 835 q 697 930 731 894 q 608 965 663 965 q 442 888 499 965 q 365 657 386 811 l 276 0 l -44 0 l -37 71 l 47 90 l 121 629 z "},"Ə":{"ha":935,"x_min":47,"x_max":885,"o":"m 156 982 q 192 987 172 982 q 233 999 213 992 q 358 1031 294 1019 q 531 1043 422 1043 q 715 992 635 1043 q 840 846 796 940 q 885 628 885 751 q 817 299 885 446 q 635 68 749 151 q 388 -15 521 -15 q 138 74 228 -15 q 47 325 47 164 q 57 438 47 379 q 79 528 67 496 l 644 528 l 646 550 q 647 611 647 571 q 601 871 647 776 q 457 965 556 965 q 365 949 400 965 q 314 896 331 932 l 249 757 l 125 757 l 156 982 m 294 436 q 280 361 285 389 q 275 301 275 333 q 308 132 275 190 q 418 74 340 74 q 556 159 497 74 q 636 436 614 244 l 294 436 z "},"T":{"ha":978,"x_min":49,"x_max":1039,"o":"m 1039 1032 l 982 639 l 861 639 l 850 935 l 685 951 l 571 90 l 761 72 l 754 0 l 157 0 l 167 72 l 335 90 l 450 951 l 285 935 l 174 639 l 49 639 l 115 1032 l 1039 1032 z "},"Ŧ":{"ha":979,"x_min":49,"x_max":1039,"o":"m 1039 1032 l 982 639 l 861 639 l 850 935 l 685 951 l 632 563 l 794 563 l 783 463 l 619 463 l 571 90 l 761 72 l 754 0 l 157 0 l 167 72 l 335 90 l 385 463 l 225 463 l 236 563 l 399 563 l 450 951 l 285 935 l 174 639 l 49 639 l 115 1032 l 1039 1032 z "},"Ť":{"ha":978,"x_min":49,"x_max":1039,"o":"m 1039 1032 l 982 639 l 861 639 l 850 935 l 685 951 l 571 90 l 761 72 l 754 0 l 157 0 l 167 72 l 335 90 l 450 951 l 285 935 l 174 639 l 49 639 l 115 1032 l 1039 1032 m 474 1365 l 608 1231 l 815 1365 l 888 1328 l 646 1094 l 533 1094 l 392 1326 l 474 1365 z "},"Ţ":{"ha":978,"x_min":49,"x_max":1039,"o":"m 115 1032 l 1039 1032 l 982 639 l 861 639 l 850 935 l 685 951 l 571 90 l 761 72 l 754 0 l 501 0 q 518 -64 511 -26 q 525 -136 525 -101 q 471 -274 525 -219 q 313 -328 417 -328 q 248 -320 286 -328 q 199 -306 210 -312 l 224 -206 q 276 -217 246 -217 q 397 -86 397 -217 q 393 0 397 -32 l 157 0 l 167 72 l 335 90 l 450 951 l 285 935 l 174 639 l 49 639 l 115 1032 z "},"Ț":{"ha":978,"x_min":49,"x_max":1039,"o":"m 1039 1032 l 982 639 l 861 639 l 850 935 l 685 951 l 571 90 l 761 72 l 754 0 l 157 0 l 167 72 l 335 90 l 450 951 l 285 935 l 174 639 l 49 639 l 115 1032 l 1039 1032 m 332 -329 q 354 -294 344 -322 q 364 -236 364 -267 q 354 -185 364 -210 q 325 -160 344 -161 l 325 -103 l 451 -46 q 514 -103 493 -64 q 535 -193 535 -143 q 515 -276 535 -236 q 465 -344 494 -317 q 410 -378 436 -371 l 331 -346 l 332 -329 z "},"Ṫ":{"ha":978,"x_min":49,"x_max":1039,"o":"m 1039 1032 l 982 639 l 861 639 l 850 935 l 685 951 l 571 90 l 761 72 l 754 0 l 157 0 l 167 72 l 335 90 l 450 951 l 285 935 l 174 639 l 49 639 l 115 1032 l 1039 1032 m 592 1115 q 517 1147 551 1115 q 482 1218 482 1179 q 519 1309 482 1272 q 615 1346 557 1346 q 697 1316 664 1346 q 731 1247 731 1286 q 694 1153 731 1190 q 592 1115 657 1115 z "},"Ṭ":{"ha":978,"x_min":49,"x_max":1039,"o":"m 1039 1032 l 982 639 l 861 639 l 850 935 l 685 951 l 571 90 l 761 72 l 754 0 l 157 0 l 167 72 l 335 90 l 450 951 l 285 935 l 174 639 l 49 639 l 115 1032 l 1039 1032 m 400 -337 q 324 -306 351 -337 q 296 -224 296 -275 q 335 -127 296 -165 q 435 -89 374 -89 q 515 -118 488 -89 q 542 -197 542 -147 q 505 -297 542 -257 q 400 -337 468 -337 z "},"U":{"ha":992,"x_min":83,"x_max":1068,"o":"m 904 425 q 769 88 875 190 q 472 -14 664 -14 q 196 69 285 -14 q 107 290 107 153 q 111 403 107 363 l 181 942 l 83 957 l 92 1032 l 556 1032 l 550 958 l 415 942 l 347 422 q 336 286 336 314 q 382 128 336 188 q 514 69 428 69 q 693 157 633 69 q 778 425 753 244 l 847 942 l 747 958 l 754 1032 l 1068 1032 l 1058 958 l 971 942 l 904 425 z "},"Ú":{"ha":992,"x_min":83,"x_max":1068,"o":"m 904 425 q 769 88 875 190 q 472 -14 664 -14 q 196 69 285 -14 q 107 290 107 153 q 111 403 107 363 l 181 942 l 83 957 l 92 1032 l 556 1032 l 550 958 l 415 942 l 347 422 q 336 286 336 314 q 382 128 336 188 q 514 69 428 69 q 693 157 633 69 q 778 425 753 244 l 847 942 l 747 958 l 754 1032 l 1068 1032 l 1058 958 l 971 942 l 904 425 m 761 1365 l 883 1268 q 765 1171 851 1228 q 632 1101 678 1114 l 546 1160 l 761 1365 z "},"Ŭ":{"ha":992,"x_min":83,"x_max":1068,"o":"m 904 425 q 769 88 875 190 q 472 -14 664 -14 q 196 69 285 -14 q 107 290 107 153 q 111 403 107 363 l 181 942 l 83 957 l 92 1032 l 556 1032 l 550 958 l 415 942 l 347 422 q 336 286 336 314 q 382 128 336 188 q 514 69 428 69 q 693 157 633 69 q 778 425 753 244 l 847 942 l 747 958 l 754 1032 l 1068 1032 l 1058 958 l 971 942 l 904 425 m 643 1107 q 429 1319 429 1107 q 433 1364 429 1346 l 558 1364 q 563 1303 558 1325 q 585 1267 567 1281 q 646 1253 604 1253 q 735 1286 713 1253 q 758 1364 758 1319 l 879 1364 q 815 1178 879 1249 q 643 1107 751 1107 z "},"Ǔ":{"ha":992,"x_min":83,"x_max":1068,"o":"m 904 425 q 769 88 875 190 q 472 -14 664 -14 q 196 69 285 -14 q 107 290 107 153 q 111 403 107 363 l 181 942 l 83 957 l 92 1032 l 556 1032 l 550 958 l 415 942 l 347 422 q 336 286 336 314 q 382 128 336 188 q 514 69 428 69 q 693 157 633 69 q 778 425 753 244 l 847 942 l 747 958 l 754 1032 l 1068 1032 l 1058 958 l 971 942 l 904 425 m 517 1365 l 651 1231 l 858 1365 l 931 1328 l 689 1094 l 576 1094 l 435 1326 l 517 1365 z "},"Û":{"ha":992,"x_min":83,"x_max":1068,"o":"m 904 425 q 769 88 875 190 q 472 -14 664 -14 q 196 69 285 -14 q 107 290 107 153 q 111 403 107 363 l 181 942 l 83 957 l 92 1032 l 556 1032 l 550 958 l 415 942 l 347 422 q 336 286 336 314 q 382 128 336 188 q 514 69 428 69 q 693 157 633 69 q 778 425 753 244 l 847 942 l 747 958 l 754 1032 l 1068 1032 l 1058 958 l 971 942 l 904 425 m 607 1365 l 728 1365 l 869 1124 l 788 1085 l 650 1226 l 431 1085 l 360 1124 l 607 1365 z "},"Ü":{"ha":992,"x_min":83,"x_max":1068,"o":"m 904 425 q 769 88 875 190 q 472 -14 664 -14 q 196 69 285 -14 q 107 290 107 153 q 111 403 107 363 l 181 942 l 83 957 l 92 1032 l 556 1032 l 550 958 l 415 942 l 347 422 q 336 286 336 314 q 382 128 336 188 q 514 69 428 69 q 693 157 633 69 q 778 425 753 244 l 847 942 l 747 958 l 754 1032 l 1068 1032 l 1058 958 l 971 942 l 904 425 m 474 1128 q 408 1156 435 1128 q 382 1224 382 1183 q 413 1313 382 1281 q 496 1344 443 1344 q 567 1319 542 1344 q 592 1253 592 1293 q 562 1161 592 1194 q 474 1128 532 1128 m 806 1128 q 740 1156 767 1128 q 714 1224 714 1183 q 744 1313 714 1281 q 828 1344 775 1344 q 897 1319 872 1344 q 922 1253 922 1293 q 893 1161 922 1194 q 806 1128 864 1128 z "},"Ụ":{"ha":992,"x_min":83,"x_max":1068,"o":"m 904 425 q 769 88 875 190 q 472 -14 664 -14 q 196 69 285 -14 q 107 290 107 153 q 111 403 107 363 l 181 942 l 83 957 l 92 1032 l 556 1032 l 550 958 l 415 942 l 347 422 q 336 286 336 314 q 382 128 336 188 q 514 69 428 69 q 693 157 633 69 q 778 425 753 244 l 847 942 l 747 958 l 754 1032 l 1068 1032 l 1058 958 l 971 942 l 904 425 m 429 -337 q 353 -306 381 -337 q 325 -224 325 -275 q 364 -127 325 -165 q 464 -89 403 -89 q 544 -118 517 -89 q 571 -197 571 -147 q 534 -297 571 -257 q 429 -337 497 -337 z "},"Ù":{"ha":992,"x_min":83,"x_max":1068,"o":"m 904 425 q 769 88 875 190 q 472 -14 664 -14 q 196 69 285 -14 q 107 290 107 153 q 111 403 107 363 l 181 942 l 83 957 l 92 1032 l 556 1032 l 550 958 l 415 942 l 347 422 q 336 286 336 314 q 382 128 336 188 q 514 69 428 69 q 693 157 633 69 q 778 425 753 244 l 847 942 l 747 958 l 754 1032 l 1068 1032 l 1058 958 l 971 942 l 904 425 m 661 1100 q 540 1165 610 1113 q 438 1271 471 1217 l 554 1356 l 743 1153 l 661 1100 z "},"Ủ":{"ha":992,"x_min":83,"x_max":1068,"o":"m 904 425 q 769 88 875 190 q 472 -14 664 -14 q 196 69 285 -14 q 107 290 107 153 q 111 403 107 363 l 181 942 l 83 957 l 92 1032 l 556 1032 l 550 958 l 415 942 l 347 422 q 336 286 336 314 q 382 128 336 188 q 514 69 428 69 q 693 157 633 69 q 778 425 753 244 l 847 942 l 747 958 l 754 1032 l 1068 1032 l 1058 958 l 971 942 l 904 425 m 579 1082 q 571 1097 575 1086 q 567 1119 567 1108 q 575 1147 567 1138 q 618 1183 586 1165 q 647 1205 639 1197 q 656 1226 656 1213 q 642 1258 656 1247 q 594 1268 628 1268 q 556 1265 561 1268 l 567 1358 q 588 1363 571 1360 q 619 1365 606 1365 q 764 1342 722 1365 q 806 1257 806 1318 q 717 1156 806 1215 q 671 1082 668 1124 l 579 1082 z "},"Ư":{"ha":1096,"x_min":83,"x_max":1204,"o":"m 92 1032 l 556 1032 l 550 958 l 415 942 l 347 422 q 336 286 336 314 q 382 128 336 188 q 514 69 428 69 q 693 157 633 69 q 778 425 753 244 l 847 942 l 747 958 l 754 1032 l 894 1032 q 1003 1074 972 1032 q 1033 1178 1033 1115 q 1032 1201 1033 1196 l 1199 1201 q 1201 1171 1201 1179 q 1151 1016 1204 1069 q 971 942 1097 963 l 904 425 q 769 88 875 190 q 472 -14 664 -14 q 196 69 285 -14 q 107 290 107 153 q 111 403 107 363 l 181 942 l 83 957 l 92 1032 z "},"Ứ":{"ha":1096,"x_min":83,"x_max":1201,"o":"m 92 1032 l 556 1032 l 550 958 l 415 942 l 347 422 q 336 286 336 314 q 382 128 336 188 q 514 69 428 69 q 693 157 633 69 q 778 425 753 244 l 847 942 l 747 958 l 754 1032 l 894 1032 q 1003 1074 972 1032 q 1033 1178 1033 1115 q 1032 1201 1033 1196 l 1199 1201 q 1201 1171 1201 1179 q 1151 1016 1204 1069 q 971 942 1097 963 l 904 425 q 769 88 875 190 q 472 -14 664 -14 q 196 69 285 -14 q 107 290 107 153 q 111 403 107 363 l 181 942 l 83 957 l 92 1032 m 761 1365 l 883 1268 q 765 1171 851 1228 q 632 1101 678 1114 l 546 1160 l 761 1365 z "},"Ự":{"ha":1096,"x_min":83,"x_max":1201,"o":"m 92 1032 l 556 1032 l 550 958 l 415 942 l 347 422 q 336 286 336 314 q 382 128 336 188 q 514 69 428 69 q 693 157 633 69 q 778 425 753 244 l 847 942 l 747 958 l 754 1032 l 894 1032 q 1003 1074 972 1032 q 1033 1178 1033 1115 q 1032 1201 1033 1196 l 1199 1201 q 1201 1171 1201 1179 q 1151 1016 1204 1069 q 971 942 1097 963 l 904 425 q 769 88 875 190 q 472 -14 664 -14 q 196 69 285 -14 q 107 290 107 153 q 111 403 107 363 l 181 942 l 83 957 l 92 1032 m 422 -337 q 346 -306 374 -337 q 318 -224 318 -275 q 357 -127 318 -165 q 457 -89 396 -89 q 537 -118 510 -89 q 564 -197 564 -147 q 527 -297 564 -257 q 422 -337 490 -337 z "},"Ừ":{"ha":1096,"x_min":83,"x_max":1201,"o":"m 92 1032 l 556 1032 l 550 958 l 415 942 l 347 422 q 336 286 336 314 q 382 128 336 188 q 514 69 428 69 q 693 157 633 69 q 778 425 753 244 l 847 942 l 747 958 l 754 1032 l 894 1032 q 1003 1074 972 1032 q 1033 1178 1033 1115 q 1032 1201 1033 1196 l 1199 1201 q 1201 1171 1201 1179 q 1151 1016 1204 1069 q 971 942 1097 963 l 904 425 q 769 88 875 190 q 472 -14 664 -14 q 196 69 285 -14 q 107 290 107 153 q 111 403 107 363 l 181 942 l 83 957 l 92 1032 m 661 1100 q 540 1165 610 1113 q 438 1271 471 1217 l 554 1356 l 743 1153 l 661 1100 z "},"Ử":{"ha":1096,"x_min":83,"x_max":1201,"o":"m 92 1032 l 556 1032 l 550 958 l 415 942 l 347 422 q 336 286 336 314 q 382 128 336 188 q 514 69 428 69 q 693 157 633 69 q 778 425 753 244 l 847 942 l 747 958 l 754 1032 l 894 1032 q 1003 1074 972 1032 q 1033 1178 1033 1115 q 1032 1201 1033 1196 l 1199 1201 q 1201 1171 1201 1179 q 1151 1016 1204 1069 q 971 942 1097 963 l 904 425 q 769 88 875 190 q 472 -14 664 -14 q 196 69 285 -14 q 107 290 107 153 q 111 403 107 363 l 181 942 l 83 957 l 92 1032 m 581 1115 q 564 1147 572 1125 q 557 1185 556 1168 q 570 1208 560 1199 q 599 1231 581 1218 q 631 1255 619 1243 q 649 1285 643 1267 l 649 1289 q 588 1339 649 1339 l 578 1339 q 549 1336 557 1339 l 569 1467 q 590 1471 572 1468 q 622 1474 608 1474 q 759 1441 708 1474 q 810 1344 810 1408 q 806 1308 810 1328 q 778 1254 800 1276 q 731 1216 756 1232 q 696 1192 706 1200 q 672 1165 679 1179 q 667 1124 665 1150 l 581 1115 z "},"Ữ":{"ha":1096,"x_min":83,"x_max":1201,"o":"m 92 1032 l 556 1032 l 550 958 l 415 942 l 347 422 q 336 286 336 314 q 382 128 336 188 q 514 69 428 69 q 693 157 633 69 q 778 425 753 244 l 847 942 l 747 958 l 754 1032 l 894 1032 q 1003 1074 972 1032 q 1033 1178 1033 1115 q 1032 1201 1033 1196 l 1199 1201 q 1201 1171 1201 1179 q 1151 1016 1204 1069 q 971 942 1097 963 l 904 425 q 769 88 875 190 q 472 -14 664 -14 q 196 69 285 -14 q 107 290 107 153 q 111 403 107 363 l 181 942 l 83 957 l 92 1032 m 388 1232 q 451 1313 404 1279 q 560 1347 499 1347 q 624 1332 599 1347 q 678 1288 649 1317 q 714 1256 699 1267 q 749 1246 729 1246 q 853 1314 803 1246 l 907 1239 q 840 1153 888 1190 q 736 1115 792 1115 q 667 1130 693 1115 q 613 1172 642 1144 q 573 1206 590 1196 q 529 1217 556 1217 q 479 1202 501 1217 q 432 1161 457 1188 l 388 1232 z "},"Ű":{"ha":992,"x_min":83,"x_max":1068,"o":"m 904 425 q 769 88 875 190 q 472 -14 664 -14 q 196 69 285 -14 q 107 290 107 153 q 111 403 107 363 l 181 942 l 83 957 l 92 1032 l 556 1032 l 550 958 l 415 942 l 347 422 q 336 286 336 314 q 382 128 336 188 q 514 69 428 69 q 693 157 633 69 q 778 425 753 244 l 847 942 l 747 958 l 754 1032 l 1068 1032 l 1058 958 l 971 942 l 904 425 m 510 1365 l 633 1304 q 529 1180 608 1247 q 389 1093 450 1113 l 324 1143 l 510 1365 m 860 1365 l 982 1303 q 872 1176 946 1242 q 738 1093 797 1111 l 676 1143 l 860 1365 z "},"Ū":{"ha":992,"x_min":83,"x_max":1068,"o":"m 904 425 q 769 88 875 190 q 472 -14 664 -14 q 196 69 285 -14 q 107 290 107 153 q 111 403 107 363 l 181 942 l 83 957 l 92 1032 l 556 1032 l 550 958 l 415 942 l 347 422 q 336 286 336 314 q 382 128 336 188 q 514 69 428 69 q 693 157 633 69 q 778 425 753 244 l 847 942 l 747 958 l 754 1032 l 1068 1032 l 1058 958 l 971 942 l 904 425 m 850 1299 l 836 1158 l 450 1158 l 463 1299 l 850 1299 z "},"Ų":{"ha":992,"x_min":83,"x_max":1068,"o":"m 904 425 q 816 147 882 247 q 638 10 750 46 q 569 -70 596 -31 q 543 -139 543 -110 q 556 -181 543 -167 q 589 -194 568 -194 q 639 -182 615 -194 q 692 -144 663 -169 l 717 -221 q 615 -295 675 -267 q 485 -324 554 -324 q 388 -292 421 -324 q 356 -207 356 -261 q 362 -168 356 -190 q 379 -131 368 -146 q 481 -14 417 -68 l 472 -14 q 196 69 285 -14 q 107 290 107 153 q 111 403 107 363 l 181 942 l 83 957 l 92 1032 l 556 1032 l 550 958 l 415 942 l 347 422 q 336 286 336 314 q 382 128 336 188 q 514 69 428 69 q 693 157 633 69 q 778 425 753 244 l 847 942 l 747 958 l 754 1032 l 1068 1032 l 1058 958 l 971 942 l 904 425 z "},"Ů":{"ha":992,"x_min":83,"x_max":1068,"o":"m 904 425 q 769 88 875 190 q 472 -14 664 -14 q 196 69 285 -14 q 107 290 107 153 q 111 403 107 363 l 181 942 l 83 957 l 92 1032 l 556 1032 l 550 958 l 415 942 l 347 422 q 336 286 336 314 q 382 128 336 188 q 514 69 428 69 q 693 157 633 69 q 778 425 753 244 l 847 942 l 747 958 l 754 1032 l 1068 1032 l 1058 958 l 971 942 l 904 425 m 626 1047 q 468 1085 532 1047 q 404 1194 404 1122 q 488 1325 404 1285 q 671 1365 571 1365 q 819 1331 757 1365 q 882 1231 882 1296 q 807 1091 882 1135 q 626 1047 732 1047 m 633 1140 q 720 1155 686 1140 q 754 1218 754 1169 q 725 1261 754 1247 q 654 1275 696 1275 q 533 1204 533 1275 q 564 1157 533 1174 q 633 1140 594 1140 z "},"Ũ":{"ha":992,"x_min":83,"x_max":1068,"o":"m 904 425 q 769 88 875 190 q 472 -14 664 -14 q 196 69 285 -14 q 107 290 107 153 q 111 403 107 363 l 181 942 l 83 957 l 92 1032 l 556 1032 l 550 958 l 415 942 l 347 422 q 336 286 336 314 q 382 128 336 188 q 514 69 428 69 q 693 157 633 69 q 778 425 753 244 l 847 942 l 747 958 l 754 1032 l 1068 1032 l 1058 958 l 971 942 l 904 425 m 388 1232 q 451 1313 404 1279 q 560 1347 499 1347 q 624 1332 599 1347 q 678 1288 649 1317 q 714 1256 699 1267 q 749 1246 729 1246 q 853 1314 803 1246 l 907 1239 q 840 1153 888 1190 q 736 1115 792 1115 q 667 1130 693 1115 q 613 1172 642 1144 q 573 1206 590 1196 q 529 1217 556 1217 q 479 1202 501 1217 q 432 1161 457 1188 l 388 1232 z "},"V":{"ha":843,"x_min":-15,"x_max":993,"o":"m 442 1032 l 435 957 l 324 942 l 397 344 l 410 190 l 471 344 l 744 942 l 624 957 l 631 1032 l 993 1032 l 981 957 l 878 942 l 433 -7 l 233 -7 l 79 942 l -15 958 l -6 1032 l 442 1032 z "},"W":{"ha":1322,"x_min":-14,"x_max":1514,"o":"m 419 1032 l 414 957 l 321 939 l 385 344 l 401 201 l 456 343 l 663 843 l 653 940 l 546 958 l 553 1032 l 993 1032 l 988 957 l 885 940 l 943 344 l 947 201 l 1006 343 l 1261 940 l 1108 957 l 1115 1032 l 1514 1032 l 1507 958 l 1400 942 l 957 -7 l 750 -7 l 689 629 l 425 -7 l 219 -7 l 79 940 l -14 958 l -4 1032 l 419 1032 z "},"Ẃ":{"ha":1322,"x_min":-14,"x_max":1514,"o":"m 419 1032 l 414 957 l 321 939 l 385 344 l 401 201 l 456 343 l 663 843 l 653 940 l 546 958 l 553 1032 l 993 1032 l 988 957 l 885 940 l 943 344 l 947 201 l 1006 343 l 1261 940 l 1108 957 l 1115 1032 l 1514 1032 l 1507 958 l 1400 942 l 957 -7 l 750 -7 l 689 629 l 425 -7 l 219 -7 l 79 940 l -14 958 l -4 1032 l 419 1032 m 935 1365 l 1057 1268 q 938 1171 1025 1228 q 806 1101 851 1114 l 719 1160 l 935 1365 z "},"Ŵ":{"ha":1322,"x_min":-14,"x_max":1514,"o":"m 419 1032 l 414 957 l 321 939 l 385 344 l 401 201 l 456 343 l 663 843 l 653 940 l 546 958 l 553 1032 l 993 1032 l 988 957 l 885 940 l 943 344 l 947 201 l 1006 343 l 1261 940 l 1108 957 l 1115 1032 l 1514 1032 l 1507 958 l 1400 942 l 957 -7 l 750 -7 l 689 629 l 425 -7 l 219 -7 l 79 940 l -14 958 l -4 1032 l 419 1032 m 781 1365 l 901 1365 l 1043 1124 l 961 1085 l 824 1226 l 604 1085 l 533 1124 l 781 1365 z "},"Ẅ":{"ha":1322,"x_min":-14,"x_max":1514,"o":"m 419 1032 l 414 957 l 321 939 l 385 344 l 401 201 l 456 343 l 663 843 l 653 940 l 546 958 l 553 1032 l 993 1032 l 988 957 l 885 940 l 943 344 l 947 201 l 1006 343 l 1261 940 l 1108 957 l 1115 1032 l 1514 1032 l 1507 958 l 1400 942 l 957 -7 l 750 -7 l 689 629 l 425 -7 l 219 -7 l 79 940 l -14 958 l -4 1032 l 419 1032 m 647 1128 q 582 1156 608 1128 q 556 1224 556 1183 q 586 1313 556 1281 q 669 1344 617 1344 q 740 1319 715 1344 q 765 1253 765 1293 q 735 1161 765 1194 q 647 1128 706 1128 m 979 1128 q 914 1156 940 1128 q 888 1224 888 1183 q 918 1313 888 1281 q 1001 1344 949 1344 q 1071 1319 1046 1344 q 1096 1253 1096 1293 q 1067 1161 1096 1194 q 979 1128 1038 1128 z "},"Ẁ":{"ha":1322,"x_min":-14,"x_max":1514,"o":"m 419 1032 l 414 957 l 321 939 l 385 344 l 401 201 l 456 343 l 663 843 l 653 940 l 546 958 l 553 1032 l 993 1032 l 988 957 l 885 940 l 943 344 l 947 201 l 1006 343 l 1261 940 l 1108 957 l 1115 1032 l 1514 1032 l 1507 958 l 1400 942 l 957 -7 l 750 -7 l 689 629 l 425 -7 l 219 -7 l 79 940 l -14 958 l -4 1032 l 419 1032 m 835 1100 q 714 1165 783 1113 q 611 1271 644 1217 l 728 1356 l 917 1153 l 835 1100 z "},"X":{"ha":935,"x_min":-51,"x_max":1014,"o":"m 536 1032 l 531 958 l 431 942 l 544 639 l 750 942 l 658 957 l 663 1032 l 1014 1032 l 1008 957 l 915 942 l 594 539 l 819 90 l 906 71 l 899 0 l 433 0 l 439 71 l 539 90 l 418 397 l 207 90 l 310 71 l 303 0 l -51 0 l -43 71 l 33 90 l 371 503 l 165 940 l 83 957 l 90 1032 l 536 1032 z "},"Y":{"ha":879,"x_min":15,"x_max":1013,"o":"m 496 1032 l 485 957 l 368 942 l 479 614 l 511 514 l 554 596 l 758 942 l 647 957 l 654 1032 l 1013 1032 l 1003 957 l 914 942 l 565 410 l 524 90 l 689 71 l 682 0 l 125 0 l 133 71 l 290 90 l 329 410 l 103 942 l 15 957 l 22 1032 l 496 1032 z "},"Ý":{"ha":879,"x_min":15,"x_max":1013,"o":"m 496 1032 l 485 957 l 368 942 l 479 614 l 511 514 l 554 596 l 758 942 l 647 957 l 654 1032 l 1013 1032 l 1003 957 l 914 942 l 565 410 l 524 90 l 689 71 l 682 0 l 125 0 l 133 71 l 290 90 l 329 410 l 103 942 l 15 957 l 22 1032 l 496 1032 m 718 1365 l 840 1268 q 722 1171 808 1228 q 589 1101 635 1114 l 503 1160 l 718 1365 z "},"Ŷ":{"ha":879,"x_min":15,"x_max":1013,"o":"m 496 1032 l 485 957 l 368 942 l 479 614 l 511 514 l 554 596 l 758 942 l 647 957 l 654 1032 l 1013 1032 l 1003 957 l 914 942 l 565 410 l 524 90 l 689 71 l 682 0 l 125 0 l 133 71 l 290 90 l 329 410 l 103 942 l 15 957 l 22 1032 l 496 1032 m 564 1365 l 685 1365 l 826 1124 l 744 1085 l 607 1226 l 388 1085 l 317 1124 l 564 1365 z "},"Ÿ":{"ha":879,"x_min":15,"x_max":1013,"o":"m 496 1032 l 485 957 l 368 942 l 479 614 l 511 514 l 554 596 l 758 942 l 647 957 l 654 1032 l 1013 1032 l 1003 957 l 914 942 l 565 410 l 524 90 l 689 71 l 682 0 l 125 0 l 133 71 l 290 90 l 329 410 l 103 942 l 15 957 l 22 1032 l 496 1032 m 431 1128 q 365 1156 392 1128 q 339 1224 339 1183 q 369 1313 339 1281 q 453 1344 400 1344 q 524 1319 499 1344 q 549 1253 549 1293 q 519 1161 549 1194 q 431 1128 489 1128 m 763 1128 q 697 1156 724 1128 q 671 1224 671 1183 q 701 1313 671 1281 q 785 1344 732 1344 q 854 1319 829 1344 q 879 1253 879 1293 q 850 1161 879 1194 q 763 1128 821 1128 z "},"Ẏ":{"ha":879,"x_min":15,"x_max":1013,"o":"m 496 1032 l 485 957 l 368 942 l 479 614 l 511 514 l 554 596 l 758 942 l 647 957 l 654 1032 l 1013 1032 l 1003 957 l 914 942 l 565 410 l 524 90 l 689 71 l 682 0 l 125 0 l 133 71 l 290 90 l 329 410 l 103 942 l 15 957 l 22 1032 l 496 1032 m 592 1115 q 517 1147 551 1115 q 482 1218 482 1179 q 519 1309 482 1272 q 615 1346 557 1346 q 697 1316 664 1346 q 731 1247 731 1286 q 694 1153 731 1190 q 592 1115 657 1115 z "},"Ỵ":{"ha":879,"x_min":15,"x_max":1013,"o":"m 496 1032 l 485 957 l 368 942 l 479 614 l 511 514 l 554 596 l 758 942 l 647 957 l 654 1032 l 1013 1032 l 1003 957 l 914 942 l 565 410 l 524 90 l 689 71 l 682 0 l 125 0 l 133 71 l 290 90 l 329 410 l 103 942 l 15 957 l 22 1032 l 496 1032 m 339 -337 q 263 -306 290 -337 q 235 -224 235 -275 q 274 -127 235 -165 q 374 -89 313 -89 q 453 -118 426 -89 q 481 -197 481 -147 q 444 -297 481 -257 q 339 -337 407 -337 z "},"Ỳ":{"ha":879,"x_min":15,"x_max":1013,"o":"m 496 1032 l 485 957 l 368 942 l 479 614 l 511 514 l 554 596 l 758 942 l 647 957 l 654 1032 l 1013 1032 l 1003 957 l 914 942 l 565 410 l 524 90 l 689 71 l 682 0 l 125 0 l 133 71 l 290 90 l 329 410 l 103 942 l 15 957 l 22 1032 l 496 1032 m 618 1100 q 497 1165 567 1113 q 394 1271 428 1217 l 511 1356 l 700 1153 l 618 1100 z "},"Ỷ":{"ha":879,"x_min":15,"x_max":1013,"o":"m 496 1032 l 485 957 l 368 942 l 479 614 l 511 514 l 554 596 l 758 942 l 647 957 l 654 1032 l 1013 1032 l 1003 957 l 914 942 l 565 410 l 524 90 l 689 71 l 682 0 l 125 0 l 133 71 l 290 90 l 329 410 l 103 942 l 15 957 l 22 1032 l 496 1032 m 536 1082 q 528 1097 532 1086 q 524 1119 524 1108 q 532 1147 524 1138 q 575 1183 543 1165 q 604 1205 596 1197 q 613 1226 613 1213 q 599 1258 613 1247 q 551 1268 585 1268 q 513 1265 518 1268 l 524 1358 q 545 1363 528 1360 q 576 1365 563 1365 q 721 1342 679 1365 q 763 1257 763 1318 q 674 1156 763 1215 q 628 1082 625 1124 l 536 1082 z "},"Ỹ":{"ha":879,"x_min":15,"x_max":1013,"o":"m 496 1032 l 485 957 l 368 942 l 479 614 l 511 514 l 554 596 l 758 942 l 647 957 l 654 1032 l 1013 1032 l 1003 957 l 914 942 l 565 410 l 524 90 l 689 71 l 682 0 l 125 0 l 133 71 l 290 90 l 329 410 l 103 942 l 15 957 l 22 1032 l 496 1032 m 344 1232 q 408 1313 361 1279 q 517 1347 456 1347 q 581 1332 556 1347 q 635 1288 606 1317 q 671 1256 656 1267 q 706 1246 686 1246 q 810 1314 760 1246 l 864 1239 q 797 1153 844 1190 q 693 1115 749 1115 q 624 1130 650 1115 q 569 1172 599 1144 q 530 1206 547 1196 q 486 1217 513 1217 q 436 1202 458 1217 q 389 1161 414 1188 l 344 1232 z "},"Z":{"ha":832,"x_min":-36,"x_max":883,"o":"m 863 1032 l 883 974 l 306 161 l 229 92 l 563 107 l 694 325 l 811 293 l 743 0 l -12 0 l -36 60 l 549 878 l 632 947 l 328 935 l 232 751 l 115 767 l 158 1032 l 863 1032 z "},"Ź":{"ha":832,"x_min":-36,"x_max":883,"o":"m 863 1032 l 883 974 l 306 161 l 229 92 l 563 107 l 694 325 l 811 293 l 743 0 l -12 0 l -36 60 l 549 878 l 632 947 l 328 935 l 232 751 l 115 767 l 158 1032 l 863 1032 m 636 1369 l 758 1272 q 640 1175 726 1232 q 507 1106 553 1118 l 421 1164 l 636 1369 z "},"Ž":{"ha":832,"x_min":-36,"x_max":883,"o":"m 863 1032 l 883 974 l 306 161 l 229 92 l 563 107 l 694 325 l 811 293 l 743 0 l -12 0 l -36 60 l 549 878 l 632 947 l 328 935 l 232 751 l 115 767 l 158 1032 l 863 1032 m 392 1369 l 526 1235 l 733 1369 l 806 1332 l 564 1099 l 451 1099 l 310 1331 l 392 1369 z "},"Ż":{"ha":832,"x_min":-36,"x_max":883,"o":"m 863 1032 l 883 974 l 306 161 l 229 92 l 563 107 l 694 325 l 811 293 l 743 0 l -12 0 l -36 60 l 549 878 l 632 947 l 328 935 l 232 751 l 115 767 l 158 1032 l 863 1032 m 510 1119 q 435 1151 469 1119 q 400 1222 400 1183 q 438 1313 400 1276 q 533 1350 475 1350 q 615 1320 582 1350 q 649 1251 649 1290 q 612 1157 649 1194 q 510 1119 575 1119 z "},"Ẓ":{"ha":832,"x_min":-36,"x_max":883,"o":"m 863 1032 l 883 974 l 306 161 l 229 92 l 563 107 l 694 325 l 811 293 l 743 0 l -12 0 l -36 60 l 549 878 l 632 947 l 328 935 l 232 751 l 115 767 l 158 1032 l 863 1032 m 315 -337 q 239 -306 267 -337 q 211 -224 211 -275 q 250 -127 211 -165 q 350 -89 289 -89 q 430 -118 403 -89 q 457 -197 457 -147 q 420 -297 457 -257 q 315 -337 383 -337 z "},"a":{"ha":822,"x_min":40,"x_max":789,"o":"m 682 153 q 681 135 681 146 q 708 101 681 101 q 769 132 732 101 l 789 85 q 719 20 769 54 q 601 -14 669 -14 q 521 7 551 -14 q 488 67 490 28 l 488 75 q 281 -14 401 -14 q 100 67 160 -14 q 40 272 40 147 q 94 526 40 407 q 253 717 147 644 q 506 789 358 789 q 587 780 542 789 q 665 760 632 771 l 769 789 l 682 153 m 538 690 q 490 696 507 696 q 363 633 413 696 q 293 476 314 571 q 272 281 272 382 q 299 150 272 197 q 374 103 326 103 q 463 144 418 103 l 538 690 z "},"á":{"ha":822,"x_min":40,"x_max":789,"o":"m 682 153 q 681 135 681 146 q 708 101 681 101 q 769 132 732 101 l 789 85 q 719 20 769 54 q 601 -14 669 -14 q 521 7 551 -14 q 488 67 490 28 l 488 75 q 281 -14 401 -14 q 100 67 160 -14 q 40 272 40 147 q 94 526 40 407 q 253 717 147 644 q 506 789 358 789 q 587 780 542 789 q 665 760 632 771 l 769 789 l 682 153 m 538 690 q 490 696 507 696 q 363 633 413 696 q 293 476 314 571 q 272 281 272 382 q 299 150 272 197 q 374 103 326 103 q 463 144 418 103 l 538 690 m 640 1228 l 769 1103 q 702 1032 757 1081 q 584 938 647 983 q 482 876 521 892 l 421 936 l 640 1228 z "},"ă":{"ha":822,"x_min":40,"x_max":789,"o":"m 682 153 q 681 135 681 146 q 708 101 681 101 q 769 132 732 101 l 789 85 q 719 20 769 54 q 601 -14 669 -14 q 521 7 551 -14 q 488 67 490 28 l 488 75 q 281 -14 401 -14 q 100 67 160 -14 q 40 272 40 147 q 94 526 40 407 q 253 717 147 644 q 506 789 358 789 q 587 780 542 789 q 665 760 632 771 l 769 789 l 682 153 m 538 690 q 490 696 507 696 q 363 633 413 696 q 293 476 314 571 q 272 281 272 382 q 299 150 272 197 q 374 103 326 103 q 463 144 418 103 l 538 690 m 522 886 q 406 917 454 886 q 335 996 358 947 q 311 1099 311 1044 q 314 1143 311 1115 l 438 1143 l 438 1114 q 461 1056 438 1079 q 533 1032 485 1032 q 615 1061 596 1032 q 638 1143 635 1090 l 760 1143 l 760 1119 q 733 1009 758 1063 q 655 921 708 956 q 522 886 601 886 z "},"ắ":{"ha":822,"x_min":40,"x_max":789,"o":"m 682 153 q 681 135 681 146 q 708 101 681 101 q 769 132 732 101 l 789 85 q 719 20 769 54 q 601 -14 669 -14 q 521 7 551 -14 q 488 67 490 28 l 488 75 q 281 -14 401 -14 q 100 67 160 -14 q 40 272 40 147 q 94 526 40 407 q 253 717 147 644 q 506 789 358 789 q 587 780 542 789 q 665 760 632 771 l 769 789 l 682 153 m 538 690 q 490 696 507 696 q 363 633 413 696 q 293 476 314 571 q 272 281 272 382 q 299 150 272 197 q 374 103 326 103 q 463 144 418 103 l 538 690 m 451 1181 l 618 1364 l 719 1264 q 630 1182 693 1232 q 526 1113 567 1132 l 451 1181 m 511 885 q 367 925 424 885 q 310 1040 310 965 q 311 1067 310 1057 q 324 1121 315 1094 l 432 1121 q 425 1090 429 1115 l 424 1079 q 453 1034 424 1049 q 533 1019 482 1019 q 625 1036 593 1019 q 663 1088 657 1053 l 665 1121 l 774 1119 q 769 1068 774 1097 q 681 933 757 981 q 511 885 604 885 z "},"ặ":{"ha":822,"x_min":40,"x_max":789,"o":"m 682 153 q 681 135 681 146 q 708 101 681 101 q 769 132 732 101 l 789 85 q 719 20 769 54 q 601 -14 669 -14 q 521 7 551 -14 q 488 67 490 28 l 488 75 q 281 -14 401 -14 q 100 67 160 -14 q 40 272 40 147 q 94 526 40 407 q 253 717 147 644 q 506 789 358 789 q 587 780 542 789 q 665 760 632 771 l 769 789 l 682 153 m 538 690 q 490 696 507 696 q 363 633 413 696 q 293 476 314 571 q 272 281 272 382 q 299 150 272 197 q 374 103 326 103 q 463 144 418 103 l 538 690 m 333 -337 q 257 -306 285 -337 q 229 -224 229 -275 q 268 -127 229 -165 q 368 -89 307 -89 q 448 -118 421 -89 q 475 -197 475 -147 q 438 -297 475 -257 q 333 -337 401 -337 m 522 886 q 406 917 454 886 q 335 996 358 947 q 311 1099 311 1044 q 314 1143 311 1115 l 438 1143 l 438 1114 q 461 1056 438 1079 q 533 1032 485 1032 q 615 1061 596 1032 q 638 1143 635 1090 l 760 1143 l 760 1119 q 733 1009 758 1063 q 655 921 708 956 q 522 886 601 886 z "},"ằ":{"ha":822,"x_min":40,"x_max":789,"o":"m 682 153 q 681 135 681 146 q 708 101 681 101 q 769 132 732 101 l 789 85 q 719 20 769 54 q 601 -14 669 -14 q 521 7 551 -14 q 488 67 490 28 l 488 75 q 281 -14 401 -14 q 100 67 160 -14 q 40 272 40 147 q 94 526 40 407 q 253 717 147 644 q 506 789 358 789 q 587 780 542 789 q 665 760 632 771 l 769 789 l 682 153 m 538 690 q 490 696 507 696 q 363 633 413 696 q 293 476 314 571 q 272 281 272 382 q 299 150 272 197 q 374 103 326 103 q 463 144 418 103 l 538 690 m 561 1113 q 481 1182 528 1132 q 415 1264 433 1232 l 550 1364 l 657 1181 l 561 1113 m 511 885 q 367 925 424 885 q 310 1040 310 965 q 311 1067 310 1057 q 324 1121 315 1094 l 432 1121 q 425 1090 429 1115 l 424 1079 q 453 1034 424 1049 q 533 1019 482 1019 q 625 1036 593 1019 q 663 1088 657 1053 l 665 1121 l 774 1119 q 769 1068 774 1097 q 681 933 757 981 q 511 885 604 885 z "},"ẳ":{"ha":822,"x_min":40,"x_max":789,"o":"m 682 153 q 681 135 681 146 q 708 101 681 101 q 769 132 732 101 l 789 85 q 719 20 769 54 q 601 -14 669 -14 q 521 7 551 -14 q 488 67 490 28 l 488 75 q 281 -14 401 -14 q 100 67 160 -14 q 40 272 40 147 q 94 526 40 407 q 253 717 147 644 q 506 789 358 789 q 587 780 542 789 q 665 760 632 771 l 769 789 l 682 153 m 538 690 q 490 696 507 696 q 363 633 413 696 q 293 476 314 571 q 272 281 272 382 q 299 150 272 197 q 374 103 326 103 q 463 144 418 103 l 538 690 m 511 1067 q 498 1093 504 1075 q 493 1126 492 1111 q 507 1158 496 1146 q 540 1183 518 1169 q 569 1206 560 1196 q 578 1231 578 1215 q 563 1254 578 1246 q 513 1264 549 1263 q 478 1260 499 1264 q 454 1254 458 1257 l 472 1358 q 502 1362 474 1360 q 547 1364 531 1364 q 707 1261 707 1364 q 706 1239 707 1247 q 679 1186 701 1210 q 613 1136 657 1163 q 582 1068 578 1114 l 511 1067 m 513 885 q 368 925 425 885 q 311 1040 311 965 q 313 1067 311 1057 q 325 1121 317 1094 l 433 1121 q 426 1090 431 1115 l 425 1079 q 454 1034 425 1049 q 535 1019 483 1019 q 626 1036 594 1019 q 664 1088 658 1053 l 667 1121 l 775 1119 q 771 1068 775 1097 q 682 933 758 981 q 513 885 606 885 z "},"ẵ":{"ha":822,"x_min":40,"x_max":794,"o":"m 682 153 q 681 135 681 146 q 708 101 681 101 q 769 132 732 101 l 789 85 q 719 20 769 54 q 601 -14 669 -14 q 521 7 551 -14 q 488 67 490 28 l 488 75 q 281 -14 401 -14 q 100 67 160 -14 q 40 272 40 147 q 94 526 40 407 q 253 717 147 644 q 506 789 358 789 q 587 780 542 789 q 665 760 632 771 l 769 789 l 682 153 m 538 690 q 490 696 507 696 q 363 633 413 696 q 293 476 314 571 q 272 281 272 382 q 299 150 272 197 q 374 103 326 103 q 463 144 418 103 l 538 690 m 343 1232 q 414 1326 369 1289 q 515 1363 458 1363 q 565 1352 544 1363 q 607 1322 585 1342 q 640 1299 628 1307 q 671 1292 653 1292 q 706 1301 694 1292 q 736 1333 718 1310 l 794 1300 q 628 1171 733 1171 q 581 1181 600 1171 q 536 1210 561 1190 q 501 1234 515 1226 q 469 1242 488 1242 q 433 1233 446 1242 q 399 1200 421 1224 l 343 1232 m 511 885 q 367 925 424 885 q 310 1040 310 965 q 311 1067 310 1057 q 324 1121 315 1094 l 432 1121 q 425 1090 429 1115 l 424 1079 q 453 1034 424 1049 q 533 1019 482 1019 q 625 1036 593 1019 q 663 1088 657 1053 l 665 1121 l 774 1119 q 769 1068 774 1097 q 681 933 757 981 q 511 885 604 885 z "},"ǎ":{"ha":822,"x_min":40,"x_max":831,"o":"m 682 153 q 681 135 681 146 q 708 101 681 101 q 769 132 732 101 l 789 85 q 719 20 769 54 q 601 -14 669 -14 q 521 7 551 -14 q 488 67 490 28 l 488 75 q 281 -14 401 -14 q 100 67 160 -14 q 40 272 40 147 q 94 526 40 407 q 253 717 147 644 q 506 789 358 789 q 587 780 542 789 q 665 760 632 771 l 769 789 l 682 153 m 538 690 q 490 696 507 696 q 363 633 413 696 q 293 476 314 571 q 272 281 272 382 q 299 150 272 197 q 374 103 326 103 q 463 144 418 103 l 538 690 m 403 1167 l 540 1024 l 760 1167 l 831 1129 l 582 875 l 463 875 l 319 1129 l 403 1167 z "},"â":{"ha":822,"x_min":40,"x_max":789,"o":"m 682 153 q 681 135 681 146 q 708 101 681 101 q 769 132 732 101 l 789 85 q 719 20 769 54 q 601 -14 669 -14 q 521 7 551 -14 q 488 67 490 28 l 488 75 q 281 -14 401 -14 q 100 67 160 -14 q 40 272 40 147 q 94 526 40 407 q 253 717 147 644 q 506 789 358 789 q 587 780 542 789 q 665 760 632 771 l 769 789 l 682 153 m 538 690 q 490 696 507 696 q 363 633 413 696 q 293 476 314 571 q 272 281 272 382 q 299 150 272 197 q 374 103 326 103 q 463 144 418 103 l 538 690 m 521 1196 l 621 1189 l 761 906 l 675 871 l 536 1026 l 324 868 l 258 913 l 521 1196 z "},"ấ":{"ha":822,"x_min":40,"x_max":1035,"o":"m 682 153 q 681 135 681 146 q 708 101 681 101 q 769 132 732 101 l 789 85 q 719 20 769 54 q 601 -14 669 -14 q 521 7 551 -14 q 488 67 490 28 l 488 75 q 281 -14 401 -14 q 100 67 160 -14 q 40 272 40 147 q 94 526 40 407 q 253 717 147 644 q 506 789 358 789 q 587 780 542 789 q 665 760 632 771 l 769 789 l 682 153 m 538 690 q 490 696 507 696 q 363 633 413 696 q 293 476 314 571 q 272 281 272 382 q 299 150 272 197 q 374 103 326 103 q 463 144 418 103 l 538 690 m 725 1151 l 933 1364 l 1035 1264 q 920 1160 999 1219 q 788 1082 842 1100 l 725 1151 m 621 1139 l 790 921 l 696 863 l 538 992 l 332 863 l 267 918 l 503 1139 l 621 1139 z "},"ậ":{"ha":822,"x_min":40,"x_max":789,"o":"m 682 153 q 681 135 681 146 q 708 101 681 101 q 769 132 732 101 l 789 85 q 719 20 769 54 q 601 -14 669 -14 q 521 7 551 -14 q 488 67 490 28 l 488 75 q 281 -14 401 -14 q 100 67 160 -14 q 40 272 40 147 q 94 526 40 407 q 253 717 147 644 q 506 789 358 789 q 587 780 542 789 q 665 760 632 771 l 769 789 l 682 153 m 538 690 q 490 696 507 696 q 363 633 413 696 q 293 476 314 571 q 272 281 272 382 q 299 150 272 197 q 374 103 326 103 q 463 144 418 103 l 538 690 m 333 -337 q 257 -306 285 -337 q 229 -224 229 -275 q 268 -127 229 -165 q 368 -89 307 -89 q 448 -118 421 -89 q 475 -197 475 -147 q 438 -297 475 -257 q 333 -337 401 -337 m 521 1196 l 621 1189 l 761 906 l 675 871 l 536 1026 l 324 868 l 258 913 l 521 1196 z "},"ầ":{"ha":822,"x_min":40,"x_max":939,"o":"m 682 153 q 681 135 681 146 q 708 101 681 101 q 769 132 732 101 l 789 85 q 719 20 769 54 q 601 -14 669 -14 q 521 7 551 -14 q 488 67 490 28 l 488 75 q 281 -14 401 -14 q 100 67 160 -14 q 40 272 40 147 q 94 526 40 407 q 253 717 147 644 q 506 789 358 789 q 587 780 542 789 q 665 760 632 771 l 769 789 l 682 153 m 538 690 q 490 696 507 696 q 363 633 413 696 q 293 476 314 571 q 272 281 272 382 q 299 150 272 197 q 374 103 326 103 q 463 144 418 103 l 538 690 m 853 1083 q 745 1160 804 1101 q 663 1264 686 1218 l 797 1364 l 939 1153 l 853 1083 m 617 1139 l 786 921 l 692 863 l 533 992 l 328 863 l 263 918 l 499 1139 l 617 1139 z "},"ẩ":{"ha":822,"x_min":40,"x_max":989,"o":"m 682 153 q 681 135 681 146 q 708 101 681 101 q 769 132 732 101 l 789 85 q 719 20 769 54 q 601 -14 669 -14 q 521 7 551 -14 q 488 67 490 28 l 488 75 q 281 -14 401 -14 q 100 67 160 -14 q 40 272 40 147 q 94 526 40 407 q 253 717 147 644 q 506 789 358 789 q 587 780 542 789 q 665 760 632 771 l 769 789 l 682 153 m 538 690 q 490 696 507 696 q 363 633 413 696 q 293 476 314 571 q 272 281 272 382 q 299 150 272 197 q 374 103 326 103 q 463 144 418 103 l 538 690 m 793 1022 q 780 1049 786 1032 q 775 1079 774 1067 q 786 1099 778 1092 q 811 1118 794 1107 q 840 1138 829 1129 q 856 1163 850 1147 l 856 1165 q 807 1207 858 1207 q 774 1204 779 1207 l 794 1313 q 815 1316 801 1314 q 839 1318 828 1318 q 949 1292 908 1318 q 989 1217 989 1267 q 985 1182 989 1201 q 960 1138 979 1156 q 922 1106 942 1119 q 892 1085 901 1092 q 872 1061 878 1072 q 867 1029 865 1050 l 793 1022 m 615 1139 l 785 921 l 690 863 l 532 992 l 326 863 l 261 918 l 497 1139 l 615 1139 z "},"ẫ":{"ha":822,"x_min":40,"x_max":799,"o":"m 682 153 q 681 135 681 146 q 708 101 681 101 q 769 132 732 101 l 789 85 q 719 20 769 54 q 601 -14 669 -14 q 521 7 551 -14 q 488 67 490 28 l 488 75 q 281 -14 401 -14 q 100 67 160 -14 q 40 272 40 147 q 94 526 40 407 q 253 717 147 644 q 506 789 358 789 q 587 780 542 789 q 665 760 632 771 l 769 789 l 682 153 m 538 690 q 490 696 507 696 q 363 633 413 696 q 293 476 314 571 q 272 281 272 382 q 299 150 272 197 q 374 103 326 103 q 463 144 418 103 l 538 690 m 346 1233 q 417 1327 372 1290 q 518 1364 461 1364 q 567 1353 547 1364 q 610 1324 588 1343 q 643 1301 631 1308 q 674 1293 656 1293 q 709 1302 697 1293 q 739 1335 721 1311 l 799 1300 q 631 1172 735 1172 q 583 1182 603 1172 q 539 1211 564 1192 q 504 1235 518 1228 q 472 1243 490 1243 q 438 1234 450 1243 q 401 1200 425 1225 l 346 1233 m 618 1139 l 788 921 l 693 863 l 535 992 l 329 863 l 264 918 l 500 1139 l 618 1139 z "},"ä":{"ha":822,"x_min":40,"x_max":801,"o":"m 682 153 q 681 135 681 146 q 708 101 681 101 q 769 132 732 101 l 789 85 q 719 20 769 54 q 601 -14 669 -14 q 521 7 551 -14 q 488 67 490 28 l 488 75 q 281 -14 401 -14 q 100 67 160 -14 q 40 272 40 147 q 94 526 40 407 q 253 717 147 644 q 506 789 358 789 q 587 780 542 789 q 665 760 632 771 l 769 789 l 682 153 m 538 690 q 490 696 507 696 q 363 633 413 696 q 293 476 314 571 q 272 281 272 382 q 299 150 272 197 q 374 103 326 103 q 463 144 418 103 l 538 690 m 372 903 q 306 937 335 903 q 276 1013 276 971 q 308 1109 276 1071 q 394 1147 340 1147 q 467 1115 440 1147 q 494 1039 494 1082 q 464 941 494 979 q 372 903 433 903 m 679 903 q 612 937 640 903 q 583 1013 583 971 q 615 1109 583 1071 q 701 1147 646 1147 q 774 1115 746 1147 q 801 1042 801 1083 q 771 942 801 981 q 679 903 740 903 z "},"ạ":{"ha":822,"x_min":40,"x_max":789,"o":"m 682 153 q 681 135 681 146 q 708 101 681 101 q 769 132 732 101 l 789 85 q 719 20 769 54 q 601 -14 669 -14 q 521 7 551 -14 q 488 67 490 28 l 488 75 q 281 -14 401 -14 q 100 67 160 -14 q 40 272 40 147 q 94 526 40 407 q 253 717 147 644 q 506 789 358 789 q 587 780 542 789 q 665 760 632 771 l 769 789 l 682 153 m 538 690 q 490 696 507 696 q 363 633 413 696 q 293 476 314 571 q 272 281 272 382 q 299 150 272 197 q 374 103 326 103 q 463 144 418 103 l 538 690 m 333 -337 q 257 -306 285 -337 q 229 -224 229 -275 q 268 -127 229 -165 q 368 -89 307 -89 q 448 -118 421 -89 q 475 -197 475 -147 q 438 -297 475 -257 q 333 -337 401 -337 z "},"à":{"ha":822,"x_min":40,"x_max":789,"o":"m 682 153 q 681 135 681 146 q 708 101 681 101 q 769 132 732 101 l 789 85 q 719 20 769 54 q 601 -14 669 -14 q 521 7 551 -14 q 488 67 490 28 l 488 75 q 281 -14 401 -14 q 100 67 160 -14 q 40 272 40 147 q 94 526 40 407 q 253 717 147 644 q 506 789 358 789 q 587 780 542 789 q 665 760 632 771 l 769 789 l 682 153 m 538 690 q 490 696 507 696 q 363 633 413 696 q 293 476 314 571 q 272 281 272 382 q 299 150 272 197 q 374 103 326 103 q 463 144 418 103 l 538 690 m 535 888 q 450 940 506 900 q 344 1026 394 979 q 274 1108 294 1074 l 410 1228 l 606 935 l 535 888 z "},"ả":{"ha":822,"x_min":40,"x_max":789,"o":"m 682 153 q 681 135 681 146 q 708 101 681 101 q 769 132 732 101 l 789 85 q 719 20 769 54 q 601 -14 669 -14 q 521 7 551 -14 q 488 67 490 28 l 488 75 q 281 -14 401 -14 q 100 67 160 -14 q 40 272 40 147 q 94 526 40 407 q 253 717 147 644 q 506 789 358 789 q 587 780 542 789 q 665 760 632 771 l 769 789 l 682 153 m 538 690 q 490 696 507 696 q 363 633 413 696 q 293 476 314 571 q 272 281 272 382 q 299 150 272 197 q 374 103 326 103 q 463 144 418 103 l 538 690 m 463 853 q 446 884 454 863 q 439 922 438 906 q 452 946 442 936 q 481 968 463 956 q 513 992 501 981 q 531 1022 525 1004 l 531 1026 q 469 1076 531 1076 l 460 1076 q 431 1074 439 1076 l 451 1204 q 472 1208 454 1206 q 504 1211 490 1211 q 641 1178 590 1211 q 692 1082 692 1146 q 688 1046 692 1065 q 660 992 682 1014 q 613 953 638 969 q 578 929 588 938 q 554 902 561 917 q 549 861 547 888 l 463 853 z "},"ā":{"ha":822,"x_min":40,"x_max":789,"o":"m 682 153 q 681 135 681 146 q 708 101 681 101 q 769 132 732 101 l 789 85 q 719 20 769 54 q 601 -14 669 -14 q 521 7 551 -14 q 488 67 490 28 l 488 75 q 281 -14 401 -14 q 100 67 160 -14 q 40 272 40 147 q 94 526 40 407 q 253 717 147 644 q 506 789 358 789 q 587 780 542 789 q 665 760 632 771 l 769 789 l 682 153 m 538 690 q 490 696 507 696 q 363 633 413 696 q 293 476 314 571 q 272 281 272 382 q 299 150 272 197 q 374 103 326 103 q 463 144 418 103 l 538 690 m 733 1043 l 719 904 l 331 904 l 343 1043 l 733 1043 z "},"ą":{"ha":822,"x_min":40,"x_max":789,"o":"m 40 272 q 94 526 40 407 q 253 717 147 644 q 506 789 358 789 q 587 780 542 789 q 665 760 632 771 l 769 789 l 682 153 q 681 135 681 146 q 708 101 681 101 q 769 132 732 101 l 789 85 q 757 47 779 68 q 703 11 735 26 q 578 -132 578 -78 q 588 -170 576 -160 q 622 -181 600 -181 q 669 -169 647 -181 q 726 -131 690 -158 l 750 -207 q 647 -281 707 -253 q 519 -310 588 -310 q 423 -278 456 -310 q 390 -193 390 -247 q 399 -152 390 -176 q 419 -110 407 -128 q 535 -1 464 -43 q 488 67 492 21 l 488 75 q 281 -14 401 -14 q 100 67 160 -14 q 40 272 40 147 m 272 281 q 299 150 272 197 q 374 103 326 103 q 463 144 418 103 l 538 690 q 490 696 507 696 q 363 633 413 696 q 293 476 314 571 q 272 281 272 382 z "},"å":{"ha":822,"x_min":40,"x_max":789,"o":"m 682 153 q 681 135 681 146 q 708 101 681 101 q 769 132 732 101 l 789 85 q 719 20 769 54 q 601 -14 669 -14 q 521 7 551 -14 q 488 67 490 28 l 488 75 q 281 -14 401 -14 q 100 67 160 -14 q 40 272 40 147 q 94 526 40 407 q 253 717 147 644 q 506 789 358 789 q 587 780 542 789 q 665 760 632 771 l 769 789 l 682 153 m 538 690 q 490 696 507 696 q 363 633 413 696 q 293 476 314 571 q 272 281 272 382 q 299 150 272 197 q 374 103 326 103 q 463 144 418 103 l 538 690 m 522 890 q 365 933 424 890 q 307 1056 307 976 q 347 1179 307 1131 q 448 1250 388 1228 q 574 1272 508 1272 q 724 1225 664 1272 q 785 1103 785 1178 q 708 945 785 1000 q 522 890 632 890 m 536 986 q 621 1008 585 986 q 657 1083 657 1031 q 626 1150 657 1121 q 557 1179 594 1179 q 474 1151 513 1179 q 436 1071 436 1122 q 468 1011 436 1036 q 536 986 500 986 z "},"ǻ":{"ha":822,"x_min":40,"x_max":793,"o":"m 682 153 q 681 135 681 146 q 708 101 681 101 q 769 132 732 101 l 789 85 q 719 20 769 54 q 601 -14 669 -14 q 521 7 551 -14 q 488 67 490 28 l 488 75 q 281 -14 401 -14 q 100 67 160 -14 q 40 272 40 147 q 94 526 40 407 q 253 717 147 644 q 506 789 358 789 q 587 780 542 789 q 665 760 632 771 l 769 789 l 682 153 m 538 690 q 490 696 507 696 q 363 633 413 696 q 293 476 314 571 q 272 281 272 382 q 299 150 272 197 q 374 103 326 103 q 463 144 418 103 l 538 690 m 300 1043 q 360 1153 313 1117 q 490 1201 408 1189 l 618 1364 l 747 1297 l 717 1268 q 642 1203 663 1215 q 753 1151 714 1189 q 793 1063 793 1114 q 792 1040 793 1047 q 517 864 764 864 q 363 906 429 864 q 297 1018 297 947 q 300 1043 297 1026 m 435 1040 q 462 984 429 1006 q 536 963 494 963 q 622 981 588 963 q 656 1042 656 999 q 627 1093 656 1075 q 558 1111 599 1111 q 476 1094 511 1111 q 435 1040 440 1078 z "},"ã":{"ha":822,"x_min":40,"x_max":794,"o":"m 682 153 q 681 135 681 146 q 708 101 681 101 q 769 132 732 101 l 789 85 q 719 20 769 54 q 601 -14 669 -14 q 521 7 551 -14 q 488 67 490 28 l 488 75 q 281 -14 401 -14 q 100 67 160 -14 q 40 272 40 147 q 94 526 40 407 q 253 717 147 644 q 506 789 358 789 q 587 780 542 789 q 665 760 632 771 l 769 789 l 682 153 m 538 690 q 490 696 507 696 q 363 633 413 696 q 293 476 314 571 q 272 281 272 382 q 299 150 272 197 q 374 103 326 103 q 463 144 418 103 l 538 690 m 279 993 q 348 1072 301 1038 q 443 1106 394 1106 q 506 1093 482 1106 q 563 1057 531 1081 q 600 1031 585 1039 q 635 1022 615 1022 q 690 1038 669 1022 q 736 1086 710 1053 l 794 1017 q 726 933 776 971 q 624 896 675 896 q 563 908 586 896 q 513 942 539 919 q 472 971 490 961 q 428 981 454 981 q 376 967 396 981 q 329 925 357 954 l 279 993 z "},"æ":{"ha":1182,"x_min":40,"x_max":1153,"o":"m 744 744 q 931 789 833 789 q 1097 740 1042 789 q 1153 613 1153 692 q 1086 443 1153 511 q 922 343 1019 375 q 731 308 825 311 q 860 107 731 107 q 978 137 931 107 q 1063 213 1026 167 l 1104 144 q 986 36 1069 86 q 788 -14 903 -14 q 610 35 676 -14 q 517 168 543 85 q 399 40 467 93 q 253 -14 331 -14 q 88 64 136 -14 q 40 265 40 142 q 102 520 40 400 q 280 715 164 640 q 551 789 396 789 q 689 768 611 789 l 750 789 l 744 744 m 881 696 q 774 603 810 696 q 731 390 739 511 q 823 418 774 393 q 906 490 872 443 q 939 597 939 536 q 881 696 939 696 m 544 694 q 534 695 542 694 q 521 694 526 696 q 384 621 440 685 q 300 465 328 557 q 272 281 272 372 q 286 167 272 214 q 333 121 300 121 q 403 151 367 121 q 474 229 440 182 l 544 694 z "},"ǽ":{"ha":1182,"x_min":40,"x_max":1153,"o":"m 744 744 q 931 789 833 789 q 1097 740 1042 789 q 1153 613 1153 692 q 1086 443 1153 511 q 922 343 1019 375 q 731 308 825 311 q 860 107 731 107 q 978 137 931 107 q 1063 213 1026 167 l 1104 144 q 986 36 1069 86 q 788 -14 903 -14 q 610 35 676 -14 q 517 168 543 85 q 399 40 467 93 q 253 -14 331 -14 q 88 64 136 -14 q 40 265 40 142 q 102 520 40 400 q 280 715 164 640 q 551 789 396 789 q 689 768 611 789 l 750 789 l 744 744 m 881 696 q 774 603 810 696 q 731 390 739 511 q 823 418 774 393 q 906 490 872 443 q 939 597 939 536 q 881 696 939 696 m 544 694 q 534 695 542 694 q 521 694 526 696 q 384 621 440 685 q 300 465 328 557 q 272 281 272 372 q 286 167 272 214 q 333 121 300 121 q 403 151 367 121 q 474 229 440 182 l 544 694 m 828 1229 l 957 1104 q 890 1033 944 1082 q 772 939 835 985 q 669 878 708 893 l 608 938 l 828 1229 z "},"b":{"ha":815,"x_min":46,"x_max":769,"o":"m 346 717 q 536 789 432 789 q 711 713 653 789 q 769 494 769 638 q 713 237 769 353 q 552 53 657 121 q 308 -14 447 -14 q 144 15 235 -14 l 46 -14 l 174 1007 l 103 1036 l 117 1093 l 360 1119 l 396 1100 l 346 717 m 264 88 q 326 79 292 79 q 490 201 436 79 q 543 494 543 322 q 518 621 543 571 q 443 671 493 671 q 332 608 382 671 l 264 88 z "},"ḃ":{"ha":815,"x_min":46,"x_max":769,"o":"m 346 717 q 536 789 432 789 q 711 713 653 789 q 769 494 769 638 q 713 237 769 353 q 552 53 657 121 q 308 -14 447 -14 q 144 15 235 -14 l 46 -14 l 174 1007 l 103 1036 l 117 1093 l 360 1119 l 396 1100 l 346 717 m 264 88 q 326 79 292 79 q 490 201 436 79 q 543 494 543 322 q 518 621 543 571 q 443 671 493 671 q 332 608 382 671 l 264 88 m 617 907 q 541 940 574 907 q 508 1015 508 974 q 544 1113 508 1074 q 642 1153 581 1153 q 724 1120 692 1153 q 756 1047 756 1088 q 721 947 756 986 q 617 907 686 907 z "},"ḅ":{"ha":815,"x_min":46,"x_max":769,"o":"m 346 717 q 536 789 432 789 q 711 713 653 789 q 769 494 769 638 q 713 237 769 353 q 552 53 657 121 q 308 -14 447 -14 q 144 15 235 -14 l 46 -14 l 174 1007 l 103 1036 l 117 1093 l 360 1119 l 396 1100 l 346 717 m 264 88 q 326 79 292 79 q 490 201 436 79 q 543 494 543 322 q 518 621 543 571 q 443 671 493 671 q 332 608 382 671 l 264 88 m 278 -337 q 201 -306 229 -337 q 174 -224 174 -275 q 213 -127 174 -165 q 313 -89 251 -89 q 392 -118 365 -89 q 419 -197 419 -147 q 383 -297 419 -257 q 278 -337 346 -337 z "},"c":{"ha":650,"x_min":40,"x_max":650,"o":"m 546 549 q 478 646 507 608 q 429 683 449 683 q 354 638 392 683 q 292 511 317 592 q 268 332 268 431 q 297 164 268 214 q 389 114 325 114 q 490 137 449 114 q 561 200 531 160 l 604 131 q 490 31 569 76 q 303 -14 411 -14 q 110 71 179 -14 q 40 315 40 156 q 90 542 40 433 q 238 720 139 651 q 476 789 336 789 q 570 782 522 789 q 650 763 618 775 l 594 547 l 546 549 z "},"ć":{"ha":650,"x_min":40,"x_max":726,"o":"m 546 549 q 478 646 507 608 q 429 683 449 683 q 354 638 392 683 q 292 511 317 592 q 268 332 268 431 q 297 164 268 214 q 389 114 325 114 q 490 137 449 114 q 561 200 531 160 l 604 131 q 490 31 569 76 q 303 -14 411 -14 q 110 71 179 -14 q 40 315 40 156 q 90 542 40 433 q 238 720 139 651 q 476 789 336 789 q 570 782 522 789 q 650 763 618 775 l 594 547 l 546 549 m 597 1231 l 726 1106 q 659 1035 714 1083 q 541 940 604 986 q 439 879 478 894 l 378 939 l 597 1231 z "},"č":{"ha":650,"x_min":40,"x_max":788,"o":"m 546 549 q 478 646 507 608 q 429 683 449 683 q 354 638 392 683 q 292 511 317 592 q 268 332 268 431 q 297 164 268 214 q 389 114 325 114 q 490 137 449 114 q 561 200 531 160 l 604 131 q 490 31 569 76 q 303 -14 411 -14 q 110 71 179 -14 q 40 315 40 156 q 90 542 40 433 q 238 720 139 651 q 476 789 336 789 q 570 782 522 789 q 650 763 618 775 l 594 547 l 546 549 m 360 1169 l 497 1026 l 717 1169 l 788 1132 l 539 878 l 419 878 l 276 1132 l 360 1169 z "},"ç":{"ha":650,"x_min":40,"x_max":650,"o":"m 40 315 q 90 542 40 433 q 238 720 139 651 q 476 789 336 789 q 570 782 522 789 q 650 763 618 775 l 594 547 l 546 549 q 478 646 507 608 q 429 683 449 683 q 354 638 392 683 q 292 511 317 592 q 268 332 268 431 q 297 164 268 214 q 389 114 325 114 q 490 137 449 114 q 561 200 531 160 l 604 131 q 522 50 578 89 q 389 -6 465 11 q 408 -81 400 -36 q 415 -160 415 -125 q 213 -328 415 -328 q 136 -322 182 -328 q 79 -310 90 -317 l 104 -206 q 157 -217 126 -217 q 246 -191 214 -217 q 281 -103 278 -165 q 282 -75 282 -93 q 276 -12 282 -49 q 103 80 165 -4 q 40 315 40 164 z "},"ĉ":{"ha":650,"x_min":40,"x_max":718,"o":"m 546 549 q 478 646 507 608 q 429 683 449 683 q 354 638 392 683 q 292 511 317 592 q 268 332 268 431 q 297 164 268 214 q 389 114 325 114 q 490 137 449 114 q 561 200 531 160 l 604 131 q 490 31 569 76 q 303 -14 411 -14 q 110 71 179 -14 q 40 315 40 156 q 90 542 40 433 q 238 720 139 651 q 476 789 336 789 q 570 782 522 789 q 650 763 618 775 l 594 547 l 546 549 m 478 1199 l 578 1192 l 718 908 l 632 874 l 493 1029 l 281 871 l 215 915 l 478 1199 z "},"ċ":{"ha":650,"x_min":40,"x_max":650,"o":"m 546 549 q 478 646 507 608 q 429 683 449 683 q 354 638 392 683 q 292 511 317 592 q 268 332 268 431 q 297 164 268 214 q 389 114 325 114 q 490 137 449 114 q 561 200 531 160 l 604 131 q 490 31 569 76 q 303 -14 411 -14 q 110 71 179 -14 q 40 315 40 156 q 90 542 40 433 q 238 720 139 651 q 476 789 336 789 q 570 782 522 789 q 650 763 618 775 l 594 547 l 546 549 m 486 908 q 410 942 443 908 q 378 1017 378 975 q 414 1115 378 1075 q 511 1154 450 1154 q 593 1122 561 1154 q 625 1049 625 1089 q 590 948 625 988 q 486 908 556 908 z "},"d":{"ha":850,"x_min":40,"x_max":836,"o":"m 700 154 q 699 135 699 147 q 724 101 699 101 q 786 132 746 101 l 806 85 q 730 17 774 49 q 617 -14 686 -14 q 535 12 563 -14 q 500 88 507 38 l 499 100 q 408 19 465 53 q 274 -14 351 -14 q 97 66 154 -14 q 40 272 40 146 q 92 526 40 408 q 247 717 143 644 q 500 789 350 789 q 571 782 532 789 l 603 1006 l 497 1035 l 510 1090 l 800 1119 l 836 1100 l 700 154 m 556 683 q 483 696 518 696 q 319 571 369 696 q 269 281 269 446 q 295 150 269 197 q 367 103 321 103 q 430 123 400 103 q 481 175 460 143 l 556 683 z "},"ð":{"ha":808,"x_min":40,"x_max":771,"o":"m 389 1019 q 249 1108 307 1092 l 285 1215 q 381 1178 328 1203 q 483 1119 433 1153 q 545 1194 518 1160 q 581 1239 572 1228 l 658 1172 l 560 1058 q 717 822 664 958 q 771 544 771 686 q 719 256 771 383 q 568 58 667 129 q 336 -14 469 -14 q 174 34 240 -14 q 74 157 107 82 q 40 313 40 232 q 90 547 40 447 q 224 699 139 646 q 418 753 310 753 q 495 749 468 753 q 543 732 522 744 q 522 835 543 776 q 458 950 500 894 l 367 844 l 289 911 l 389 1019 m 425 663 q 337 601 372 663 q 284 449 301 540 q 267 271 267 358 q 288 127 267 183 q 356 71 308 71 q 470 158 422 71 q 532 374 518 244 q 544 500 544 486 q 519 610 544 558 q 425 663 493 663 z "},"ď":{"ha":1014,"x_min":40,"x_max":1099,"o":"m 700 154 q 699 135 699 147 q 724 101 699 101 q 786 132 746 101 l 806 85 q 730 17 774 49 q 617 -14 686 -14 q 535 12 563 -14 q 500 88 507 38 l 499 100 q 408 19 465 53 q 274 -14 351 -14 q 97 66 154 -14 q 40 272 40 146 q 92 526 40 408 q 247 717 143 644 q 500 789 350 789 q 571 782 532 789 l 603 1006 l 497 1035 l 510 1090 l 800 1119 l 836 1100 l 700 154 m 556 683 q 483 696 518 696 q 319 571 369 696 q 269 281 269 446 q 295 150 269 197 q 367 103 321 103 q 430 123 400 103 q 481 175 460 143 l 556 683 m 908 783 l 903 801 q 913 954 913 846 q 893 1082 913 1029 l 899 1114 l 1086 1114 q 1099 1006 1099 1085 q 1088 898 1099 943 q 1065 822 1076 853 q 1050 782 1053 792 l 908 783 z "},"đ":{"ha":850,"x_min":40,"x_max":900,"o":"m 40 272 q 92 526 40 408 q 247 717 143 644 q 500 789 350 789 q 571 782 532 789 l 582 856 l 389 856 l 400 944 l 594 944 l 603 1006 l 497 1035 l 510 1090 l 800 1119 l 836 1100 l 814 944 l 900 944 l 890 856 l 801 856 l 700 154 q 699 135 699 147 q 724 101 699 101 q 786 132 746 101 l 806 85 q 730 17 774 49 q 617 -14 686 -14 q 535 12 563 -14 q 500 88 507 38 l 499 100 q 408 19 465 53 q 274 -14 351 -14 q 97 66 154 -14 q 40 272 40 146 m 269 281 q 295 150 269 197 q 367 103 321 103 q 430 123 400 103 q 481 175 460 143 l 556 683 q 483 696 518 696 q 319 571 369 696 q 269 281 269 446 z "},"ḋ":{"ha":850,"x_min":40,"x_max":836,"o":"m 700 154 q 699 135 699 147 q 724 101 699 101 q 786 132 746 101 l 806 85 q 730 17 774 49 q 617 -14 686 -14 q 535 12 563 -14 q 500 88 507 38 l 499 100 q 408 19 465 53 q 274 -14 351 -14 q 97 66 154 -14 q 40 272 40 146 q 92 526 40 408 q 247 717 143 644 q 500 789 350 789 q 571 782 532 789 l 603 1006 l 497 1035 l 510 1090 l 800 1119 l 836 1100 l 700 154 m 556 683 q 483 696 518 696 q 319 571 369 696 q 269 281 269 446 q 295 150 269 197 q 367 103 321 103 q 430 123 400 103 q 481 175 460 143 l 556 683 m 263 907 q 187 940 219 907 q 154 1015 154 974 q 190 1113 154 1074 q 288 1153 226 1153 q 369 1120 338 1153 q 401 1047 401 1088 q 367 947 401 986 q 263 907 332 907 z "},"ḍ":{"ha":850,"x_min":40,"x_max":836,"o":"m 700 154 q 699 135 699 147 q 724 101 699 101 q 786 132 746 101 l 806 85 q 730 17 774 49 q 617 -14 686 -14 q 535 12 563 -14 q 500 88 507 38 l 499 100 q 408 19 465 53 q 274 -14 351 -14 q 97 66 154 -14 q 40 272 40 146 q 92 526 40 408 q 247 717 143 644 q 500 789 350 789 q 571 782 532 789 l 603 1006 l 497 1035 l 510 1090 l 800 1119 l 836 1100 l 700 154 m 556 683 q 483 696 518 696 q 319 571 369 696 q 269 281 269 446 q 295 150 269 197 q 367 103 321 103 q 430 123 400 103 q 481 175 460 143 l 556 683 m 279 -337 q 203 -306 231 -337 q 175 -224 175 -275 q 214 -127 175 -165 q 314 -89 253 -89 q 394 -118 367 -89 q 421 -197 421 -147 q 384 -297 421 -257 q 279 -337 347 -337 z "},"ǳ":{"ha":1536,"x_min":40,"x_max":1567,"o":"m 700 154 q 699 135 699 147 q 724 101 699 101 q 786 132 746 101 l 806 85 q 730 17 774 49 q 617 -14 686 -14 q 535 12 563 -14 q 500 88 507 38 l 499 100 q 408 19 465 53 q 274 -14 351 -14 q 97 66 154 -14 q 40 272 40 146 q 92 526 40 408 q 247 717 143 644 q 500 789 350 789 q 571 782 532 789 l 603 1006 l 497 1035 l 510 1090 l 800 1119 l 836 1100 l 700 154 m 556 683 q 483 696 518 696 q 319 571 369 696 q 269 281 269 446 q 295 150 269 197 q 367 103 321 103 q 430 123 400 103 q 481 175 460 143 l 556 683 m 1118 603 q 1035 573 1067 603 q 1001 499 1004 543 l 942 499 q 935 589 935 533 q 947 709 935 656 q 988 774 960 763 q 1056 789 1014 789 q 1178 783 1103 789 q 1275 776 1254 778 q 1454 765 1417 765 q 1532 789 1507 765 l 1567 747 l 1131 207 l 1076 171 l 1301 171 q 1389 202 1357 171 q 1425 282 1421 233 l 1483 282 q 1488 201 1488 224 q 1476 75 1488 132 q 1436 -1 1464 18 q 1367 -15 1418 -15 q 1131 -3 1286 -15 q 1031 3 1094 -1 q 939 7 967 7 q 900 1 921 7 q 868 -15 879 -4 l 825 26 l 1264 564 l 1328 601 l 1118 603 z "},"ǆ":{"ha":1536,"x_min":40,"x_max":1571,"o":"m 700 154 q 699 135 699 147 q 724 101 699 101 q 786 132 746 101 l 806 85 q 730 17 774 49 q 617 -14 686 -14 q 535 12 563 -14 q 500 88 507 38 l 499 100 q 408 19 465 53 q 274 -14 351 -14 q 97 66 154 -14 q 40 272 40 146 q 92 526 40 408 q 247 717 143 644 q 500 789 350 789 q 571 782 532 789 l 603 1006 l 497 1035 l 510 1090 l 800 1119 l 836 1100 l 700 154 m 556 683 q 483 696 518 696 q 319 571 369 696 q 269 281 269 446 q 295 150 269 197 q 367 103 321 103 q 430 123 400 103 q 481 175 460 143 l 556 683 m 1118 603 q 1035 573 1067 603 q 1001 499 1004 543 l 942 499 q 935 589 935 533 q 947 709 935 656 q 988 774 960 763 q 1056 789 1014 789 q 1178 783 1103 789 q 1275 776 1254 778 q 1454 765 1417 765 q 1532 789 1507 765 l 1567 747 l 1131 207 l 1076 171 l 1301 171 q 1389 202 1357 171 q 1425 282 1421 233 l 1483 282 q 1488 201 1488 224 q 1476 75 1488 132 q 1436 -1 1464 18 q 1367 -15 1418 -15 q 1131 -3 1286 -15 q 1031 3 1094 -1 q 939 7 967 7 q 900 1 921 7 q 868 -15 879 -4 l 825 26 l 1264 564 l 1328 601 l 1118 603 m 1143 1168 l 1281 1025 l 1500 1168 l 1571 1131 l 1322 876 l 1203 876 l 1060 1131 l 1143 1168 z "},"e":{"ha":732,"x_min":42,"x_max":703,"o":"m 656 144 q 536 33 618 85 q 339 -19 454 -19 q 169 24 236 -19 q 72 139 103 68 q 42 292 42 210 q 99 547 42 433 q 258 726 157 661 q 481 790 358 790 q 649 740 594 790 q 703 611 703 690 q 636 442 703 510 q 473 343 569 375 q 282 308 376 311 q 315 153 281 206 q 410 100 349 100 q 528 132 481 100 q 613 213 576 164 l 656 144 m 432 696 q 324 603 360 696 q 282 390 289 510 q 374 417 325 393 q 456 488 422 442 q 489 594 489 533 q 432 696 489 696 z "},"é":{"ha":732,"x_min":42,"x_max":729,"o":"m 656 144 q 536 33 618 85 q 339 -19 454 -19 q 169 24 236 -19 q 72 139 103 68 q 42 292 42 210 q 99 547 42 433 q 258 726 157 661 q 481 790 358 790 q 649 740 594 790 q 703 611 703 690 q 636 442 703 510 q 473 343 569 375 q 282 308 376 311 q 315 153 281 206 q 410 100 349 100 q 528 132 481 100 q 613 213 576 164 l 656 144 m 432 696 q 324 603 360 696 q 282 390 289 510 q 374 417 325 393 q 456 488 422 442 q 489 594 489 533 q 432 696 489 696 m 600 1229 l 729 1104 q 662 1033 717 1082 q 544 939 607 985 q 442 878 481 893 l 381 938 l 600 1229 z "},"ĕ":{"ha":732,"x_min":42,"x_max":719,"o":"m 656 144 q 536 33 618 85 q 339 -19 454 -19 q 169 24 236 -19 q 72 139 103 68 q 42 292 42 210 q 99 547 42 433 q 258 726 157 661 q 481 790 358 790 q 649 740 594 790 q 703 611 703 690 q 636 442 703 510 q 473 343 569 375 q 282 308 376 311 q 315 153 281 206 q 410 100 349 100 q 528 132 481 100 q 613 213 576 164 l 656 144 m 432 696 q 324 603 360 696 q 282 390 289 510 q 374 417 325 393 q 456 488 422 442 q 489 594 489 533 q 432 696 489 696 m 482 888 q 366 918 414 888 q 294 997 318 949 q 271 1100 271 1046 q 274 1144 271 1117 l 397 1144 l 397 1115 q 421 1057 397 1081 q 493 1033 444 1033 q 575 1063 556 1033 q 597 1144 594 1092 l 719 1144 l 719 1121 q 693 1010 718 1064 q 615 922 668 957 q 482 888 561 888 z "},"ě":{"ha":732,"x_min":42,"x_max":790,"o":"m 656 144 q 536 33 618 85 q 339 -19 454 -19 q 169 24 236 -19 q 72 139 103 68 q 42 292 42 210 q 99 547 42 433 q 258 726 157 661 q 481 790 358 790 q 649 740 594 790 q 703 611 703 690 q 636 442 703 510 q 473 343 569 375 q 282 308 376 311 q 315 153 281 206 q 410 100 349 100 q 528 132 481 100 q 613 213 576 164 l 656 144 m 432 696 q 324 603 360 696 q 282 390 289 510 q 374 417 325 393 q 456 488 422 442 q 489 594 489 533 q 432 696 489 696 m 363 1168 l 500 1025 l 719 1168 l 790 1131 l 542 876 l 422 876 l 279 1131 l 363 1168 z "},"ȩ":{"ha":732,"x_min":42,"x_max":703,"o":"m 42 292 q 99 547 42 433 q 258 726 157 661 q 481 790 358 790 q 649 740 594 790 q 703 611 703 690 q 636 442 703 510 q 473 343 569 375 q 282 308 376 311 q 315 153 281 206 q 410 100 349 100 q 528 132 481 100 q 613 213 576 164 l 656 144 q 556 45 624 93 q 393 -15 488 -3 q 413 -125 413 -69 q 388 -226 413 -179 q 315 -303 364 -274 q 197 -333 267 -333 q 137 -326 168 -333 q 86 -307 106 -319 l 101 -190 q 127 -198 110 -194 q 161 -201 144 -201 q 259 -170 225 -201 q 293 -67 293 -139 q 289 -17 293 -37 q 102 86 163 -1 q 42 292 42 174 m 282 390 q 374 417 325 393 q 456 488 422 442 q 489 594 489 533 q 432 696 489 696 q 324 603 360 696 q 282 390 289 510 z "},"ê":{"ha":732,"x_min":42,"x_max":721,"o":"m 656 144 q 536 33 618 85 q 339 -19 454 -19 q 169 24 236 -19 q 72 139 103 68 q 42 292 42 210 q 99 547 42 433 q 258 726 157 661 q 481 790 358 790 q 649 740 594 790 q 703 611 703 690 q 636 442 703 510 q 473 343 569 375 q 282 308 376 311 q 315 153 281 206 q 410 100 349 100 q 528 132 481 100 q 613 213 576 164 l 656 144 m 432 696 q 324 603 360 696 q 282 390 289 510 q 374 417 325 393 q 456 488 422 442 q 489 594 489 533 q 432 696 489 696 m 481 1197 l 581 1190 l 721 907 l 635 872 l 496 1028 l 283 869 l 218 914 l 481 1197 z "},"ế":{"ha":732,"x_min":42,"x_max":994,"o":"m 656 144 q 536 33 618 85 q 339 -19 454 -19 q 169 24 236 -19 q 72 139 103 68 q 42 292 42 210 q 99 547 42 433 q 258 726 157 661 q 481 790 358 790 q 649 740 594 790 q 703 611 703 690 q 636 442 703 510 q 473 343 569 375 q 282 308 376 311 q 315 153 281 206 q 410 100 349 100 q 528 132 481 100 q 613 213 576 164 l 656 144 m 432 696 q 324 603 360 696 q 282 390 289 510 q 374 417 325 393 q 456 488 422 442 q 489 594 489 533 q 432 696 489 696 m 685 1153 l 893 1365 l 994 1265 q 880 1161 958 1221 q 747 1083 801 1101 l 685 1153 m 581 1140 l 750 922 l 656 864 l 497 993 l 292 864 l 226 919 l 463 1140 l 581 1140 z "},"ệ":{"ha":732,"x_min":42,"x_max":721,"o":"m 656 144 q 536 33 618 85 q 339 -19 454 -19 q 169 24 236 -19 q 72 139 103 68 q 42 292 42 210 q 99 547 42 433 q 258 726 157 661 q 481 790 358 790 q 649 740 594 790 q 703 611 703 690 q 636 442 703 510 q 473 343 569 375 q 282 308 376 311 q 315 153 281 206 q 410 100 349 100 q 528 132 481 100 q 613 213 576 164 l 656 144 m 432 696 q 324 603 360 696 q 282 390 289 510 q 374 417 325 393 q 456 488 422 442 q 489 594 489 533 q 432 696 489 696 m 290 -337 q 214 -306 242 -337 q 186 -224 186 -275 q 225 -127 186 -165 q 325 -89 264 -89 q 405 -118 378 -89 q 432 -197 432 -147 q 395 -297 432 -257 q 290 -337 358 -337 m 481 1197 l 581 1190 l 721 907 l 635 872 l 496 1028 l 283 869 l 218 914 l 481 1197 z "},"ề":{"ha":732,"x_min":42,"x_max":899,"o":"m 656 144 q 536 33 618 85 q 339 -19 454 -19 q 169 24 236 -19 q 72 139 103 68 q 42 292 42 210 q 99 547 42 433 q 258 726 157 661 q 481 790 358 790 q 649 740 594 790 q 703 611 703 690 q 636 442 703 510 q 473 343 569 375 q 282 308 376 311 q 315 153 281 206 q 410 100 349 100 q 528 132 481 100 q 613 213 576 164 l 656 144 m 432 696 q 324 603 360 696 q 282 390 289 510 q 374 417 325 393 q 456 488 422 442 q 489 594 489 533 q 432 696 489 696 m 813 1085 q 705 1161 764 1103 q 622 1265 646 1219 l 757 1365 l 899 1154 l 813 1085 m 576 1140 l 746 922 l 651 864 l 493 993 l 288 864 l 222 919 l 458 1140 l 576 1140 z "},"ể":{"ha":732,"x_min":42,"x_max":949,"o":"m 656 144 q 536 33 618 85 q 339 -19 454 -19 q 169 24 236 -19 q 72 139 103 68 q 42 292 42 210 q 99 547 42 433 q 258 726 157 661 q 481 790 358 790 q 649 740 594 790 q 703 611 703 690 q 636 442 703 510 q 473 343 569 375 q 282 308 376 311 q 315 153 281 206 q 410 100 349 100 q 528 132 481 100 q 613 213 576 164 l 656 144 m 432 696 q 324 603 360 696 q 282 390 289 510 q 374 417 325 393 q 456 488 422 442 q 489 594 489 533 q 432 696 489 696 m 753 1024 q 740 1051 746 1033 q 735 1081 733 1068 q 746 1101 738 1093 q 771 1119 754 1108 q 799 1140 789 1131 q 815 1164 810 1149 l 815 1167 q 767 1208 818 1208 q 733 1206 739 1208 l 754 1314 q 774 1317 761 1315 q 799 1319 788 1319 q 908 1294 868 1319 q 949 1218 949 1268 q 944 1183 949 1203 q 920 1139 939 1157 q 881 1107 901 1121 q 851 1086 861 1093 q 831 1063 838 1074 q 826 1031 825 1051 l 753 1024 m 575 1140 l 744 922 l 650 864 l 492 993 l 286 864 l 221 919 l 457 1140 l 575 1140 z "},"ễ":{"ha":732,"x_min":42,"x_max":758,"o":"m 656 144 q 536 33 618 85 q 339 -19 454 -19 q 169 24 236 -19 q 72 139 103 68 q 42 292 42 210 q 99 547 42 433 q 258 726 157 661 q 481 790 358 790 q 649 740 594 790 q 703 611 703 690 q 636 442 703 510 q 473 343 569 375 q 282 308 376 311 q 315 153 281 206 q 410 100 349 100 q 528 132 481 100 q 613 213 576 164 l 656 144 m 432 696 q 324 603 360 696 q 282 390 289 510 q 374 417 325 393 q 456 488 422 442 q 489 594 489 533 q 432 696 489 696 m 306 1235 q 376 1328 332 1292 q 478 1365 421 1365 q 527 1355 507 1365 q 569 1325 547 1344 q 603 1302 590 1310 q 633 1294 615 1294 q 669 1303 657 1294 q 699 1336 681 1313 l 758 1301 q 590 1174 694 1174 q 543 1183 563 1174 q 499 1213 524 1193 q 464 1237 478 1229 q 432 1244 450 1244 q 397 1235 410 1244 q 361 1201 385 1226 l 306 1235 m 578 1140 l 747 922 l 653 864 l 494 993 l 289 864 l 224 919 l 460 1140 l 578 1140 z "},"ë":{"ha":732,"x_min":42,"x_max":761,"o":"m 656 144 q 536 33 618 85 q 339 -19 454 -19 q 169 24 236 -19 q 72 139 103 68 q 42 292 42 210 q 99 547 42 433 q 258 726 157 661 q 481 790 358 790 q 649 740 594 790 q 703 611 703 690 q 636 442 703 510 q 473 343 569 375 q 282 308 376 311 q 315 153 281 206 q 410 100 349 100 q 528 132 481 100 q 613 213 576 164 l 656 144 m 432 696 q 324 603 360 696 q 282 390 289 510 q 374 417 325 393 q 456 488 422 442 q 489 594 489 533 q 432 696 489 696 m 332 904 q 265 938 294 904 q 236 1014 236 972 q 268 1110 236 1072 q 354 1149 300 1149 q 427 1116 400 1149 q 454 1040 454 1083 q 424 942 454 981 q 332 904 393 904 m 639 904 q 572 938 600 904 q 543 1014 543 972 q 574 1110 543 1072 q 661 1149 606 1149 q 733 1117 706 1149 q 761 1043 761 1085 q 731 943 761 982 q 639 904 700 904 z "},"ė":{"ha":732,"x_min":42,"x_max":703,"o":"m 656 144 q 536 33 618 85 q 339 -19 454 -19 q 169 24 236 -19 q 72 139 103 68 q 42 292 42 210 q 99 547 42 433 q 258 726 157 661 q 481 790 358 790 q 649 740 594 790 q 703 611 703 690 q 636 442 703 510 q 473 343 569 375 q 282 308 376 311 q 315 153 281 206 q 410 100 349 100 q 528 132 481 100 q 613 213 576 164 l 656 144 m 432 696 q 324 603 360 696 q 282 390 289 510 q 374 417 325 393 q 456 488 422 442 q 489 594 489 533 q 432 696 489 696 m 489 907 q 413 940 446 907 q 381 1015 381 974 q 417 1113 381 1074 q 514 1153 453 1153 q 596 1120 564 1153 q 628 1047 628 1088 q 593 947 628 986 q 489 907 558 907 z "},"ẹ":{"ha":732,"x_min":42,"x_max":703,"o":"m 656 144 q 536 33 618 85 q 339 -19 454 -19 q 169 24 236 -19 q 72 139 103 68 q 42 292 42 210 q 99 547 42 433 q 258 726 157 661 q 481 790 358 790 q 649 740 594 790 q 703 611 703 690 q 636 442 703 510 q 473 343 569 375 q 282 308 376 311 q 315 153 281 206 q 410 100 349 100 q 528 132 481 100 q 613 213 576 164 l 656 144 m 432 696 q 324 603 360 696 q 282 390 289 510 q 374 417 325 393 q 456 488 422 442 q 489 594 489 533 q 432 696 489 696 m 290 -337 q 214 -306 242 -337 q 186 -224 186 -275 q 225 -127 186 -165 q 325 -89 264 -89 q 405 -118 378 -89 q 432 -197 432 -147 q 395 -297 432 -257 q 290 -337 358 -337 z "},"è":{"ha":732,"x_min":42,"x_max":703,"o":"m 656 144 q 536 33 618 85 q 339 -19 454 -19 q 169 24 236 -19 q 72 139 103 68 q 42 292 42 210 q 99 547 42 433 q 258 726 157 661 q 481 790 358 790 q 649 740 594 790 q 703 611 703 690 q 636 442 703 510 q 473 343 569 375 q 282 308 376 311 q 315 153 281 206 q 410 100 349 100 q 528 132 481 100 q 613 213 576 164 l 656 144 m 432 696 q 324 603 360 696 q 282 390 289 510 q 374 417 325 393 q 456 488 422 442 q 489 594 489 533 q 432 696 489 696 m 494 889 q 410 941 465 901 q 304 1028 354 981 q 233 1110 254 1075 l 369 1229 l 565 936 l 494 889 z "},"ẻ":{"ha":732,"x_min":42,"x_max":703,"o":"m 656 144 q 536 33 618 85 q 339 -19 454 -19 q 169 24 236 -19 q 72 139 103 68 q 42 292 42 210 q 99 547 42 433 q 258 726 157 661 q 481 790 358 790 q 649 740 594 790 q 703 611 703 690 q 636 442 703 510 q 473 343 569 375 q 282 308 376 311 q 315 153 281 206 q 410 100 349 100 q 528 132 481 100 q 613 213 576 164 l 656 144 m 432 696 q 324 603 360 696 q 282 390 289 510 q 374 417 325 393 q 456 488 422 442 q 489 594 489 533 q 432 696 489 696 m 422 854 q 406 885 414 864 q 399 924 397 907 q 412 947 401 938 q 440 969 422 957 q 473 994 461 982 q 490 1024 485 1006 l 490 1028 q 429 1078 490 1078 l 419 1078 q 390 1075 399 1078 l 411 1206 q 432 1210 414 1207 q 464 1213 450 1213 q 601 1180 550 1213 q 651 1083 651 1147 q 647 1047 651 1067 q 619 993 642 1015 q 572 955 597 971 q 538 931 547 939 q 514 903 521 918 q 508 863 507 889 l 422 854 z "},"ē":{"ha":732,"x_min":42,"x_max":703,"o":"m 656 144 q 536 33 618 85 q 339 -19 454 -19 q 169 24 236 -19 q 72 139 103 68 q 42 292 42 210 q 99 547 42 433 q 258 726 157 661 q 481 790 358 790 q 649 740 594 790 q 703 611 703 690 q 636 442 703 510 q 473 343 569 375 q 282 308 376 311 q 315 153 281 206 q 410 100 349 100 q 528 132 481 100 q 613 213 576 164 l 656 144 m 432 696 q 324 603 360 696 q 282 390 289 510 q 374 417 325 393 q 456 488 422 442 q 489 594 489 533 q 432 696 489 696 m 693 1044 l 679 906 l 290 906 l 303 1044 l 693 1044 z "},"ę":{"ha":732,"x_min":42,"x_max":703,"o":"m 268 -337 q 172 -306 204 -337 q 139 -221 139 -275 q 147 -180 139 -204 q 168 -137 156 -156 q 306 -18 222 -60 q 106 81 171 -7 q 42 292 42 169 q 99 547 42 433 q 258 726 157 661 q 481 790 358 790 q 649 740 594 790 q 703 611 703 690 q 636 442 703 510 q 473 343 569 375 q 282 308 376 311 q 315 153 281 206 q 410 100 349 100 q 528 132 481 100 q 613 213 576 164 l 656 144 q 592 73 633 110 q 493 11 550 36 q 372 -82 418 -36 q 326 -161 326 -128 q 372 -210 325 -210 q 419 -199 397 -210 q 476 -160 440 -187 l 499 -235 q 397 -309 456 -281 q 268 -337 338 -337 m 282 390 q 374 417 325 393 q 456 488 422 442 q 489 594 489 533 q 432 696 489 696 q 324 603 360 696 q 282 390 289 510 z "},"ẽ":{"ha":732,"x_min":42,"x_max":754,"o":"m 656 144 q 536 33 618 85 q 339 -19 454 -19 q 169 24 236 -19 q 72 139 103 68 q 42 292 42 210 q 99 547 42 433 q 258 726 157 661 q 481 790 358 790 q 649 740 594 790 q 703 611 703 690 q 636 442 703 510 q 473 343 569 375 q 282 308 376 311 q 315 153 281 206 q 410 100 349 100 q 528 132 481 100 q 613 213 576 164 l 656 144 m 432 696 q 324 603 360 696 q 282 390 289 510 q 374 417 325 393 q 456 488 422 442 q 489 594 489 533 q 432 696 489 696 m 239 994 q 308 1073 261 1039 q 403 1107 354 1107 q 466 1094 442 1107 q 522 1058 490 1082 q 560 1032 544 1040 q 594 1024 575 1024 q 649 1039 629 1024 q 696 1088 669 1054 l 754 1018 q 685 935 736 972 q 583 897 635 897 q 522 909 546 897 q 472 943 499 921 q 432 972 450 963 q 388 982 414 982 q 336 969 356 982 q 289 926 317 956 l 239 994 z "},"ə":{"ha":733,"x_min":29,"x_max":690,"o":"m 78 629 q 197 740 114 688 q 394 792 279 792 q 618 701 546 792 q 690 478 690 610 q 633 224 690 338 q 474 47 575 111 q 251 -18 374 -18 q 85 32 140 -18 q 29 160 29 82 q 96 329 29 261 q 260 429 163 397 q 451 464 357 461 q 417 619 451 567 q 322 672 383 672 q 204 640 251 672 q 119 560 157 608 l 78 629 m 451 382 q 359 355 408 379 q 276 285 310 331 q 243 178 243 239 q 301 76 243 76 q 408 169 372 76 q 451 382 443 263 z "},"f":{"ha":467,"x_min":-171,"x_max":622,"o":"m 185 833 q 290 1049 207 965 q 503 1132 372 1132 q 622 1115 579 1132 l 581 996 q 490 1028 538 1028 q 438 1010 456 1028 q 414 966 421 993 q 399 883 407 939 l 382 771 l 522 771 l 503 656 l 367 656 l 300 101 q 244 -119 286 -17 q 129 -285 201 -221 q -43 -349 57 -349 q -171 -333 -106 -349 l -132 -206 q -26 -239 -54 -239 q 30 -207 8 -239 q 61 -107 51 -175 l 153 656 l 68 656 l 82 725 l 174 768 l 185 833 z "},"ḟ":{"ha":467,"x_min":-171,"x_max":622,"o":"m 185 833 q 290 1049 207 965 q 503 1132 372 1132 q 622 1115 579 1132 l 581 996 q 490 1028 538 1028 q 438 1010 456 1028 q 414 966 421 993 q 399 883 407 939 l 382 771 l 522 771 l 503 656 l 367 656 l 300 101 q 244 -119 286 -17 q 129 -285 201 -221 q -43 -349 57 -349 q -171 -333 -106 -349 l -132 -206 q -26 -239 -54 -239 q 30 -207 8 -239 q 61 -107 51 -175 l 153 656 l 68 656 l 82 725 l 174 768 l 185 833 m 157 1050 q 81 1083 114 1050 q 49 1158 49 1117 q 85 1256 49 1217 q 182 1296 121 1296 q 264 1263 232 1296 q 296 1190 296 1231 q 261 1090 296 1129 q 157 1050 226 1050 z "},"g":{"ha":825,"x_min":40,"x_max":782,"o":"m 668 -53 q 528 -283 647 -214 q 250 -351 410 -351 q 147 -341 204 -351 q 69 -321 90 -331 l 104 -176 q 145 -201 114 -185 q 217 -230 176 -217 q 294 -243 258 -243 q 402 -214 368 -243 q 446 -99 436 -185 l 463 51 q 281 -14 382 -14 q 100 67 160 -14 q 40 272 40 147 q 94 526 40 407 q 253 717 147 644 q 506 789 358 789 q 592 779 546 789 q 672 757 639 769 l 782 789 l 668 -53 m 553 686 q 490 696 521 696 q 363 633 413 696 q 293 476 314 571 q 272 281 272 382 q 299 150 272 197 q 374 103 326 103 q 475 156 428 103 l 553 686 z "},"ğ":{"ha":825,"x_min":40,"x_max":782,"o":"m 668 -53 q 528 -283 647 -214 q 250 -351 410 -351 q 147 -341 204 -351 q 69 -321 90 -331 l 104 -176 q 145 -201 114 -185 q 217 -230 176 -217 q 294 -243 258 -243 q 402 -214 368 -243 q 446 -99 436 -185 l 463 51 q 281 -14 382 -14 q 100 67 160 -14 q 40 272 40 147 q 94 526 40 407 q 253 717 147 644 q 506 789 358 789 q 592 779 546 789 q 672 757 639 769 l 782 789 l 668 -53 m 553 686 q 490 696 521 696 q 363 633 413 696 q 293 476 314 571 q 272 281 272 382 q 299 150 272 197 q 374 103 326 103 q 475 156 428 103 l 553 686 m 492 889 q 376 919 424 889 q 304 999 328 950 q 281 1101 281 1047 q 283 1146 281 1118 l 407 1146 l 407 1117 q 431 1058 407 1082 q 503 1035 454 1035 q 585 1064 565 1035 q 607 1146 604 1093 l 729 1146 l 729 1122 q 703 1012 728 1065 q 624 924 678 958 q 492 889 571 889 z "},"ǧ":{"ha":825,"x_min":40,"x_max":800,"o":"m 668 -53 q 528 -283 647 -214 q 250 -351 410 -351 q 147 -341 204 -351 q 69 -321 90 -331 l 104 -176 q 145 -201 114 -185 q 217 -230 176 -217 q 294 -243 258 -243 q 402 -214 368 -243 q 446 -99 436 -185 l 463 51 q 281 -14 382 -14 q 100 67 160 -14 q 40 272 40 147 q 94 526 40 407 q 253 717 147 644 q 506 789 358 789 q 592 779 546 789 q 672 757 639 769 l 782 789 l 668 -53 m 553 686 q 490 696 521 696 q 363 633 413 696 q 293 476 314 571 q 272 281 272 382 q 299 150 272 197 q 374 103 326 103 q 475 156 428 103 l 553 686 m 372 1169 l 510 1026 l 729 1169 l 800 1132 l 551 878 l 432 878 l 289 1132 l 372 1169 z "},"ĝ":{"ha":825,"x_min":40,"x_max":782,"o":"m 668 -53 q 528 -283 647 -214 q 250 -351 410 -351 q 147 -341 204 -351 q 69 -321 90 -331 l 104 -176 q 145 -201 114 -185 q 217 -230 176 -217 q 294 -243 258 -243 q 402 -214 368 -243 q 446 -99 436 -185 l 463 51 q 281 -14 382 -14 q 100 67 160 -14 q 40 272 40 147 q 94 526 40 407 q 253 717 147 644 q 506 789 358 789 q 592 779 546 789 q 672 757 639 769 l 782 789 l 668 -53 m 553 686 q 490 696 521 696 q 363 633 413 696 q 293 476 314 571 q 272 281 272 382 q 299 150 272 197 q 374 103 326 103 q 475 156 428 103 l 553 686 m 490 1199 l 590 1192 l 731 908 l 644 874 l 506 1029 l 293 871 l 228 915 l 490 1199 z "},"ģ":{"ha":825,"x_min":40,"x_max":782,"o":"m 668 -53 q 528 -283 647 -214 q 250 -351 410 -351 q 147 -341 204 -351 q 69 -321 90 -331 l 104 -176 q 145 -201 114 -185 q 217 -230 176 -217 q 294 -243 258 -243 q 402 -214 368 -243 q 446 -99 436 -185 l 463 51 q 281 -14 382 -14 q 100 67 160 -14 q 40 272 40 147 q 94 526 40 407 q 253 717 147 644 q 506 789 358 789 q 592 779 546 789 q 672 757 639 769 l 782 789 l 668 -53 m 553 686 q 490 696 521 696 q 363 633 413 696 q 293 476 314 571 q 272 281 272 382 q 299 150 272 197 q 374 103 326 103 q 475 156 428 103 l 553 686 m 493 882 q 420 905 447 882 q 393 972 393 928 q 394 994 393 986 q 429 1087 401 1042 q 490 1164 457 1132 q 546 1203 524 1196 l 547 1203 l 626 1185 l 629 1174 q 601 1136 614 1168 q 588 1079 588 1104 q 607 1042 588 1058 q 632 988 632 1022 q 590 907 632 932 q 497 882 547 882 l 493 882 z "},"ġ":{"ha":825,"x_min":40,"x_max":782,"o":"m 668 -53 q 528 -283 647 -214 q 250 -351 410 -351 q 147 -341 204 -351 q 69 -321 90 -331 l 104 -176 q 145 -201 114 -185 q 217 -230 176 -217 q 294 -243 258 -243 q 402 -214 368 -243 q 446 -99 436 -185 l 463 51 q 281 -14 382 -14 q 100 67 160 -14 q 40 272 40 147 q 94 526 40 407 q 253 717 147 644 q 506 789 358 789 q 592 779 546 789 q 672 757 639 769 l 782 789 l 668 -53 m 553 686 q 490 696 521 696 q 363 633 413 696 q 293 476 314 571 q 272 281 272 382 q 299 150 272 197 q 374 103 326 103 q 475 156 428 103 l 553 686 m 499 908 q 423 942 456 908 q 390 1017 390 975 q 426 1115 390 1075 q 524 1154 463 1154 q 606 1122 574 1154 q 638 1049 638 1089 q 603 948 638 988 q 499 908 568 908 z "},"ḡ":{"ha":825,"x_min":40,"x_max":782,"o":"m 668 -53 q 528 -283 647 -214 q 250 -351 410 -351 q 147 -341 204 -351 q 69 -321 90 -331 l 104 -176 q 145 -201 114 -185 q 217 -230 176 -217 q 294 -243 258 -243 q 402 -214 368 -243 q 446 -99 436 -185 l 463 51 q 281 -14 382 -14 q 100 67 160 -14 q 40 272 40 147 q 94 526 40 407 q 253 717 147 644 q 506 789 358 789 q 592 779 546 789 q 672 757 639 769 l 782 789 l 668 -53 m 553 686 q 490 696 521 696 q 363 633 413 696 q 293 476 314 571 q 272 281 272 382 q 299 150 272 197 q 374 103 326 103 q 475 156 428 103 l 553 686 m 703 1046 l 689 907 l 300 907 l 313 1046 l 703 1046 z "},"h":{"ha":878,"x_min":50,"x_max":832,"o":"m 347 619 q 462 743 394 697 q 608 789 529 789 q 789 583 789 789 q 754 343 789 531 l 744 286 q 725 139 725 178 q 751 101 725 101 q 776 108 763 101 q 813 132 789 114 l 832 85 q 758 19 808 53 q 632 -14 708 -14 q 522 17 550 -14 q 494 100 494 47 q 518 256 494 138 l 526 300 q 557 551 557 474 q 544 633 557 611 q 503 656 532 656 q 413 604 461 656 q 329 479 364 553 l 271 0 l 50 0 l 171 1006 l 85 1035 l 96 1090 l 371 1119 l 406 1100 l 347 619 z "},"ħ":{"ha":878,"x_min":50,"x_max":832,"o":"m 347 618 q 461 743 393 697 q 608 789 529 789 q 789 583 789 789 q 754 343 789 531 l 744 286 q 725 139 725 178 q 751 101 725 101 q 776 108 763 101 q 813 132 789 114 l 832 85 q 758 19 808 53 q 632 -14 708 -14 q 522 17 550 -14 q 494 100 494 47 q 518 256 494 138 l 526 300 q 557 551 557 474 q 544 633 557 611 q 503 656 532 656 q 413 604 461 656 q 329 479 364 553 l 271 0 l 50 0 l 153 856 l 63 856 l 74 944 l 164 944 l 171 1006 l 85 1035 l 96 1090 l 371 1119 l 406 1100 l 386 944 l 533 944 l 522 856 l 375 856 l 347 618 z "},"ĥ":{"ha":878,"x_min":33,"x_max":832,"o":"m 347 619 q 462 743 394 697 q 608 789 529 789 q 789 583 789 789 q 754 343 789 531 l 744 286 q 725 139 725 178 q 751 101 725 101 q 776 108 763 101 q 813 132 789 114 l 832 85 q 758 19 808 53 q 632 -14 708 -14 q 522 17 550 -14 q 494 100 494 47 q 518 256 494 138 l 526 300 q 557 551 557 474 q 544 633 557 611 q 503 656 532 656 q 413 604 461 656 q 329 479 364 553 l 271 0 l 50 0 l 171 1006 l 85 1035 l 96 1090 l 371 1119 l 406 1100 l 347 619 m 281 1421 l 401 1421 l 543 1179 l 461 1140 l 324 1282 l 104 1140 l 33 1179 l 281 1421 z "},"ḥ":{"ha":878,"x_min":50,"x_max":832,"o":"m 347 619 q 462 743 394 697 q 608 789 529 789 q 789 583 789 789 q 754 343 789 531 l 744 286 q 725 139 725 178 q 751 101 725 101 q 776 108 763 101 q 813 132 789 114 l 832 85 q 758 19 808 53 q 632 -14 708 -14 q 522 17 550 -14 q 494 100 494 47 q 518 256 494 138 l 526 300 q 557 551 557 474 q 544 633 557 611 q 503 656 532 656 q 413 604 461 656 q 329 479 364 553 l 271 0 l 50 0 l 171 1006 l 85 1035 l 96 1090 l 371 1119 l 406 1100 l 347 619 m 363 -337 q 286 -306 314 -337 q 258 -224 258 -275 q 297 -127 258 -165 q 397 -89 336 -89 q 477 -118 450 -89 q 504 -197 504 -147 q 467 -297 504 -257 q 363 -337 431 -337 z "},"i":{"ha":454,"x_min":74,"x_max":443,"o":"m 303 153 q 301 135 301 146 q 326 101 301 101 q 351 108 338 101 q 389 132 364 115 l 407 85 q 334 19 383 53 q 210 -14 285 -14 q 110 10 146 -14 q 75 74 75 35 q 76 88 75 82 l 113 361 l 151 651 l 74 693 l 85 753 l 353 789 l 389 772 l 303 153 m 301 908 q 227 942 260 908 q 194 1017 194 975 q 233 1113 194 1074 q 336 1153 272 1153 q 414 1121 385 1153 q 443 1047 443 1089 q 407 947 443 986 q 301 908 371 908 z "},"ı":{"ha":454,"x_min":74,"x_max":407,"o":"m 303 153 q 301 135 301 146 q 326 101 301 101 q 351 108 338 101 q 389 132 364 115 l 407 85 q 334 19 383 53 q 210 -14 285 -14 q 110 10 146 -14 q 75 74 75 35 q 76 88 75 82 l 113 361 l 151 651 l 74 693 l 85 753 l 353 789 l 389 772 l 303 153 z "},"í":{"ha":454,"x_min":74,"x_max":538,"o":"m 303 153 q 301 135 301 146 q 326 101 301 101 q 351 108 338 101 q 389 132 364 115 l 407 85 q 334 19 383 53 q 210 -14 285 -14 q 110 10 146 -14 q 75 74 75 35 q 76 88 75 82 l 113 361 l 151 651 l 74 693 l 85 753 l 353 789 l 389 772 l 303 153 m 408 1229 l 538 1104 q 470 1033 525 1082 q 352 939 415 985 q 250 878 289 893 l 189 938 l 408 1229 z "},"ĭ":{"ha":454,"x_min":74,"x_max":528,"o":"m 303 153 q 301 135 301 146 q 326 101 301 101 q 351 108 338 101 q 389 132 364 115 l 407 85 q 334 19 383 53 q 210 -14 285 -14 q 110 10 146 -14 q 75 74 75 35 q 76 88 75 82 l 113 361 l 151 651 l 74 693 l 85 753 l 353 789 l 389 772 l 303 153 m 290 888 q 174 918 222 888 q 103 997 126 949 q 79 1100 79 1046 q 82 1144 79 1117 l 206 1144 l 206 1115 q 229 1057 206 1081 q 301 1033 253 1033 q 383 1063 364 1033 q 406 1144 403 1092 l 528 1144 l 528 1121 q 501 1010 526 1064 q 423 922 476 957 q 290 888 369 888 z "},"ǐ":{"ha":454,"x_min":74,"x_max":599,"o":"m 303 153 q 301 135 301 146 q 326 101 301 101 q 351 108 338 101 q 389 132 364 115 l 407 85 q 334 19 383 53 q 210 -14 285 -14 q 110 10 146 -14 q 75 74 75 35 q 76 88 75 82 l 113 361 l 151 651 l 74 693 l 85 753 l 353 789 l 389 772 l 303 153 m 171 1168 l 308 1025 l 528 1168 l 599 1131 l 350 876 l 231 876 l 88 1131 l 171 1168 z "},"î":{"ha":454,"x_min":26,"x_max":529,"o":"m 303 153 q 301 135 301 146 q 326 101 301 101 q 351 108 338 101 q 389 132 364 115 l 407 85 q 334 19 383 53 q 210 -14 285 -14 q 110 10 146 -14 q 75 74 75 35 q 76 88 75 82 l 113 361 l 151 651 l 74 693 l 85 753 l 353 789 l 389 772 l 303 153 m 289 1197 l 389 1190 l 529 907 l 443 872 l 304 1028 l 92 869 l 26 914 l 289 1197 z "},"ï":{"ha":454,"x_min":44,"x_max":569,"o":"m 303 153 q 301 135 301 146 q 326 101 301 101 q 351 108 338 101 q 389 132 364 115 l 407 85 q 334 19 383 53 q 210 -14 285 -14 q 110 10 146 -14 q 75 74 75 35 q 76 88 75 82 l 113 361 l 151 651 l 74 693 l 85 753 l 353 789 l 389 772 l 303 153 m 140 904 q 74 938 103 904 q 44 1014 44 972 q 76 1110 44 1072 q 163 1149 108 1149 q 235 1116 208 1149 q 263 1040 263 1083 q 232 942 263 981 q 140 904 201 904 m 447 904 q 380 938 408 904 q 351 1014 351 972 q 383 1110 351 1072 q 469 1149 414 1149 q 542 1117 514 1149 q 569 1043 569 1085 q 539 943 569 982 q 447 904 508 904 z "},"ị":{"ha":454,"x_min":35,"x_max":443,"o":"m 303 153 q 301 135 301 146 q 326 101 301 101 q 351 108 338 101 q 389 132 364 115 l 407 85 q 334 19 383 53 q 210 -14 285 -14 q 110 10 146 -14 q 75 74 75 35 q 76 88 75 82 l 113 361 l 151 651 l 74 693 l 85 753 l 353 789 l 389 772 l 303 153 m 301 908 q 227 942 260 908 q 194 1017 194 975 q 233 1113 194 1074 q 336 1153 272 1153 q 414 1121 385 1153 q 443 1047 443 1089 q 407 947 443 986 q 301 908 371 908 m 139 -315 q 63 -284 90 -315 q 35 -201 35 -253 q 74 -105 35 -143 q 174 -67 113 -67 q 253 -96 226 -67 q 281 -175 281 -125 q 244 -275 281 -235 q 139 -315 207 -315 z "},"ì":{"ha":454,"x_min":42,"x_max":407,"o":"m 303 153 q 301 135 301 146 q 326 101 301 101 q 351 108 338 101 q 389 132 364 115 l 407 85 q 334 19 383 53 q 210 -14 285 -14 q 110 10 146 -14 q 75 74 75 35 q 76 88 75 82 l 113 361 l 151 651 l 74 693 l 85 753 l 353 789 l 389 772 l 303 153 m 303 889 q 218 941 274 901 q 113 1028 163 981 q 42 1110 63 1075 l 178 1229 l 374 936 l 303 889 z "},"ỉ":{"ha":454,"x_min":74,"x_max":460,"o":"m 303 153 q 301 135 301 146 q 326 101 301 101 q 351 108 338 101 q 389 132 364 115 l 407 85 q 334 19 383 53 q 210 -14 285 -14 q 110 10 146 -14 q 75 74 75 35 q 76 88 75 82 l 113 361 l 151 651 l 74 693 l 85 753 l 353 789 l 389 772 l 303 153 m 231 854 q 214 885 222 864 q 207 924 206 907 q 220 947 210 938 q 249 969 231 957 q 281 994 269 982 q 299 1024 293 1006 l 299 1028 q 238 1078 299 1078 l 228 1078 q 199 1075 207 1078 l 219 1206 q 240 1210 222 1207 q 272 1213 258 1213 q 409 1180 358 1213 q 460 1083 460 1147 q 456 1047 460 1067 q 428 993 450 1015 q 381 955 406 971 q 346 931 356 939 q 322 903 329 918 q 317 863 315 889 l 231 854 z "},"ĳ":{"ha":897,"x_min":74,"x_max":872,"o":"m 303 153 q 301 135 301 146 q 326 101 301 101 q 351 108 338 101 q 389 132 364 115 l 407 85 q 334 19 383 53 q 210 -14 285 -14 q 110 10 146 -14 q 75 74 75 35 q 76 88 75 82 l 113 361 l 151 651 l 74 693 l 85 753 l 353 789 l 389 772 l 303 153 m 301 908 q 227 942 260 908 q 194 1017 194 975 q 233 1113 194 1074 q 336 1153 272 1153 q 414 1121 385 1153 q 443 1047 443 1089 q 407 947 443 986 q 301 908 371 908 m 753 0 q 690 -192 739 -111 q 568 -316 640 -274 q 413 -358 496 -358 q 335 -352 369 -358 q 288 -333 300 -346 l 315 -246 q 344 -252 328 -250 q 376 -254 361 -254 q 463 -215 431 -254 q 509 -114 494 -176 q 535 44 524 -51 l 606 665 l 494 699 l 510 754 l 811 789 l 846 772 l 753 0 m 731 908 q 656 942 689 908 q 624 1017 624 975 q 663 1113 624 1074 q 765 1153 701 1153 q 843 1121 814 1153 q 872 1047 872 1089 q 836 947 872 986 q 731 908 800 908 z "},"ī":{"ha":454,"x_min":74,"x_max":501,"o":"m 303 153 q 301 135 301 146 q 326 101 301 101 q 351 108 338 101 q 389 132 364 115 l 407 85 q 334 19 383 53 q 210 -14 285 -14 q 110 10 146 -14 q 75 74 75 35 q 76 88 75 82 l 113 361 l 151 651 l 74 693 l 85 753 l 353 789 l 389 772 l 303 153 m 501 1044 l 488 906 l 99 906 l 111 1044 l 501 1044 z "},"į":{"ha":454,"x_min":-15,"x_max":425,"o":"m 311 1153 q 392 1120 360 1153 q 425 1047 425 1088 q 390 947 425 986 q 286 908 354 908 q 211 942 244 908 q 178 1018 178 976 q 214 1114 178 1075 q 311 1153 250 1153 m 303 153 q 301 135 301 146 q 326 101 301 101 q 351 108 338 101 q 389 132 364 115 l 407 85 q 380 54 399 72 q 335 21 361 36 q 172 -146 172 -85 q 184 -184 172 -174 q 218 -194 196 -194 q 266 -183 243 -194 q 322 -144 289 -171 l 346 -221 q 242 -295 301 -267 q 115 -324 183 -324 q 18 -292 51 -324 q -15 -207 -15 -261 q -7 -166 -15 -190 q 14 -124 1 -142 q 76 -53 44 -79 q 146 -6 108 -26 q 93 26 111 4 q 75 83 75 47 q 76 110 75 100 l 85 167 q 151 651 121 418 l 74 693 l 85 753 l 353 789 l 389 772 l 303 153 z "},"ĩ":{"ha":454,"x_min":47,"x_max":563,"o":"m 303 153 q 301 135 301 146 q 326 101 301 101 q 351 108 338 101 q 389 132 364 115 l 407 85 q 334 19 383 53 q 210 -14 285 -14 q 110 10 146 -14 q 75 74 75 35 q 76 88 75 82 l 113 361 l 151 651 l 74 693 l 85 753 l 353 789 l 389 772 l 303 153 m 47 994 q 116 1073 69 1039 q 211 1107 163 1107 q 274 1094 250 1107 q 331 1058 299 1082 q 368 1032 353 1040 q 403 1024 383 1024 q 458 1039 438 1024 q 504 1088 478 1054 l 563 1018 q 494 935 544 972 q 392 897 443 897 q 331 909 354 897 q 281 943 307 921 q 240 972 258 963 q 196 982 222 982 q 144 969 164 982 q 97 926 125 956 l 47 994 z "},"j":{"ha":443,"x_min":-167,"x_max":418,"o":"m 299 0 q 235 -192 285 -111 q 114 -316 186 -274 q -42 -358 42 -358 q -119 -352 -85 -358 q -167 -333 -154 -346 l -139 -246 q -110 -252 -126 -250 q -78 -254 -93 -254 q 8 -215 -24 -254 q 55 -114 40 -176 q 81 44 69 -51 l 151 665 l 40 699 l 56 754 l 357 789 l 392 772 l 299 0 m 276 908 q 202 942 235 908 q 169 1017 169 975 q 208 1113 169 1074 q 311 1153 247 1153 q 389 1121 360 1153 q 418 1047 418 1089 q 382 947 418 986 q 276 908 346 908 z "},"ȷ":{"ha":443,"x_min":-167,"x_max":392,"o":"m 299 0 q 235 -192 285 -111 q 114 -316 186 -274 q -42 -358 42 -358 q -119 -352 -85 -358 q -167 -333 -154 -346 l -139 -246 q -110 -252 -126 -250 q -78 -254 -93 -254 q 8 -215 -24 -254 q 55 -114 40 -176 q 81 44 69 -51 l 151 665 l 40 699 l 56 754 l 357 789 l 392 772 l 299 0 z "},"ĵ":{"ha":443,"x_min":-167,"x_max":504,"o":"m 299 0 q 235 -192 285 -111 q 114 -316 186 -274 q -42 -358 42 -358 q -119 -352 -85 -358 q -167 -333 -154 -346 l -139 -246 q -110 -252 -126 -250 q -78 -254 -93 -254 q 8 -215 -24 -254 q 55 -114 40 -176 q 81 44 69 -51 l 151 665 l 40 699 l 56 754 l 357 789 l 392 772 l 299 0 m 264 1197 l 364 1190 l 504 907 l 418 872 l 279 1028 l 67 869 l 1 914 l 264 1197 z "},"k":{"ha":783,"x_min":44,"x_max":814,"o":"m 411 1100 l 265 0 l 44 0 l 176 1006 l 89 1035 l 101 1090 l 374 1119 l 411 1100 m 321 414 q 431 483 389 450 q 528 586 474 515 q 564 697 564 635 q 597 768 564 747 q 674 789 631 789 q 738 764 715 789 q 761 701 761 739 q 722 593 761 643 q 513 442 660 511 l 640 185 q 676 138 657 154 q 713 122 696 122 q 750 131 726 122 q 792 153 774 139 l 814 106 q 721 27 783 67 q 583 -12 658 -12 q 497 8 528 -12 q 450 68 465 29 l 321 414 z "},"ķ":{"ha":783,"x_min":44,"x_max":814,"o":"m 411 1100 l 265 0 l 44 0 l 176 1006 l 89 1035 l 101 1090 l 374 1119 l 411 1100 m 321 414 q 431 483 389 450 q 528 586 474 515 q 564 697 564 635 q 597 768 564 747 q 674 789 631 789 q 738 764 715 789 q 761 701 761 739 q 722 593 761 643 q 513 442 660 511 l 640 185 q 676 138 657 154 q 713 122 696 122 q 750 131 726 122 q 792 153 774 139 l 814 106 q 721 27 783 67 q 583 -12 658 -12 q 497 8 528 -12 q 450 68 465 29 l 321 414 m 244 -329 q 267 -294 257 -322 q 276 -236 276 -267 q 267 -185 276 -210 q 238 -160 257 -161 l 238 -103 l 364 -46 q 426 -103 406 -64 q 447 -193 447 -143 q 427 -276 447 -236 q 378 -344 407 -317 q 322 -378 349 -371 l 243 -346 l 244 -329 z "},"ĸ":{"ha":824,"x_min":57,"x_max":819,"o":"m 369 772 l 272 0 l 57 0 l 146 654 l 74 693 l 85 753 l 335 789 l 369 772 m 647 185 q 682 138 663 154 q 719 122 701 122 q 756 131 733 122 q 797 151 778 139 l 819 106 q 726 27 789 67 q 590 -12 664 -12 q 503 8 535 -12 q 457 68 472 29 l 329 414 l 614 771 l 810 771 l 517 450 l 647 185 z "},"l":{"ha":431,"x_min":60,"x_max":413,"o":"m 286 153 q 285 136 285 147 q 311 101 285 101 q 335 108 322 101 q 374 132 349 114 l 392 85 q 203 -14 319 -14 q 102 8 143 -14 q 60 78 61 31 q 65 131 60 86 l 182 1006 l 92 1035 l 106 1090 l 378 1119 l 413 1100 l 286 153 z "},"ĺ":{"ha":431,"x_min":60,"x_max":543,"o":"m 286 153 q 285 136 285 147 q 311 101 285 101 q 335 108 322 101 q 374 132 349 114 l 392 85 q 203 -14 319 -14 q 102 8 143 -14 q 60 78 61 31 q 65 131 60 86 l 182 1006 l 92 1035 l 106 1090 l 378 1119 l 413 1100 l 286 153 m 421 1365 l 543 1268 q 424 1171 511 1228 q 292 1101 338 1114 l 206 1160 l 421 1365 z "},"ľ":{"ha":590,"x_min":60,"x_max":681,"o":"m 286 153 q 285 136 285 147 q 311 101 285 101 q 335 108 322 101 q 374 132 349 114 l 392 85 q 203 -14 319 -14 q 102 8 143 -14 q 60 78 61 31 q 65 131 60 86 l 182 1006 l 92 1035 l 106 1090 l 378 1119 l 413 1100 l 286 153 m 490 829 l 485 847 q 494 1000 494 892 q 475 1128 494 1075 l 481 1160 l 668 1160 q 681 1051 681 1131 q 669 944 681 989 q 647 868 658 899 q 632 828 635 838 l 490 829 z "},"ļ":{"ha":431,"x_min":32,"x_max":413,"o":"m 286 153 q 285 136 285 147 q 311 101 285 101 q 335 108 322 101 q 374 132 349 114 l 392 85 q 203 -14 319 -14 q 102 8 143 -14 q 60 78 61 31 q 65 131 60 86 l 182 1006 l 92 1035 l 106 1090 l 378 1119 l 413 1100 l 286 153 m 39 -329 q 61 -294 51 -322 q 71 -236 71 -267 q 61 -185 71 -210 q 32 -160 51 -161 l 32 -103 l 158 -46 q 221 -103 200 -64 q 242 -193 242 -143 q 222 -276 242 -236 q 172 -344 201 -317 q 117 -378 143 -371 l 38 -346 l 39 -329 z "},"ŀ":{"ha":567,"x_min":60,"x_max":629,"o":"m 286 153 q 285 136 285 147 q 311 101 285 101 q 335 108 322 101 q 374 132 349 114 l 392 85 q 203 -14 319 -14 q 102 8 143 -14 q 60 78 61 31 q 65 131 60 86 l 182 1006 l 92 1035 l 106 1090 l 378 1119 l 413 1100 l 286 153 m 394 535 q 433 636 394 597 q 521 675 471 675 q 600 641 571 675 q 629 563 629 607 q 589 458 629 494 q 494 422 549 422 q 424 455 454 422 q 394 535 394 488 z "},"ḷ":{"ha":431,"x_min":3,"x_max":413,"o":"m 286 153 q 285 136 285 147 q 311 101 285 101 q 335 108 322 101 q 374 132 349 114 l 392 85 q 203 -14 319 -14 q 102 8 143 -14 q 60 78 61 31 q 65 131 60 86 l 182 1006 l 92 1035 l 106 1090 l 378 1119 l 413 1100 l 286 153 m 107 -337 q 31 -306 58 -337 q 3 -224 3 -275 q 42 -127 3 -165 q 142 -89 81 -89 q 222 -118 194 -89 q 249 -197 249 -147 q 212 -297 249 -257 q 107 -337 175 -337 z "},"ǉ":{"ha":874,"x_min":60,"x_max":849,"o":"m 286 153 q 285 136 285 147 q 311 101 285 101 q 335 108 322 101 q 374 132 349 114 l 392 85 q 203 -14 319 -14 q 102 8 143 -14 q 60 78 61 31 q 65 131 60 86 l 182 1006 l 92 1035 l 106 1090 l 378 1119 l 413 1100 l 286 153 m 729 0 q 666 -192 715 -111 q 544 -316 617 -274 q 389 -358 472 -358 q 311 -352 346 -358 q 264 -333 276 -346 l 292 -246 q 321 -252 304 -250 q 353 -254 338 -254 q 439 -215 407 -254 q 485 -114 471 -176 q 511 44 500 -51 l 582 665 l 471 699 l 486 754 l 788 789 l 822 772 l 729 0 m 707 908 q 633 942 665 908 q 600 1017 600 975 q 639 1113 600 1074 q 742 1153 678 1153 q 819 1121 790 1153 q 849 1047 849 1089 q 813 947 849 986 q 707 908 776 908 z "},"ł":{"ha":460,"x_min":38,"x_max":496,"o":"m 297 153 q 296 136 296 147 q 322 101 296 101 q 347 108 333 101 q 385 132 360 114 l 403 85 q 332 19 379 51 q 214 -14 285 -14 q 113 8 154 -14 q 71 78 72 31 q 76 131 71 86 l 133 532 l 38 494 l 38 588 l 146 632 l 193 1006 l 103 1035 l 117 1090 l 388 1119 l 422 1100 l 375 725 l 496 774 l 496 675 l 363 622 l 297 153 z "},"m":{"ha":1328,"x_min":57,"x_max":1282,"o":"m 358 628 q 467 745 404 701 q 606 789 531 789 q 789 621 772 789 q 903 745 835 701 q 1058 789 972 789 q 1190 740 1142 789 q 1238 583 1238 692 q 1204 343 1238 543 q 1199 315 1201 326 q 1175 139 1175 182 q 1182 109 1175 117 q 1201 101 1189 101 q 1226 108 1213 101 q 1263 132 1239 114 l 1282 85 q 1208 19 1258 53 q 1079 -14 1157 -14 q 972 18 999 -14 q 944 100 944 50 q 976 300 944 143 q 1007 551 1007 474 q 994 634 1007 613 q 951 656 982 656 q 866 616 911 656 q 789 514 821 576 q 772 343 785 439 l 732 0 l 508 0 l 547 300 q 568 544 568 451 q 554 634 568 613 q 504 656 540 656 q 421 611 468 656 q 342 503 374 567 l 272 0 l 57 0 l 146 654 l 74 693 l 85 753 l 333 789 l 369 772 l 358 628 z "},"ḿ":{"ha":1328,"x_min":57,"x_max":1282,"o":"m 358 628 q 467 745 404 701 q 606 789 531 789 q 789 621 772 789 q 903 745 835 701 q 1058 789 972 789 q 1190 740 1142 789 q 1238 583 1238 692 q 1204 343 1238 543 q 1199 315 1201 326 q 1175 139 1175 182 q 1182 109 1175 117 q 1201 101 1189 101 q 1226 108 1213 101 q 1263 132 1239 114 l 1282 85 q 1208 19 1258 53 q 1079 -14 1157 -14 q 972 18 999 -14 q 944 100 944 50 q 976 300 944 143 q 1007 551 1007 474 q 994 634 1007 613 q 951 656 982 656 q 866 616 911 656 q 789 514 821 576 q 772 343 785 439 l 732 0 l 508 0 l 547 300 q 568 544 568 451 q 554 634 568 613 q 504 656 540 656 q 421 611 468 656 q 342 503 374 567 l 272 0 l 57 0 l 146 654 l 74 693 l 85 753 l 333 789 l 369 772 l 358 628 m 885 1229 l 1014 1104 q 947 1033 1001 1082 q 828 939 892 985 q 726 878 765 893 l 665 938 l 885 1229 z "},"ṁ":{"ha":1328,"x_min":57,"x_max":1282,"o":"m 358 628 q 467 745 404 701 q 606 789 531 789 q 789 621 772 789 q 903 745 835 701 q 1058 789 972 789 q 1190 740 1142 789 q 1238 583 1238 692 q 1204 343 1238 543 q 1199 315 1201 326 q 1175 139 1175 182 q 1182 109 1175 117 q 1201 101 1189 101 q 1226 108 1213 101 q 1263 132 1239 114 l 1282 85 q 1208 19 1258 53 q 1079 -14 1157 -14 q 972 18 999 -14 q 944 100 944 50 q 976 300 944 143 q 1007 551 1007 474 q 994 634 1007 613 q 951 656 982 656 q 866 616 911 656 q 789 514 821 576 q 772 343 785 439 l 732 0 l 508 0 l 547 300 q 568 544 568 451 q 554 634 568 613 q 504 656 540 656 q 421 611 468 656 q 342 503 374 567 l 272 0 l 57 0 l 146 654 l 74 693 l 85 753 l 333 789 l 369 772 l 358 628 m 774 907 q 698 940 731 907 q 665 1015 665 974 q 701 1113 665 1074 q 799 1153 738 1153 q 881 1120 849 1153 q 913 1047 913 1088 q 878 947 913 986 q 774 907 843 907 z "},"n":{"ha":883,"x_min":58,"x_max":838,"o":"m 358 629 q 471 746 406 703 q 614 789 536 789 q 794 583 794 789 q 761 343 794 543 q 750 278 758 322 q 731 139 731 175 q 757 101 731 101 q 781 108 768 101 q 818 132 794 114 l 838 85 q 764 19 814 53 q 636 -14 714 -14 q 528 18 556 -14 q 500 100 500 50 q 524 256 500 138 l 532 300 q 563 551 563 474 q 550 633 563 611 q 508 656 538 656 q 421 608 468 656 q 340 489 374 560 l 274 0 l 58 0 l 146 654 l 74 693 l 85 753 l 335 789 l 369 772 l 358 629 z "},"ń":{"ha":883,"x_min":58,"x_max":838,"o":"m 358 629 q 471 746 406 703 q 614 789 536 789 q 794 583 794 789 q 761 343 794 543 q 750 278 758 322 q 731 139 731 175 q 757 101 731 101 q 781 108 768 101 q 818 132 794 114 l 838 85 q 764 19 814 53 q 636 -14 714 -14 q 528 18 556 -14 q 500 100 500 50 q 524 256 500 138 l 532 300 q 563 551 563 474 q 550 633 563 611 q 508 656 538 656 q 421 608 468 656 q 340 489 374 560 l 274 0 l 58 0 l 146 654 l 74 693 l 85 753 l 335 789 l 369 772 l 358 629 m 604 1229 l 733 1104 q 666 1033 721 1082 q 548 939 611 985 q 446 878 485 893 l 385 938 l 604 1229 z "},"ň":{"ha":883,"x_min":58,"x_max":838,"o":"m 358 629 q 471 746 406 703 q 614 789 536 789 q 794 583 794 789 q 761 343 794 543 q 750 278 758 322 q 731 139 731 175 q 757 101 731 101 q 781 108 768 101 q 818 132 794 114 l 838 85 q 764 19 814 53 q 636 -14 714 -14 q 528 18 556 -14 q 500 100 500 50 q 524 256 500 138 l 532 300 q 563 551 563 474 q 550 633 563 611 q 508 656 538 656 q 421 608 468 656 q 340 489 374 560 l 274 0 l 58 0 l 146 654 l 74 693 l 85 753 l 335 789 l 369 772 l 358 629 m 367 1168 l 504 1025 l 724 1168 l 794 1131 l 546 876 l 426 876 l 283 1131 l 367 1168 z "},"ņ":{"ha":883,"x_min":58,"x_max":838,"o":"m 358 629 q 471 746 406 703 q 614 789 536 789 q 794 583 794 789 q 761 343 794 543 q 750 278 758 322 q 731 139 731 175 q 757 101 731 101 q 781 108 768 101 q 818 132 794 114 l 838 85 q 764 19 814 53 q 636 -14 714 -14 q 528 18 556 -14 q 500 100 500 50 q 524 256 500 138 l 532 300 q 563 551 563 474 q 550 633 563 611 q 508 656 538 656 q 421 608 468 656 q 340 489 374 560 l 274 0 l 58 0 l 146 654 l 74 693 l 85 753 l 335 789 l 369 772 l 358 629 m 292 -329 q 314 -294 304 -322 q 324 -236 324 -267 q 314 -185 324 -210 q 285 -160 304 -161 l 285 -103 l 411 -46 q 474 -103 453 -64 q 494 -193 494 -143 q 474 -276 494 -236 q 425 -344 454 -317 q 369 -378 396 -371 l 290 -346 l 292 -329 z "},"ṅ":{"ha":883,"x_min":58,"x_max":838,"o":"m 358 629 q 471 746 406 703 q 614 789 536 789 q 794 583 794 789 q 761 343 794 543 q 750 278 758 322 q 731 139 731 175 q 757 101 731 101 q 781 108 768 101 q 818 132 794 114 l 838 85 q 764 19 814 53 q 636 -14 714 -14 q 528 18 556 -14 q 500 100 500 50 q 524 256 500 138 l 532 300 q 563 551 563 474 q 550 633 563 611 q 508 656 538 656 q 421 608 468 656 q 340 489 374 560 l 274 0 l 58 0 l 146 654 l 74 693 l 85 753 l 335 789 l 369 772 l 358 629 m 493 907 q 417 940 450 907 q 385 1015 385 974 q 421 1113 385 1074 q 518 1153 457 1153 q 600 1120 568 1153 q 632 1047 632 1088 q 597 947 632 986 q 493 907 563 907 z "},"ṇ":{"ha":883,"x_min":58,"x_max":838,"o":"m 358 629 q 471 746 406 703 q 614 789 536 789 q 794 583 794 789 q 761 343 794 543 q 750 278 758 322 q 731 139 731 175 q 757 101 731 101 q 781 108 768 101 q 818 132 794 114 l 838 85 q 764 19 814 53 q 636 -14 714 -14 q 528 18 556 -14 q 500 100 500 50 q 524 256 500 138 l 532 300 q 563 551 563 474 q 550 633 563 611 q 508 656 538 656 q 421 608 468 656 q 340 489 374 560 l 274 0 l 58 0 l 146 654 l 74 693 l 85 753 l 335 789 l 369 772 l 358 629 m 360 -337 q 283 -306 311 -337 q 256 -224 256 -275 q 294 -127 256 -165 q 394 -89 333 -89 q 474 -118 447 -89 q 501 -197 501 -147 q 465 -297 501 -257 q 360 -337 428 -337 z "},"ŋ":{"ha":875,"x_min":58,"x_max":796,"o":"m 358 629 q 614 788 458 788 q 745 747 694 788 q 796 610 796 706 l 794 583 q 760 235 776 371 q 725 0 744 99 q 653 -217 696 -142 q 546 -323 611 -293 q 375 -353 481 -353 q 303 -346 336 -353 q 260 -328 271 -339 l 286 -247 q 310 -253 293 -251 q 336 -256 326 -256 q 447 -194 411 -256 q 503 1 483 -132 q 532 263 514 74 q 563 560 549 439 q 564 583 564 568 q 550 637 564 618 q 510 656 536 656 q 427 613 474 656 q 340 488 381 569 l 274 0 l 58 0 l 146 653 l 74 693 l 85 753 l 335 789 l 369 772 l 358 629 z "},"ǌ":{"ha":1326,"x_min":58,"x_max":1301,"o":"m 358 629 q 471 746 406 703 q 614 789 536 789 q 794 583 794 789 q 761 343 794 543 q 750 278 758 322 q 731 139 731 175 q 757 101 731 101 q 781 108 768 101 q 818 132 794 114 l 838 85 q 764 19 814 53 q 636 -14 714 -14 q 528 18 556 -14 q 500 100 500 50 q 524 256 500 138 l 532 300 q 563 551 563 474 q 550 633 563 611 q 508 656 538 656 q 421 608 468 656 q 340 489 374 560 l 274 0 l 58 0 l 146 654 l 74 693 l 85 753 l 335 789 l 369 772 l 358 629 m 1182 0 q 1119 -192 1168 -111 q 997 -316 1069 -274 q 842 -358 925 -358 q 764 -352 799 -358 q 717 -333 729 -346 l 744 -246 q 774 -252 757 -250 q 806 -254 790 -254 q 892 -215 860 -254 q 938 -114 924 -176 q 964 44 953 -51 l 1035 665 l 924 699 l 939 754 l 1240 789 l 1275 772 l 1182 0 m 1160 908 q 1085 942 1118 908 q 1053 1017 1053 975 q 1092 1113 1053 1074 q 1194 1153 1131 1153 q 1272 1121 1243 1153 q 1301 1047 1301 1089 q 1265 947 1301 986 q 1160 908 1229 908 z "},"ñ":{"ha":883,"x_min":58,"x_max":838,"o":"m 358 629 q 471 746 406 703 q 614 789 536 789 q 794 583 794 789 q 761 343 794 543 q 750 278 758 322 q 731 139 731 175 q 757 101 731 101 q 781 108 768 101 q 818 132 794 114 l 838 85 q 764 19 814 53 q 636 -14 714 -14 q 528 18 556 -14 q 500 100 500 50 q 524 256 500 138 l 532 300 q 563 551 563 474 q 550 633 563 611 q 508 656 538 656 q 421 608 468 656 q 340 489 374 560 l 274 0 l 58 0 l 146 654 l 74 693 l 85 753 l 335 789 l 369 772 l 358 629 m 243 994 q 312 1073 265 1039 q 407 1107 358 1107 q 470 1094 446 1107 q 526 1058 494 1082 q 564 1032 549 1040 q 599 1024 579 1024 q 653 1039 633 1024 q 700 1088 674 1054 l 758 1018 q 690 935 740 972 q 588 897 639 897 q 526 909 550 897 q 476 943 503 921 q 436 972 454 963 q 392 982 418 982 q 340 969 360 982 q 293 926 321 956 l 243 994 z "},"o":{"ha":838,"x_min":46,"x_max":790,"o":"m 481 790 q 712 706 633 790 q 790 460 790 622 q 736 218 790 328 q 583 44 682 108 q 354 -19 485 -19 q 124 66 201 -19 q 46 314 46 151 q 100 555 46 446 q 253 727 154 664 q 481 790 351 790 m 456 696 q 357 634 396 696 q 301 479 318 572 q 286 292 283 386 q 313 119 290 171 q 386 68 336 68 q 508 182 468 68 q 547 449 547 296 q 526 641 547 586 q 456 696 504 696 z "},"ó":{"ha":810,"x_min":46,"x_max":813,"o":"m 688 1217 l 813 1092 q 747 1021 800 1069 q 630 927 693 972 q 529 867 567 882 l 468 925 l 688 1217 m 481 790 q 712 706 633 790 q 790 460 790 622 q 736 218 790 328 q 583 44 682 108 q 354 -19 485 -19 q 124 66 201 -19 q 46 314 46 151 q 100 555 46 446 q 253 727 154 664 q 481 790 351 790 m 456 696 q 357 634 396 696 q 301 479 318 572 q 286 292 283 386 q 313 119 290 171 q 386 68 336 68 q 508 182 468 68 q 547 449 547 296 q 526 641 547 586 q 456 696 504 696 z "},"ŏ":{"ha":838,"x_min":46,"x_max":790,"o":"m 481 790 q 712 706 633 790 q 790 460 790 622 q 736 218 790 328 q 583 44 682 108 q 354 -19 485 -19 q 124 66 201 -19 q 46 314 46 151 q 100 555 46 446 q 253 727 154 664 q 481 790 351 790 m 456 696 q 357 634 396 696 q 301 479 318 572 q 286 292 283 386 q 313 119 290 171 q 386 68 336 68 q 508 182 468 68 q 547 449 547 296 q 526 641 547 586 q 456 696 504 696 m 504 901 q 388 932 436 901 q 317 1011 340 963 q 293 1114 293 1060 q 296 1158 293 1131 l 419 1158 l 419 1129 q 443 1071 419 1094 q 515 1047 467 1047 q 597 1076 578 1047 q 619 1158 617 1106 l 742 1158 l 742 1135 q 715 1024 740 1078 q 637 936 690 971 q 504 901 583 901 z "},"ǒ":{"ha":838,"x_min":46,"x_max":813,"o":"m 481 790 q 712 706 633 790 q 790 460 790 622 q 736 218 790 328 q 583 44 682 108 q 354 -19 485 -19 q 124 66 201 -19 q 46 314 46 151 q 100 555 46 446 q 253 727 154 664 q 481 790 351 790 m 456 696 q 357 634 396 696 q 301 479 318 572 q 286 292 283 386 q 313 119 290 171 q 386 68 336 68 q 508 182 468 68 q 547 449 547 296 q 526 641 547 586 q 456 696 504 696 m 385 1182 l 522 1039 l 742 1182 l 813 1144 l 564 890 l 444 890 l 301 1144 l 385 1182 z "},"ô":{"ha":838,"x_min":46,"x_max":790,"o":"m 481 790 q 712 706 633 790 q 790 460 790 622 q 736 218 790 328 q 583 44 682 108 q 354 -19 485 -19 q 124 66 201 -19 q 46 314 46 151 q 100 555 46 446 q 253 727 154 664 q 481 790 351 790 m 456 696 q 357 634 396 696 q 301 479 318 572 q 286 292 283 386 q 313 119 290 171 q 386 68 336 68 q 508 182 468 68 q 547 449 547 296 q 526 641 547 586 q 456 696 504 696 m 503 1211 l 603 1204 l 743 921 l 657 886 l 518 1042 l 306 883 l 240 928 l 503 1211 z "},"ố":{"ha":838,"x_min":46,"x_max":1017,"o":"m 481 790 q 712 706 633 790 q 790 460 790 622 q 736 218 790 328 q 583 44 682 108 q 354 -19 485 -19 q 124 66 201 -19 q 46 314 46 151 q 100 555 46 446 q 253 727 154 664 q 481 790 351 790 m 456 696 q 357 634 396 696 q 301 479 318 572 q 286 292 283 386 q 313 119 290 171 q 386 68 336 68 q 508 182 468 68 q 547 449 547 296 q 526 641 547 586 q 456 696 504 696 m 707 1167 l 915 1379 l 1017 1279 q 902 1175 981 1235 q 769 1097 824 1115 l 707 1167 m 603 1154 l 772 936 l 678 878 l 519 1007 l 314 878 l 249 933 l 485 1154 l 603 1154 z "},"ộ":{"ha":838,"x_min":46,"x_max":790,"o":"m 481 790 q 712 706 633 790 q 790 460 790 622 q 736 218 790 328 q 583 44 682 108 q 354 -19 485 -19 q 124 66 201 -19 q 46 314 46 151 q 100 555 46 446 q 253 727 154 664 q 481 790 351 790 m 456 696 q 357 634 396 696 q 301 479 318 572 q 286 292 283 386 q 313 119 290 171 q 386 68 336 68 q 508 182 468 68 q 547 449 547 296 q 526 641 547 586 q 456 696 504 696 m 307 -357 q 231 -326 258 -357 q 203 -243 203 -294 q 242 -147 203 -185 q 342 -108 281 -108 q 422 -137 394 -108 q 449 -217 449 -167 q 412 -317 449 -276 q 307 -357 375 -357 m 503 1211 l 603 1204 l 743 921 l 657 886 l 518 1042 l 306 883 l 240 928 l 503 1211 z "},"ồ":{"ha":838,"x_min":46,"x_max":921,"o":"m 481 790 q 712 706 633 790 q 790 460 790 622 q 736 218 790 328 q 583 44 682 108 q 354 -19 485 -19 q 124 66 201 -19 q 46 314 46 151 q 100 555 46 446 q 253 727 154 664 q 481 790 351 790 m 456 696 q 357 634 396 696 q 301 479 318 572 q 286 292 283 386 q 313 119 290 171 q 386 68 336 68 q 508 182 468 68 q 547 449 547 296 q 526 641 547 586 q 456 696 504 696 m 835 1099 q 727 1175 786 1117 q 644 1279 668 1233 l 779 1379 l 921 1168 l 835 1099 m 599 1154 l 768 936 l 674 878 l 515 1007 l 310 878 l 244 933 l 481 1154 l 599 1154 z "},"ổ":{"ha":838,"x_min":46,"x_max":971,"o":"m 481 790 q 712 706 633 790 q 790 460 790 622 q 736 218 790 328 q 583 44 682 108 q 354 -19 485 -19 q 124 66 201 -19 q 46 314 46 151 q 100 555 46 446 q 253 727 154 664 q 481 790 351 790 m 456 696 q 357 634 396 696 q 301 479 318 572 q 286 292 283 386 q 313 119 290 171 q 386 68 336 68 q 508 182 468 68 q 547 449 547 296 q 526 641 547 586 q 456 696 504 696 m 775 1038 q 762 1065 768 1047 q 757 1094 756 1082 q 768 1115 760 1107 q 793 1133 776 1122 q 822 1153 811 1144 q 838 1178 832 1163 l 838 1181 q 789 1222 840 1222 q 756 1219 761 1222 l 776 1328 q 797 1331 783 1329 q 821 1333 810 1333 q 931 1308 890 1333 q 971 1232 971 1282 q 967 1197 971 1217 q 942 1153 961 1171 q 903 1121 924 1135 q 874 1100 883 1107 q 853 1076 860 1088 q 849 1044 847 1065 l 775 1038 m 597 1154 l 767 936 l 672 878 l 514 1007 l 308 878 l 243 933 l 479 1154 l 597 1154 z "},"ỗ":{"ha":838,"x_min":46,"x_max":790,"o":"m 481 790 q 712 706 633 790 q 790 460 790 622 q 736 218 790 328 q 583 44 682 108 q 354 -19 485 -19 q 124 66 201 -19 q 46 314 46 151 q 100 555 46 446 q 253 727 154 664 q 481 790 351 790 m 456 696 q 357 634 396 696 q 301 479 318 572 q 286 292 283 386 q 313 119 290 171 q 386 68 336 68 q 508 182 468 68 q 547 449 547 296 q 526 641 547 586 q 456 696 504 696 m 328 1249 q 399 1342 354 1306 q 500 1379 443 1379 q 549 1369 529 1379 q 592 1339 569 1358 q 625 1316 613 1324 q 656 1308 638 1308 q 691 1317 679 1308 q 721 1350 703 1326 l 781 1315 q 613 1188 717 1188 q 565 1197 585 1188 q 521 1226 546 1207 q 486 1251 500 1243 q 454 1258 472 1258 q 419 1249 432 1258 q 383 1215 407 1240 l 328 1249 m 600 1154 l 769 936 l 675 878 l 517 1007 l 311 878 l 246 933 l 482 1154 l 600 1154 z "},"ö":{"ha":838,"x_min":46,"x_max":790,"o":"m 481 790 q 712 706 633 790 q 790 460 790 622 q 736 218 790 328 q 583 44 682 108 q 354 -19 485 -19 q 124 66 201 -19 q 46 314 46 151 q 100 555 46 446 q 253 727 154 664 q 481 790 351 790 m 456 696 q 357 634 396 696 q 301 479 318 572 q 286 292 283 386 q 313 119 290 171 q 386 68 336 68 q 508 182 468 68 q 547 449 547 296 q 526 641 547 586 q 456 696 504 696 m 354 918 q 288 952 317 918 q 258 1028 258 986 q 290 1124 258 1086 q 376 1163 322 1163 q 449 1130 422 1163 q 476 1054 476 1097 q 446 956 476 994 q 354 918 415 918 m 661 918 q 594 952 622 918 q 565 1028 565 986 q 597 1124 565 1086 q 683 1163 628 1163 q 756 1131 728 1163 q 783 1057 783 1099 q 753 957 783 996 q 661 918 722 918 z "},"ọ":{"ha":838,"x_min":46,"x_max":790,"o":"m 481 790 q 712 706 633 790 q 790 460 790 622 q 736 218 790 328 q 583 44 682 108 q 354 -19 485 -19 q 124 66 201 -19 q 46 314 46 151 q 100 555 46 446 q 253 727 154 664 q 481 790 351 790 m 456 696 q 357 634 396 696 q 301 479 318 572 q 286 292 283 386 q 313 119 290 171 q 386 68 336 68 q 508 182 468 68 q 547 449 547 296 q 526 641 547 586 q 456 696 504 696 m 307 -357 q 231 -326 258 -357 q 203 -243 203 -294 q 242 -147 203 -185 q 342 -108 281 -108 q 422 -137 394 -108 q 449 -217 449 -167 q 412 -317 449 -276 q 307 -357 375 -357 z "},"ò":{"ha":838,"x_min":46,"x_max":790,"o":"m 481 790 q 712 706 633 790 q 790 460 790 622 q 736 218 790 328 q 583 44 682 108 q 354 -19 485 -19 q 124 66 201 -19 q 46 314 46 151 q 100 555 46 446 q 253 727 154 664 q 481 790 351 790 m 456 696 q 357 634 396 696 q 301 479 318 572 q 286 292 283 386 q 313 119 290 171 q 386 68 336 68 q 508 182 468 68 q 547 449 547 296 q 526 641 547 586 q 456 696 504 696 m 517 903 q 432 955 488 915 q 326 1042 376 994 q 256 1124 276 1089 l 392 1243 l 588 950 l 517 903 z "},"ỏ":{"ha":838,"x_min":46,"x_max":790,"o":"m 481 790 q 712 706 633 790 q 790 460 790 622 q 736 218 790 328 q 583 44 682 108 q 354 -19 485 -19 q 124 66 201 -19 q 46 314 46 151 q 100 555 46 446 q 253 727 154 664 q 481 790 351 790 m 456 696 q 357 634 396 696 q 301 479 318 572 q 286 292 283 386 q 313 119 290 171 q 386 68 336 68 q 508 182 468 68 q 547 449 547 296 q 526 641 547 586 q 456 696 504 696 m 444 868 q 428 899 436 878 q 421 938 419 921 q 434 961 424 951 q 463 983 444 971 q 495 1008 483 996 q 513 1038 507 1019 l 513 1042 q 451 1092 513 1092 l 442 1092 q 413 1089 421 1092 l 433 1219 q 454 1224 436 1221 q 486 1226 472 1226 q 623 1194 572 1226 q 674 1097 674 1161 q 669 1061 674 1081 q 642 1007 664 1029 q 594 969 619 985 q 560 944 569 953 q 536 917 543 932 q 531 876 529 903 l 444 868 z "},"ơ":{"ha":838,"x_min":46,"x_max":901,"o":"m 354 -19 q 124 66 201 -19 q 46 314 46 151 q 100 555 46 446 q 253 727 154 664 q 481 790 351 790 q 601 774 549 790 q 705 806 679 779 q 731 878 731 832 l 731 901 l 901 901 l 897 850 q 843 738 886 774 q 726 689 800 703 q 790 460 790 604 q 736 218 790 328 q 583 44 682 108 q 354 -19 485 -19 m 286 292 q 313 119 290 171 q 386 68 336 68 q 508 182 468 68 q 547 449 547 296 q 526 641 547 586 q 456 696 504 696 q 357 634 396 696 q 301 479 318 572 q 286 292 283 386 z "},"ớ":{"ha":838,"x_min":46,"x_max":901,"o":"m 354 -19 q 124 66 201 -19 q 46 314 46 151 q 100 555 46 446 q 253 727 154 664 q 481 790 351 790 q 601 774 549 790 q 705 806 679 779 q 731 878 731 832 l 731 901 l 901 901 l 897 850 q 843 738 886 774 q 726 689 800 703 q 790 460 790 604 q 736 218 790 328 q 583 44 682 108 q 354 -19 485 -19 m 286 292 q 313 119 290 171 q 386 68 336 68 q 508 182 468 68 q 547 449 547 296 q 526 641 547 586 q 456 696 504 696 q 357 634 396 696 q 301 479 318 572 q 286 292 283 386 m 622 1243 l 751 1118 q 684 1047 739 1096 q 566 953 629 999 q 464 892 503 907 l 403 951 l 622 1243 z "},"ợ":{"ha":838,"x_min":46,"x_max":901,"o":"m 354 -19 q 124 66 201 -19 q 46 314 46 151 q 100 555 46 446 q 253 727 154 664 q 481 790 351 790 q 601 774 549 790 q 705 806 679 779 q 731 878 731 832 l 731 901 l 901 901 l 897 850 q 843 738 886 774 q 726 689 800 703 q 790 460 790 604 q 736 218 790 328 q 583 44 682 108 q 354 -19 485 -19 m 286 292 q 313 119 290 171 q 386 68 336 68 q 508 182 468 68 q 547 449 547 296 q 526 641 547 586 q 456 696 504 696 q 357 634 396 696 q 301 479 318 572 q 286 292 283 386 m 307 -337 q 231 -306 258 -337 q 203 -224 203 -275 q 242 -127 203 -165 q 342 -89 281 -89 q 422 -118 394 -89 q 449 -197 449 -147 q 412 -297 449 -257 q 307 -337 375 -337 z "},"ờ":{"ha":838,"x_min":46,"x_max":901,"o":"m 354 -19 q 124 66 201 -19 q 46 314 46 151 q 100 555 46 446 q 253 727 154 664 q 481 790 351 790 q 601 774 549 790 q 705 806 679 779 q 731 878 731 832 l 731 901 l 901 901 l 897 850 q 843 738 886 774 q 726 689 800 703 q 790 460 790 604 q 736 218 790 328 q 583 44 682 108 q 354 -19 485 -19 m 286 292 q 313 119 290 171 q 386 68 336 68 q 508 182 468 68 q 547 449 547 296 q 526 641 547 586 q 456 696 504 696 q 357 634 396 696 q 301 479 318 572 q 286 292 283 386 m 517 903 q 432 955 488 915 q 326 1042 376 994 q 256 1124 276 1089 l 392 1243 l 588 950 l 517 903 z "},"ở":{"ha":838,"x_min":46,"x_max":901,"o":"m 354 -19 q 124 66 201 -19 q 46 314 46 151 q 100 555 46 446 q 253 727 154 664 q 481 790 351 790 q 601 774 549 790 q 705 806 679 779 q 731 878 731 832 l 731 901 l 901 901 l 897 850 q 843 738 886 774 q 726 689 800 703 q 790 460 790 604 q 736 218 790 328 q 583 44 682 108 q 354 -19 485 -19 m 286 292 q 313 119 290 171 q 386 68 336 68 q 508 182 468 68 q 547 449 547 296 q 526 641 547 586 q 456 696 504 696 q 357 634 396 696 q 301 479 318 572 q 286 292 283 386 m 444 868 q 428 899 436 878 q 421 938 419 921 q 434 961 424 951 q 463 983 444 971 q 495 1008 483 996 q 513 1038 507 1019 l 513 1042 q 451 1092 513 1092 l 442 1092 q 413 1089 421 1092 l 433 1219 q 454 1224 436 1221 q 486 1226 472 1226 q 623 1194 572 1226 q 674 1097 674 1161 q 669 1061 674 1081 q 642 1007 664 1029 q 594 969 619 985 q 560 944 569 953 q 536 917 543 932 q 531 876 529 903 l 444 868 z "}}}
